%TF.GenerationSoftware,KiCad,Pcbnew,8.0.4-8.0.4-0~ubuntu22.04.1*%
%TF.CreationDate,2024-08-21T02:36:33+09:00*%
%TF.ProjectId,FSR_PAD,4653525f-5041-4442-9e6b-696361645f70,rev?*%
%TF.SameCoordinates,Original*%
%TF.FileFunction,Soldermask,Bot*%
%TF.FilePolarity,Negative*%
%FSLAX46Y46*%
G04 Gerber Fmt 4.6, Leading zero omitted, Abs format (unit mm)*
G04 Created by KiCad (PCBNEW 8.0.4-8.0.4-0~ubuntu22.04.1) date 2024-08-21 02:36:33*
%MOMM*%
%LPD*%
G01*
G04 APERTURE LIST*
G04 Aperture macros list*
%AMRoundRect*
0 Rectangle with rounded corners*
0 $1 Rounding radius*
0 $2 $3 $4 $5 $6 $7 $8 $9 X,Y pos of 4 corners*
0 Add a 4 corners polygon primitive as box body*
4,1,4,$2,$3,$4,$5,$6,$7,$8,$9,$2,$3,0*
0 Add four circle primitives for the rounded corners*
1,1,$1+$1,$2,$3*
1,1,$1+$1,$4,$5*
1,1,$1+$1,$6,$7*
1,1,$1+$1,$8,$9*
0 Add four rect primitives between the rounded corners*
20,1,$1+$1,$2,$3,$4,$5,0*
20,1,$1+$1,$4,$5,$6,$7,0*
20,1,$1+$1,$6,$7,$8,$9,0*
20,1,$1+$1,$8,$9,$2,$3,0*%
G04 Aperture macros list end*
%ADD10R,1.700000X1.700000*%
%ADD11O,1.700000X1.700000*%
%ADD12R,1.500000X1.500000*%
%ADD13C,0.600000*%
%ADD14C,3.200000*%
%ADD15RoundRect,0.225000X0.375000X-0.225000X0.375000X0.225000X-0.375000X0.225000X-0.375000X-0.225000X0*%
%ADD16RoundRect,0.225000X-0.375000X0.225000X-0.375000X-0.225000X0.375000X-0.225000X0.375000X0.225000X0*%
%ADD17R,1.000000X3.150000*%
%ADD18RoundRect,0.150000X-0.825000X-0.150000X0.825000X-0.150000X0.825000X0.150000X-0.825000X0.150000X0*%
G04 APERTURE END LIST*
D10*
%TO.C,J7*%
X192000000Y-66000000D03*
D11*
X192000000Y-68540000D03*
X192000000Y-71080000D03*
X192000000Y-73620000D03*
%TD*%
D12*
%TO.C,REF\u002A\u002A*%
X89000000Y-75000000D03*
%TD*%
D13*
%TO.C,FSR_8*%
X3875000Y-140625000D03*
%TD*%
D14*
%TO.C,REF\u002A\u002A*%
X37500000Y-112500000D03*
%TD*%
D13*
%TO.C,FSR_2*%
X3875000Y-28125000D03*
%TD*%
%TO.C,FSR_58*%
X146125000Y-28125000D03*
%TD*%
%TO.C,FSR_64*%
X146125000Y-140625000D03*
%TD*%
%TO.C,FSR_9*%
X33625000Y-9375000D03*
%TD*%
%TO.C,FSR_6*%
X3875000Y-103125000D03*
%TD*%
%TO.C,FSR_22*%
X41375000Y-103125000D03*
%TD*%
%TO.C,FSR_43*%
X108625000Y-46875000D03*
%TD*%
%TO.C,FSR_10*%
X33625000Y-28125000D03*
%TD*%
%TO.C,FSR_21*%
X41375000Y-84375000D03*
%TD*%
%TO.C,FSR_30*%
X71125000Y-103125000D03*
%TD*%
%TO.C,FSR_52*%
X116375000Y-65625000D03*
%TD*%
%TO.C,FSR_32*%
X71125000Y-140625000D03*
%TD*%
%TO.C,FSR_18*%
X41375000Y-28125000D03*
%TD*%
%TO.C,FSR_19*%
X41375000Y-46875000D03*
%TD*%
%TO.C,FSR_25*%
X71125000Y-9375000D03*
%TD*%
%TO.C,FSR_61*%
X146125000Y-84375000D03*
%TD*%
%TO.C,FSR_49*%
X116375000Y-9375000D03*
%TD*%
%TO.C,FSR_38*%
X78875000Y-103125000D03*
%TD*%
%TO.C,FSR_5*%
X3875000Y-84375000D03*
%TD*%
%TO.C,FSR_11*%
X33625000Y-46875000D03*
%TD*%
%TO.C,FSR_57*%
X146125000Y-9375000D03*
%TD*%
%TO.C,FSR_44*%
X108625000Y-65625000D03*
%TD*%
%TO.C,FSR_42*%
X108625000Y-28125000D03*
%TD*%
%TO.C,FSR_63*%
X146125000Y-121875000D03*
%TD*%
%TO.C,FSR_37*%
X78875000Y-84375000D03*
%TD*%
%TO.C,FSR_7*%
X3875000Y-121875000D03*
%TD*%
%TO.C,FSR_55*%
X116375000Y-121875000D03*
%TD*%
%TO.C,FSR_16*%
X33625000Y-140625000D03*
%TD*%
%TO.C,FSR_60*%
X146125000Y-65625000D03*
%TD*%
%TO.C,FSR_34*%
X78875000Y-28125000D03*
%TD*%
%TO.C,FSR_31*%
X71125000Y-121875000D03*
%TD*%
%TO.C,FSR_14*%
X33625000Y-103125000D03*
%TD*%
%TO.C,FSR_48*%
X108625000Y-140625000D03*
%TD*%
%TO.C,FSR_36*%
X78875000Y-65625000D03*
%TD*%
%TO.C,FSR_54*%
X116375000Y-103125000D03*
%TD*%
%TO.C,FSR_39*%
X78875000Y-121875000D03*
%TD*%
%TO.C,FSR_53*%
X116375000Y-84375000D03*
%TD*%
%TO.C,FSR_1*%
X3875000Y-9375000D03*
%TD*%
%TO.C,FSR_62*%
X146125000Y-103125000D03*
%TD*%
D10*
%TO.C,J1*%
X188500000Y-3680000D03*
D11*
X191040000Y-3680000D03*
X188500000Y-6220000D03*
X191040000Y-6220000D03*
X188500000Y-8760000D03*
X191040000Y-8760000D03*
X188500000Y-11300000D03*
X191040000Y-11300000D03*
X188500000Y-13840000D03*
X191040000Y-13840000D03*
X188500000Y-16380000D03*
X191040000Y-16380000D03*
X188500000Y-18920000D03*
X191040000Y-18920000D03*
X188500000Y-21460000D03*
X191040000Y-21460000D03*
X188500000Y-24000000D03*
X191040000Y-24000000D03*
X188500000Y-26540000D03*
X191040000Y-26540000D03*
X188500000Y-29080000D03*
X191040000Y-29080000D03*
X188500000Y-31620000D03*
X191040000Y-31620000D03*
X188500000Y-34160000D03*
X191040000Y-34160000D03*
X188500000Y-36700000D03*
X191040000Y-36700000D03*
X188500000Y-39240000D03*
X191040000Y-39240000D03*
X188500000Y-41780000D03*
X191040000Y-41780000D03*
X188500000Y-44320000D03*
X191040000Y-44320000D03*
X188500000Y-46860000D03*
X191040000Y-46860000D03*
X188500000Y-49400000D03*
X191040000Y-49400000D03*
X188500000Y-51940000D03*
X191040000Y-51940000D03*
%TD*%
D13*
%TO.C,FSR_24*%
X41375000Y-140625000D03*
%TD*%
%TO.C,FSR_13*%
X33625000Y-84375000D03*
%TD*%
%TO.C,FSR_29*%
X71125000Y-84375000D03*
%TD*%
%TO.C,FSR_28*%
X71125000Y-65625000D03*
%TD*%
%TO.C,FSR_20*%
X41375000Y-65625000D03*
%TD*%
%TO.C,FSR_47*%
X108625000Y-121875000D03*
%TD*%
%TO.C,FSR_59*%
X146125000Y-46875000D03*
%TD*%
%TO.C,FSR_23*%
X41375000Y-121875000D03*
%TD*%
%TO.C,FSR_41*%
X108625000Y-9375000D03*
%TD*%
%TO.C,FSR_12*%
X33625000Y-65625000D03*
%TD*%
D14*
%TO.C,REF\u002A\u002A*%
X112500000Y-112500000D03*
%TD*%
D13*
%TO.C,FSR_40*%
X78875000Y-140625000D03*
%TD*%
%TO.C,FSR_51*%
X116375000Y-46875000D03*
%TD*%
%TO.C,FSR_45*%
X108625000Y-84375000D03*
%TD*%
%TO.C,FSR_50*%
X116375000Y-28125000D03*
%TD*%
%TO.C,FSR_3*%
X3875000Y-46875000D03*
%TD*%
%TO.C,FSR_26*%
X71125000Y-28125000D03*
%TD*%
%TO.C,FSR_17*%
X41375000Y-9375000D03*
%TD*%
%TO.C,FSR_35*%
X78875000Y-46875000D03*
%TD*%
%TO.C,FSR_15*%
X33625000Y-121875000D03*
%TD*%
%TO.C,FSR_56*%
X116375000Y-140625000D03*
%TD*%
%TO.C,FSR_46*%
X108625000Y-103125000D03*
%TD*%
%TO.C,FSR_27*%
X71125000Y-46875000D03*
%TD*%
%TO.C,FSR_33*%
X78875000Y-9375000D03*
%TD*%
%TO.C,FSR_4*%
X3875000Y-65625000D03*
%TD*%
D15*
%TO.C,D35*%
X78875000Y-53150000D03*
X78875000Y-49850000D03*
%TD*%
D16*
%TO.C,D24*%
X41375000Y-134350000D03*
X41375000Y-137650000D03*
%TD*%
%TO.C,D34*%
X78875000Y-21850000D03*
X78875000Y-25150000D03*
%TD*%
D15*
%TO.C,D9*%
X33625000Y-15650000D03*
X33625000Y-12350000D03*
%TD*%
D16*
%TO.C,D50*%
X116375000Y-21850000D03*
X116375000Y-25150000D03*
%TD*%
D15*
%TO.C,D41*%
X108625000Y-15650000D03*
X108625000Y-12350000D03*
%TD*%
D16*
%TO.C,D30*%
X71125000Y-96850000D03*
X71125000Y-100150000D03*
%TD*%
D17*
%TO.C,J2*%
X83890000Y-77525000D03*
X83890000Y-72475000D03*
X81350000Y-77525000D03*
X81350000Y-72475000D03*
X78810000Y-77525000D03*
X78810000Y-72475000D03*
X76270000Y-77525000D03*
X76270000Y-72475000D03*
X73730000Y-77525000D03*
X73730000Y-72475000D03*
X71190000Y-77525000D03*
X71190000Y-72475000D03*
X68650000Y-77525000D03*
X68650000Y-72475000D03*
X66110000Y-77525000D03*
X66110000Y-72475000D03*
%TD*%
D15*
%TO.C,D37*%
X78875000Y-90650000D03*
X78875000Y-87350000D03*
%TD*%
D16*
%TO.C,D10*%
X33625000Y-21850000D03*
X33625000Y-25150000D03*
%TD*%
D15*
%TO.C,D19*%
X41375000Y-53150000D03*
X41375000Y-49850000D03*
%TD*%
D16*
%TO.C,D6*%
X3875000Y-96850000D03*
X3875000Y-100150000D03*
%TD*%
D15*
%TO.C,D61*%
X146125000Y-90650000D03*
X146125000Y-87350000D03*
%TD*%
D16*
%TO.C,D18*%
X41375000Y-21850000D03*
X41375000Y-25150000D03*
%TD*%
%TO.C,D22*%
X41375000Y-96850000D03*
X41375000Y-100150000D03*
%TD*%
%TO.C,D20*%
X41375000Y-59350000D03*
X41375000Y-62650000D03*
%TD*%
%TO.C,D14*%
X33625000Y-96850000D03*
X33625000Y-100150000D03*
%TD*%
%TO.C,D48*%
X108625000Y-134350000D03*
X108625000Y-137650000D03*
%TD*%
%TO.C,D28*%
X71125000Y-59350000D03*
X71125000Y-62650000D03*
%TD*%
%TO.C,D64*%
X146125000Y-134350000D03*
X146125000Y-137650000D03*
%TD*%
%TO.C,D40*%
X78875000Y-134350000D03*
X78875000Y-137650000D03*
%TD*%
D15*
%TO.C,D51*%
X116375000Y-53150000D03*
X116375000Y-49850000D03*
%TD*%
%TO.C,D43*%
X108625000Y-53150000D03*
X108625000Y-49850000D03*
%TD*%
%TO.C,D45*%
X108625000Y-90650000D03*
X108625000Y-87350000D03*
%TD*%
%TO.C,D39*%
X78875000Y-124850000D03*
X78875000Y-128150000D03*
%TD*%
D16*
%TO.C,D56*%
X116375000Y-134350000D03*
X116375000Y-137650000D03*
%TD*%
D15*
%TO.C,D25*%
X71125000Y-15650000D03*
X71125000Y-12350000D03*
%TD*%
%TO.C,D21*%
X41375000Y-90650000D03*
X41375000Y-87350000D03*
%TD*%
%TO.C,D55*%
X116375000Y-124850000D03*
X116375000Y-128150000D03*
%TD*%
%TO.C,D49*%
X116375000Y-15650000D03*
X116375000Y-12350000D03*
%TD*%
D16*
%TO.C,D60*%
X146125000Y-59350000D03*
X146125000Y-62650000D03*
%TD*%
D18*
%TO.C,U1*%
X184025000Y-64445000D03*
X184025000Y-63175000D03*
X184025000Y-61905000D03*
X184025000Y-60635000D03*
X184025000Y-59365000D03*
X184025000Y-58095000D03*
X184025000Y-56825000D03*
X184025000Y-55555000D03*
X188975000Y-55555000D03*
X188975000Y-56825000D03*
X188975000Y-58095000D03*
X188975000Y-59365000D03*
X188975000Y-60635000D03*
X188975000Y-61905000D03*
X188975000Y-63175000D03*
X188975000Y-64445000D03*
%TD*%
D16*
%TO.C,D32*%
X71125000Y-134350000D03*
X71125000Y-137650000D03*
%TD*%
D15*
%TO.C,D33*%
X78875000Y-15650000D03*
X78875000Y-12350000D03*
%TD*%
%TO.C,D5*%
X3875000Y-90650000D03*
X3875000Y-87350000D03*
%TD*%
%TO.C,D13*%
X33625000Y-90650000D03*
X33625000Y-87350000D03*
%TD*%
%TO.C,D47*%
X108625000Y-124850000D03*
X108625000Y-128150000D03*
%TD*%
D16*
%TO.C,D42*%
X108625000Y-21850000D03*
X108625000Y-25150000D03*
%TD*%
D15*
%TO.C,D11*%
X33625000Y-53150000D03*
X33625000Y-49850000D03*
%TD*%
D16*
%TO.C,D44*%
X108625000Y-59350000D03*
X108625000Y-62650000D03*
%TD*%
%TO.C,D8*%
X3875000Y-134350000D03*
X3875000Y-137650000D03*
%TD*%
%TO.C,D58*%
X146125000Y-21850000D03*
X146125000Y-25150000D03*
%TD*%
%TO.C,D36*%
X78875000Y-59350000D03*
X78875000Y-62650000D03*
%TD*%
D15*
%TO.C,D59*%
X146125000Y-53150000D03*
X146125000Y-49850000D03*
%TD*%
D16*
%TO.C,D12*%
X33625000Y-59350000D03*
X33625000Y-62650000D03*
%TD*%
%TO.C,D4*%
X3875000Y-59350000D03*
X3875000Y-62650000D03*
%TD*%
%TO.C,D62*%
X146125000Y-96850000D03*
X146125000Y-100150000D03*
%TD*%
D15*
%TO.C,D15*%
X33625000Y-124850000D03*
X33625000Y-128150000D03*
%TD*%
%TO.C,D53*%
X116375000Y-90650000D03*
X116375000Y-87350000D03*
%TD*%
%TO.C,D57*%
X146125000Y-15650000D03*
X146125000Y-12350000D03*
%TD*%
%TO.C,D23*%
X41375000Y-124850000D03*
X41375000Y-128150000D03*
%TD*%
D16*
%TO.C,D26*%
X71125000Y-21850000D03*
X71125000Y-25150000D03*
%TD*%
D15*
%TO.C,D29*%
X71125000Y-90650000D03*
X71125000Y-87350000D03*
%TD*%
D16*
%TO.C,D54*%
X116375000Y-96850000D03*
X116375000Y-100150000D03*
%TD*%
D15*
%TO.C,D7*%
X3875000Y-124850000D03*
X3875000Y-128150000D03*
%TD*%
D16*
%TO.C,D46*%
X108625000Y-96850000D03*
X108625000Y-100150000D03*
%TD*%
%TO.C,D52*%
X116375000Y-59350000D03*
X116375000Y-62650000D03*
%TD*%
D15*
%TO.C,D63*%
X146125000Y-124850000D03*
X146125000Y-128150000D03*
%TD*%
%TO.C,D31*%
X71125000Y-124850000D03*
X71125000Y-128150000D03*
%TD*%
D16*
%TO.C,D38*%
X78875000Y-96850000D03*
X78875000Y-100150000D03*
%TD*%
D15*
%TO.C,D1*%
X3875000Y-15650000D03*
X3875000Y-12350000D03*
%TD*%
D16*
%TO.C,D16*%
X33625000Y-134350000D03*
X33625000Y-137650000D03*
%TD*%
D15*
%TO.C,D17*%
X41375000Y-15650000D03*
X41375000Y-12350000D03*
%TD*%
D16*
%TO.C,D2*%
X3875000Y-21850000D03*
X3875000Y-25150000D03*
%TD*%
D15*
%TO.C,D27*%
X71125000Y-53150000D03*
X71125000Y-49850000D03*
%TD*%
%TO.C,D3*%
X3875000Y-53150000D03*
X3875000Y-49850000D03*
%TD*%
M02*
