%TF.GenerationSoftware,KiCad,Pcbnew,8.0.4-8.0.4-0~ubuntu22.04.1*%
%TF.CreationDate,2024-08-21T02:36:33+09:00*%
%TF.ProjectId,FSR_PAD,4653525f-5041-4442-9e6b-696361645f70,rev?*%
%TF.SameCoordinates,Original*%
%TF.FileFunction,Legend,Top*%
%TF.FilePolarity,Positive*%
%FSLAX46Y46*%
G04 Gerber Fmt 4.6, Leading zero omitted, Abs format (unit mm)*
G04 Created by KiCad (PCBNEW 8.0.4-8.0.4-0~ubuntu22.04.1) date 2024-08-21 02:36:33*
%MOMM*%
%LPD*%
G01*
G04 APERTURE LIST*
%ADD10C,0.300000*%
%ADD11C,0.250000*%
%ADD12C,0.150000*%
%ADD13C,0.120000*%
G04 APERTURE END LIST*
D10*
X157678328Y-22999999D02*
X158035471Y-22999999D01*
X157892614Y-23357142D02*
X158035471Y-22999999D01*
X158035471Y-22999999D02*
X157892614Y-22642856D01*
X158321185Y-23214285D02*
X158035471Y-22999999D01*
X158035471Y-22999999D02*
X158321185Y-22785713D01*
X186178328Y-3679999D02*
X186535471Y-3679999D01*
X186392614Y-4037142D02*
X186535471Y-3679999D01*
X186535471Y-3679999D02*
X186392614Y-3322856D01*
X186821185Y-3894285D02*
X186535471Y-3679999D01*
X186535471Y-3679999D02*
X186821185Y-3465713D01*
X157678328Y-999999D02*
X158035471Y-999999D01*
X157892614Y-1357142D02*
X158035471Y-999999D01*
X158035471Y-999999D02*
X157892614Y-642856D01*
X158321185Y-1214285D02*
X158035471Y-999999D01*
X158035471Y-999999D02*
X158321185Y-785713D01*
X157678328Y-44999999D02*
X158035471Y-44999999D01*
X157892614Y-45357142D02*
X158035471Y-44999999D01*
X158035471Y-44999999D02*
X157892614Y-44642856D01*
X158321185Y-45214285D02*
X158035471Y-44999999D01*
X158035471Y-44999999D02*
X158321185Y-44785713D01*
D11*
X166666666Y-44449619D02*
X166666666Y-45163904D01*
X166666666Y-45163904D02*
X166619047Y-45306761D01*
X166619047Y-45306761D02*
X166523809Y-45402000D01*
X166523809Y-45402000D02*
X166380952Y-45449619D01*
X166380952Y-45449619D02*
X166285714Y-45449619D01*
X167095238Y-44544857D02*
X167142857Y-44497238D01*
X167142857Y-44497238D02*
X167238095Y-44449619D01*
X167238095Y-44449619D02*
X167476190Y-44449619D01*
X167476190Y-44449619D02*
X167571428Y-44497238D01*
X167571428Y-44497238D02*
X167619047Y-44544857D01*
X167619047Y-44544857D02*
X167666666Y-44640095D01*
X167666666Y-44640095D02*
X167666666Y-44735333D01*
X167666666Y-44735333D02*
X167619047Y-44878190D01*
X167619047Y-44878190D02*
X167047619Y-45449619D01*
X167047619Y-45449619D02*
X167666666Y-45449619D01*
X166666666Y-66449619D02*
X166666666Y-67163904D01*
X166666666Y-67163904D02*
X166619047Y-67306761D01*
X166619047Y-67306761D02*
X166523809Y-67402000D01*
X166523809Y-67402000D02*
X166380952Y-67449619D01*
X166380952Y-67449619D02*
X166285714Y-67449619D01*
X167047619Y-66449619D02*
X167666666Y-66449619D01*
X167666666Y-66449619D02*
X167333333Y-66830571D01*
X167333333Y-66830571D02*
X167476190Y-66830571D01*
X167476190Y-66830571D02*
X167571428Y-66878190D01*
X167571428Y-66878190D02*
X167619047Y-66925809D01*
X167619047Y-66925809D02*
X167666666Y-67021047D01*
X167666666Y-67021047D02*
X167666666Y-67259142D01*
X167666666Y-67259142D02*
X167619047Y-67354380D01*
X167619047Y-67354380D02*
X167571428Y-67402000D01*
X167571428Y-67402000D02*
X167476190Y-67449619D01*
X167476190Y-67449619D02*
X167190476Y-67449619D01*
X167190476Y-67449619D02*
X167095238Y-67402000D01*
X167095238Y-67402000D02*
X167047619Y-67354380D01*
X166666666Y-22449619D02*
X166666666Y-23163904D01*
X166666666Y-23163904D02*
X166619047Y-23306761D01*
X166619047Y-23306761D02*
X166523809Y-23402000D01*
X166523809Y-23402000D02*
X166380952Y-23449619D01*
X166380952Y-23449619D02*
X166285714Y-23449619D01*
X167666666Y-23449619D02*
X167095238Y-23449619D01*
X167380952Y-23449619D02*
X167380952Y-22449619D01*
X167380952Y-22449619D02*
X167285714Y-22592476D01*
X167285714Y-22592476D02*
X167190476Y-22687714D01*
X167190476Y-22687714D02*
X167095238Y-22735333D01*
X166666666Y-949619D02*
X166666666Y-1663904D01*
X166666666Y-1663904D02*
X166619047Y-1806761D01*
X166619047Y-1806761D02*
X166523809Y-1902000D01*
X166523809Y-1902000D02*
X166380952Y-1949619D01*
X166380952Y-1949619D02*
X166285714Y-1949619D01*
X167333333Y-949619D02*
X167428571Y-949619D01*
X167428571Y-949619D02*
X167523809Y-997238D01*
X167523809Y-997238D02*
X167571428Y-1044857D01*
X167571428Y-1044857D02*
X167619047Y-1140095D01*
X167619047Y-1140095D02*
X167666666Y-1330571D01*
X167666666Y-1330571D02*
X167666666Y-1568666D01*
X167666666Y-1568666D02*
X167619047Y-1759142D01*
X167619047Y-1759142D02*
X167571428Y-1854380D01*
X167571428Y-1854380D02*
X167523809Y-1902000D01*
X167523809Y-1902000D02*
X167428571Y-1949619D01*
X167428571Y-1949619D02*
X167333333Y-1949619D01*
X167333333Y-1949619D02*
X167238095Y-1902000D01*
X167238095Y-1902000D02*
X167190476Y-1854380D01*
X167190476Y-1854380D02*
X167142857Y-1759142D01*
X167142857Y-1759142D02*
X167095238Y-1568666D01*
X167095238Y-1568666D02*
X167095238Y-1330571D01*
X167095238Y-1330571D02*
X167142857Y-1140095D01*
X167142857Y-1140095D02*
X167190476Y-1044857D01*
X167190476Y-1044857D02*
X167238095Y-997238D01*
X167238095Y-997238D02*
X167333333Y-949619D01*
D10*
X157678328Y-66999999D02*
X158035471Y-66999999D01*
X157892614Y-67357142D02*
X158035471Y-66999999D01*
X158035471Y-66999999D02*
X157892614Y-66642856D01*
X158321185Y-67214285D02*
X158035471Y-66999999D01*
X158035471Y-66999999D02*
X158321185Y-66785713D01*
X183229885Y-4054510D02*
X183229885Y-3554510D01*
X182444171Y-3554510D02*
X183944171Y-3554510D01*
X183944171Y-3554510D02*
X183944171Y-4268796D01*
X182515600Y-4768796D02*
X182444171Y-4983082D01*
X182444171Y-4983082D02*
X182444171Y-5340224D01*
X182444171Y-5340224D02*
X182515600Y-5483082D01*
X182515600Y-5483082D02*
X182587028Y-5554510D01*
X182587028Y-5554510D02*
X182729885Y-5625939D01*
X182729885Y-5625939D02*
X182872742Y-5625939D01*
X182872742Y-5625939D02*
X183015600Y-5554510D01*
X183015600Y-5554510D02*
X183087028Y-5483082D01*
X183087028Y-5483082D02*
X183158457Y-5340224D01*
X183158457Y-5340224D02*
X183229885Y-5054510D01*
X183229885Y-5054510D02*
X183301314Y-4911653D01*
X183301314Y-4911653D02*
X183372742Y-4840224D01*
X183372742Y-4840224D02*
X183515600Y-4768796D01*
X183515600Y-4768796D02*
X183658457Y-4768796D01*
X183658457Y-4768796D02*
X183801314Y-4840224D01*
X183801314Y-4840224D02*
X183872742Y-4911653D01*
X183872742Y-4911653D02*
X183944171Y-5054510D01*
X183944171Y-5054510D02*
X183944171Y-5411653D01*
X183944171Y-5411653D02*
X183872742Y-5625939D01*
X182444171Y-7125938D02*
X183158457Y-6625938D01*
X182444171Y-6268795D02*
X183944171Y-6268795D01*
X183944171Y-6268795D02*
X183944171Y-6840224D01*
X183944171Y-6840224D02*
X183872742Y-6983081D01*
X183872742Y-6983081D02*
X183801314Y-7054510D01*
X183801314Y-7054510D02*
X183658457Y-7125938D01*
X183658457Y-7125938D02*
X183444171Y-7125938D01*
X183444171Y-7125938D02*
X183301314Y-7054510D01*
X183301314Y-7054510D02*
X183229885Y-6983081D01*
X183229885Y-6983081D02*
X183158457Y-6840224D01*
X183158457Y-6840224D02*
X183158457Y-6268795D01*
X182515600Y-8840224D02*
X182444171Y-9054510D01*
X182444171Y-9054510D02*
X182444171Y-9411652D01*
X182444171Y-9411652D02*
X182515600Y-9554510D01*
X182515600Y-9554510D02*
X182587028Y-9625938D01*
X182587028Y-9625938D02*
X182729885Y-9697367D01*
X182729885Y-9697367D02*
X182872742Y-9697367D01*
X182872742Y-9697367D02*
X183015600Y-9625938D01*
X183015600Y-9625938D02*
X183087028Y-9554510D01*
X183087028Y-9554510D02*
X183158457Y-9411652D01*
X183158457Y-9411652D02*
X183229885Y-9125938D01*
X183229885Y-9125938D02*
X183301314Y-8983081D01*
X183301314Y-8983081D02*
X183372742Y-8911652D01*
X183372742Y-8911652D02*
X183515600Y-8840224D01*
X183515600Y-8840224D02*
X183658457Y-8840224D01*
X183658457Y-8840224D02*
X183801314Y-8911652D01*
X183801314Y-8911652D02*
X183872742Y-8983081D01*
X183872742Y-8983081D02*
X183944171Y-9125938D01*
X183944171Y-9125938D02*
X183944171Y-9483081D01*
X183944171Y-9483081D02*
X183872742Y-9697367D01*
X182515600Y-10911652D02*
X182444171Y-10768795D01*
X182444171Y-10768795D02*
X182444171Y-10483081D01*
X182444171Y-10483081D02*
X182515600Y-10340223D01*
X182515600Y-10340223D02*
X182658457Y-10268795D01*
X182658457Y-10268795D02*
X183229885Y-10268795D01*
X183229885Y-10268795D02*
X183372742Y-10340223D01*
X183372742Y-10340223D02*
X183444171Y-10483081D01*
X183444171Y-10483081D02*
X183444171Y-10768795D01*
X183444171Y-10768795D02*
X183372742Y-10911652D01*
X183372742Y-10911652D02*
X183229885Y-10983081D01*
X183229885Y-10983081D02*
X183087028Y-10983081D01*
X183087028Y-10983081D02*
X182944171Y-10268795D01*
X183444171Y-11625937D02*
X182444171Y-11625937D01*
X183301314Y-11625937D02*
X183372742Y-11697366D01*
X183372742Y-11697366D02*
X183444171Y-11840223D01*
X183444171Y-11840223D02*
X183444171Y-12054509D01*
X183444171Y-12054509D02*
X183372742Y-12197366D01*
X183372742Y-12197366D02*
X183229885Y-12268795D01*
X183229885Y-12268795D02*
X182444171Y-12268795D01*
X182515600Y-12911652D02*
X182444171Y-13054509D01*
X182444171Y-13054509D02*
X182444171Y-13340223D01*
X182444171Y-13340223D02*
X182515600Y-13483080D01*
X182515600Y-13483080D02*
X182658457Y-13554509D01*
X182658457Y-13554509D02*
X182729885Y-13554509D01*
X182729885Y-13554509D02*
X182872742Y-13483080D01*
X182872742Y-13483080D02*
X182944171Y-13340223D01*
X182944171Y-13340223D02*
X182944171Y-13125938D01*
X182944171Y-13125938D02*
X183015600Y-12983080D01*
X183015600Y-12983080D02*
X183158457Y-12911652D01*
X183158457Y-12911652D02*
X183229885Y-12911652D01*
X183229885Y-12911652D02*
X183372742Y-12983080D01*
X183372742Y-12983080D02*
X183444171Y-13125938D01*
X183444171Y-13125938D02*
X183444171Y-13340223D01*
X183444171Y-13340223D02*
X183372742Y-13483080D01*
X182444171Y-14411652D02*
X182515600Y-14268795D01*
X182515600Y-14268795D02*
X182587028Y-14197366D01*
X182587028Y-14197366D02*
X182729885Y-14125938D01*
X182729885Y-14125938D02*
X183158457Y-14125938D01*
X183158457Y-14125938D02*
X183301314Y-14197366D01*
X183301314Y-14197366D02*
X183372742Y-14268795D01*
X183372742Y-14268795D02*
X183444171Y-14411652D01*
X183444171Y-14411652D02*
X183444171Y-14625938D01*
X183444171Y-14625938D02*
X183372742Y-14768795D01*
X183372742Y-14768795D02*
X183301314Y-14840224D01*
X183301314Y-14840224D02*
X183158457Y-14911652D01*
X183158457Y-14911652D02*
X182729885Y-14911652D01*
X182729885Y-14911652D02*
X182587028Y-14840224D01*
X182587028Y-14840224D02*
X182515600Y-14768795D01*
X182515600Y-14768795D02*
X182444171Y-14625938D01*
X182444171Y-14625938D02*
X182444171Y-14411652D01*
X182444171Y-15554509D02*
X183444171Y-15554509D01*
X183158457Y-15554509D02*
X183301314Y-15625938D01*
X183301314Y-15625938D02*
X183372742Y-15697367D01*
X183372742Y-15697367D02*
X183444171Y-15840224D01*
X183444171Y-15840224D02*
X183444171Y-15983081D01*
X180029255Y-4411653D02*
X180743541Y-3911653D01*
X180029255Y-3554510D02*
X181529255Y-3554510D01*
X181529255Y-3554510D02*
X181529255Y-4125939D01*
X181529255Y-4125939D02*
X181457826Y-4268796D01*
X181457826Y-4268796D02*
X181386398Y-4340225D01*
X181386398Y-4340225D02*
X181243541Y-4411653D01*
X181243541Y-4411653D02*
X181029255Y-4411653D01*
X181029255Y-4411653D02*
X180886398Y-4340225D01*
X180886398Y-4340225D02*
X180814969Y-4268796D01*
X180814969Y-4268796D02*
X180743541Y-4125939D01*
X180743541Y-4125939D02*
X180743541Y-3554510D01*
X180100684Y-5625939D02*
X180029255Y-5483082D01*
X180029255Y-5483082D02*
X180029255Y-5197368D01*
X180029255Y-5197368D02*
X180100684Y-5054510D01*
X180100684Y-5054510D02*
X180243541Y-4983082D01*
X180243541Y-4983082D02*
X180814969Y-4983082D01*
X180814969Y-4983082D02*
X180957826Y-5054510D01*
X180957826Y-5054510D02*
X181029255Y-5197368D01*
X181029255Y-5197368D02*
X181029255Y-5483082D01*
X181029255Y-5483082D02*
X180957826Y-5625939D01*
X180957826Y-5625939D02*
X180814969Y-5697368D01*
X180814969Y-5697368D02*
X180672112Y-5697368D01*
X180672112Y-5697368D02*
X180529255Y-4983082D01*
X180029255Y-6983082D02*
X180814969Y-6983082D01*
X180814969Y-6983082D02*
X180957826Y-6911653D01*
X180957826Y-6911653D02*
X181029255Y-6768796D01*
X181029255Y-6768796D02*
X181029255Y-6483082D01*
X181029255Y-6483082D02*
X180957826Y-6340224D01*
X180100684Y-6983082D02*
X180029255Y-6840224D01*
X180029255Y-6840224D02*
X180029255Y-6483082D01*
X180029255Y-6483082D02*
X180100684Y-6340224D01*
X180100684Y-6340224D02*
X180243541Y-6268796D01*
X180243541Y-6268796D02*
X180386398Y-6268796D01*
X180386398Y-6268796D02*
X180529255Y-6340224D01*
X180529255Y-6340224D02*
X180600684Y-6483082D01*
X180600684Y-6483082D02*
X180600684Y-6840224D01*
X180600684Y-6840224D02*
X180672112Y-6983082D01*
X180029255Y-8340225D02*
X181529255Y-8340225D01*
X180100684Y-8340225D02*
X180029255Y-8197367D01*
X180029255Y-8197367D02*
X180029255Y-7911653D01*
X180029255Y-7911653D02*
X180100684Y-7768796D01*
X180100684Y-7768796D02*
X180172112Y-7697367D01*
X180172112Y-7697367D02*
X180314969Y-7625939D01*
X180314969Y-7625939D02*
X180743541Y-7625939D01*
X180743541Y-7625939D02*
X180886398Y-7697367D01*
X180886398Y-7697367D02*
X180957826Y-7768796D01*
X180957826Y-7768796D02*
X181029255Y-7911653D01*
X181029255Y-7911653D02*
X181029255Y-8197367D01*
X181029255Y-8197367D02*
X180957826Y-8340225D01*
X180814969Y-10697367D02*
X180743541Y-10911653D01*
X180743541Y-10911653D02*
X180672112Y-10983082D01*
X180672112Y-10983082D02*
X180529255Y-11054510D01*
X180529255Y-11054510D02*
X180314969Y-11054510D01*
X180314969Y-11054510D02*
X180172112Y-10983082D01*
X180172112Y-10983082D02*
X180100684Y-10911653D01*
X180100684Y-10911653D02*
X180029255Y-10768796D01*
X180029255Y-10768796D02*
X180029255Y-10197367D01*
X180029255Y-10197367D02*
X181529255Y-10197367D01*
X181529255Y-10197367D02*
X181529255Y-10697367D01*
X181529255Y-10697367D02*
X181457826Y-10840225D01*
X181457826Y-10840225D02*
X181386398Y-10911653D01*
X181386398Y-10911653D02*
X181243541Y-10983082D01*
X181243541Y-10983082D02*
X181100684Y-10983082D01*
X181100684Y-10983082D02*
X180957826Y-10911653D01*
X180957826Y-10911653D02*
X180886398Y-10840225D01*
X180886398Y-10840225D02*
X180814969Y-10697367D01*
X180814969Y-10697367D02*
X180814969Y-10197367D01*
X180029255Y-11911653D02*
X180100684Y-11768796D01*
X180100684Y-11768796D02*
X180172112Y-11697367D01*
X180172112Y-11697367D02*
X180314969Y-11625939D01*
X180314969Y-11625939D02*
X180743541Y-11625939D01*
X180743541Y-11625939D02*
X180886398Y-11697367D01*
X180886398Y-11697367D02*
X180957826Y-11768796D01*
X180957826Y-11768796D02*
X181029255Y-11911653D01*
X181029255Y-11911653D02*
X181029255Y-12125939D01*
X181029255Y-12125939D02*
X180957826Y-12268796D01*
X180957826Y-12268796D02*
X180886398Y-12340225D01*
X180886398Y-12340225D02*
X180743541Y-12411653D01*
X180743541Y-12411653D02*
X180314969Y-12411653D01*
X180314969Y-12411653D02*
X180172112Y-12340225D01*
X180172112Y-12340225D02*
X180100684Y-12268796D01*
X180100684Y-12268796D02*
X180029255Y-12125939D01*
X180029255Y-12125939D02*
X180029255Y-11911653D01*
X180029255Y-13697368D02*
X180814969Y-13697368D01*
X180814969Y-13697368D02*
X180957826Y-13625939D01*
X180957826Y-13625939D02*
X181029255Y-13483082D01*
X181029255Y-13483082D02*
X181029255Y-13197368D01*
X181029255Y-13197368D02*
X180957826Y-13054510D01*
X180100684Y-13697368D02*
X180029255Y-13554510D01*
X180029255Y-13554510D02*
X180029255Y-13197368D01*
X180029255Y-13197368D02*
X180100684Y-13054510D01*
X180100684Y-13054510D02*
X180243541Y-12983082D01*
X180243541Y-12983082D02*
X180386398Y-12983082D01*
X180386398Y-12983082D02*
X180529255Y-13054510D01*
X180529255Y-13054510D02*
X180600684Y-13197368D01*
X180600684Y-13197368D02*
X180600684Y-13554510D01*
X180600684Y-13554510D02*
X180672112Y-13697368D01*
X180029255Y-14411653D02*
X181029255Y-14411653D01*
X180743541Y-14411653D02*
X180886398Y-14483082D01*
X180886398Y-14483082D02*
X180957826Y-14554511D01*
X180957826Y-14554511D02*
X181029255Y-14697368D01*
X181029255Y-14697368D02*
X181029255Y-14840225D01*
X180029255Y-15983082D02*
X181529255Y-15983082D01*
X180100684Y-15983082D02*
X180029255Y-15840224D01*
X180029255Y-15840224D02*
X180029255Y-15554510D01*
X180029255Y-15554510D02*
X180100684Y-15411653D01*
X180100684Y-15411653D02*
X180172112Y-15340224D01*
X180172112Y-15340224D02*
X180314969Y-15268796D01*
X180314969Y-15268796D02*
X180743541Y-15268796D01*
X180743541Y-15268796D02*
X180886398Y-15340224D01*
X180886398Y-15340224D02*
X180957826Y-15411653D01*
X180957826Y-15411653D02*
X181029255Y-15554510D01*
X181029255Y-15554510D02*
X181029255Y-15840224D01*
X181029255Y-15840224D02*
X180957826Y-15983082D01*
X181029255Y-17697367D02*
X180029255Y-18054510D01*
X180029255Y-18054510D02*
X181029255Y-18411653D01*
X180029255Y-19768796D02*
X180029255Y-18911653D01*
X180029255Y-19340224D02*
X181529255Y-19340224D01*
X181529255Y-19340224D02*
X181314969Y-19197367D01*
X181314969Y-19197367D02*
X181172112Y-19054510D01*
X181172112Y-19054510D02*
X181100684Y-18911653D01*
X180172112Y-20411652D02*
X180100684Y-20483081D01*
X180100684Y-20483081D02*
X180029255Y-20411652D01*
X180029255Y-20411652D02*
X180100684Y-20340224D01*
X180100684Y-20340224D02*
X180172112Y-20411652D01*
X180172112Y-20411652D02*
X180029255Y-20411652D01*
X180029255Y-21911653D02*
X180029255Y-21054510D01*
X180029255Y-21483081D02*
X181529255Y-21483081D01*
X181529255Y-21483081D02*
X181314969Y-21340224D01*
X181314969Y-21340224D02*
X181172112Y-21197367D01*
X181172112Y-21197367D02*
X181100684Y-21054510D01*
D12*
X191666666Y-62684819D02*
X191666666Y-63399104D01*
X191666666Y-63399104D02*
X191619047Y-63541961D01*
X191619047Y-63541961D02*
X191523809Y-63637200D01*
X191523809Y-63637200D02*
X191380952Y-63684819D01*
X191380952Y-63684819D02*
X191285714Y-63684819D01*
X192047619Y-62684819D02*
X192714285Y-62684819D01*
X192714285Y-62684819D02*
X192285714Y-63684819D01*
D13*
%TO.C,J7*%
X190670000Y-67270000D02*
X190670000Y-74950000D01*
X190670000Y-67270000D02*
X193330000Y-67270000D01*
X190670000Y-74950000D02*
X193330000Y-74950000D01*
X192000000Y-64670000D02*
X193330000Y-64670000D01*
X193330000Y-64670000D02*
X193330000Y-66000000D01*
X193330000Y-67270000D02*
X193330000Y-74950000D01*
%TO.C,R12*%
X175754724Y-73477500D02*
X175245276Y-73477500D01*
X175754724Y-74522500D02*
X175245276Y-74522500D01*
%TO.C,R11*%
X171754724Y-73477500D02*
X171245276Y-73477500D01*
X171754724Y-74522500D02*
X171245276Y-74522500D01*
%TO.C,R6*%
X175754724Y-29477500D02*
X175245276Y-29477500D01*
X175754724Y-30522500D02*
X175245276Y-30522500D01*
%TO.C,J4*%
X157460000Y-23350000D02*
X158900000Y-23350000D01*
X158900000Y-22780000D02*
X158900000Y-23350000D01*
X158900000Y-22780000D02*
X164100000Y-22780000D01*
X158900000Y-24870000D02*
X158900000Y-25890000D01*
X158900000Y-27410000D02*
X158900000Y-28430000D01*
X158900000Y-29950000D02*
X158900000Y-30970000D01*
X158900000Y-32490000D02*
X158900000Y-33510000D01*
X158900000Y-35030000D02*
X158900000Y-36050000D01*
X158900000Y-37570000D02*
X158900000Y-38590000D01*
X158900000Y-40110000D02*
X158900000Y-41130000D01*
X158900000Y-42650000D02*
X158900000Y-43220000D01*
X158900000Y-43220000D02*
X164100000Y-43220000D01*
X164100000Y-22780000D02*
X164100000Y-23350000D01*
X164100000Y-24870000D02*
X164100000Y-25890000D01*
X164100000Y-27410000D02*
X164100000Y-28430000D01*
X164100000Y-29950000D02*
X164100000Y-30970000D01*
X164100000Y-32490000D02*
X164100000Y-33510000D01*
X164100000Y-35030000D02*
X164100000Y-36050000D01*
X164100000Y-37570000D02*
X164100000Y-38590000D01*
X164100000Y-40110000D02*
X164100000Y-41130000D01*
X164100000Y-42650000D02*
X164100000Y-43220000D01*
%TO.C,U9*%
X170800000Y-45535000D02*
X170560000Y-45205000D01*
X171040000Y-45205000D01*
X170800000Y-45535000D01*
G36*
X170800000Y-45535000D02*
G01*
X170560000Y-45205000D01*
X171040000Y-45205000D01*
X170800000Y-45535000D01*
G37*
X173500000Y-50560000D02*
X175450000Y-50560000D01*
X173500000Y-50560000D02*
X171550000Y-50560000D01*
X173500000Y-45440000D02*
X175450000Y-45440000D01*
X173500000Y-45440000D02*
X171550000Y-45440000D01*
%TO.C,J5*%
X157460000Y-45350000D02*
X158900000Y-45350000D01*
X158900000Y-44780000D02*
X158900000Y-45350000D01*
X158900000Y-44780000D02*
X164100000Y-44780000D01*
X158900000Y-46870000D02*
X158900000Y-47890000D01*
X158900000Y-49410000D02*
X158900000Y-50430000D01*
X158900000Y-51950000D02*
X158900000Y-52970000D01*
X158900000Y-54490000D02*
X158900000Y-55510000D01*
X158900000Y-57030000D02*
X158900000Y-58050000D01*
X158900000Y-59570000D02*
X158900000Y-60590000D01*
X158900000Y-62110000D02*
X158900000Y-63130000D01*
X158900000Y-64650000D02*
X158900000Y-65220000D01*
X158900000Y-65220000D02*
X164100000Y-65220000D01*
X164100000Y-44780000D02*
X164100000Y-45350000D01*
X164100000Y-46870000D02*
X164100000Y-47890000D01*
X164100000Y-49410000D02*
X164100000Y-50430000D01*
X164100000Y-51950000D02*
X164100000Y-52970000D01*
X164100000Y-54490000D02*
X164100000Y-55510000D01*
X164100000Y-57030000D02*
X164100000Y-58050000D01*
X164100000Y-59570000D02*
X164100000Y-60590000D01*
X164100000Y-62110000D02*
X164100000Y-63130000D01*
X164100000Y-64650000D02*
X164100000Y-65220000D01*
%TO.C,U7*%
X173500000Y-1440000D02*
X171550000Y-1440000D01*
X173500000Y-1440000D02*
X175450000Y-1440000D01*
X173500000Y-6560000D02*
X171550000Y-6560000D01*
X173500000Y-6560000D02*
X175450000Y-6560000D01*
X170800000Y-1535000D02*
X170560000Y-1205000D01*
X171040000Y-1205000D01*
X170800000Y-1535000D01*
G36*
X170800000Y-1535000D02*
G01*
X170560000Y-1205000D01*
X171040000Y-1205000D01*
X170800000Y-1535000D01*
G37*
%TO.C,R10*%
X167977500Y-68745276D02*
X167977500Y-69254724D01*
X169022500Y-68745276D02*
X169022500Y-69254724D01*
%TO.C,U5*%
X173500000Y-54940000D02*
X171550000Y-54940000D01*
X173500000Y-54940000D02*
X175450000Y-54940000D01*
X173500000Y-65060000D02*
X171550000Y-65060000D01*
X173500000Y-65060000D02*
X175450000Y-65060000D01*
X170800000Y-54995000D02*
X170560000Y-54665000D01*
X171040000Y-54665000D01*
X170800000Y-54995000D01*
G36*
X170800000Y-54995000D02*
G01*
X170560000Y-54665000D01*
X171040000Y-54665000D01*
X170800000Y-54995000D01*
G37*
%TO.C,J3*%
X157460000Y-1350000D02*
X158900000Y-1350000D01*
X158900000Y-780000D02*
X158900000Y-1350000D01*
X158900000Y-780000D02*
X164100000Y-780000D01*
X158900000Y-2870000D02*
X158900000Y-3890000D01*
X158900000Y-5410000D02*
X158900000Y-6430000D01*
X158900000Y-7950000D02*
X158900000Y-8970000D01*
X158900000Y-10490000D02*
X158900000Y-11510000D01*
X158900000Y-13030000D02*
X158900000Y-14050000D01*
X158900000Y-15570000D02*
X158900000Y-16590000D01*
X158900000Y-18110000D02*
X158900000Y-19130000D01*
X158900000Y-20650000D02*
X158900000Y-21220000D01*
X158900000Y-21220000D02*
X164100000Y-21220000D01*
X164100000Y-780000D02*
X164100000Y-1350000D01*
X164100000Y-2870000D02*
X164100000Y-3890000D01*
X164100000Y-5410000D02*
X164100000Y-6430000D01*
X164100000Y-7950000D02*
X164100000Y-8970000D01*
X164100000Y-10490000D02*
X164100000Y-11510000D01*
X164100000Y-13030000D02*
X164100000Y-14050000D01*
X164100000Y-15570000D02*
X164100000Y-16590000D01*
X164100000Y-18110000D02*
X164100000Y-19130000D01*
X164100000Y-20650000D02*
X164100000Y-21220000D01*
%TO.C,U8*%
X173500000Y-23440000D02*
X171550000Y-23440000D01*
X173500000Y-23440000D02*
X175450000Y-23440000D01*
X173500000Y-28560000D02*
X171550000Y-28560000D01*
X173500000Y-28560000D02*
X175450000Y-28560000D01*
X170800000Y-23535000D02*
X170560000Y-23205000D01*
X171040000Y-23205000D01*
X170800000Y-23535000D01*
G36*
X170800000Y-23535000D02*
G01*
X170560000Y-23205000D01*
X171040000Y-23205000D01*
X170800000Y-23535000D01*
G37*
%TO.C,R4*%
X167977500Y-24745276D02*
X167977500Y-25254724D01*
X169022500Y-24745276D02*
X169022500Y-25254724D01*
%TO.C,R2*%
X171754724Y-7477500D02*
X171245276Y-7477500D01*
X171754724Y-8522500D02*
X171245276Y-8522500D01*
%TO.C,U6*%
X173500000Y-76940000D02*
X171550000Y-76940000D01*
X173500000Y-76940000D02*
X175450000Y-76940000D01*
X173500000Y-87060000D02*
X171550000Y-87060000D01*
X173500000Y-87060000D02*
X175450000Y-87060000D01*
X170800000Y-76995000D02*
X170560000Y-76665000D01*
X171040000Y-76665000D01*
X170800000Y-76995000D01*
G36*
X170800000Y-76995000D02*
G01*
X170560000Y-76665000D01*
X171040000Y-76665000D01*
X170800000Y-76995000D01*
G37*
%TO.C,J1*%
X187170000Y-2350000D02*
X188500000Y-2350000D01*
X187170000Y-3680000D02*
X187170000Y-2350000D01*
X187170000Y-4950000D02*
X187170000Y-53270000D01*
X187170000Y-4950000D02*
X189770000Y-4950000D01*
X187170000Y-53270000D02*
X192370000Y-53270000D01*
X189770000Y-2350000D02*
X192370000Y-2350000D01*
X189770000Y-4950000D02*
X189770000Y-2350000D01*
X192370000Y-2350000D02*
X192370000Y-53270000D01*
%TO.C,U4*%
X173500000Y-32940000D02*
X171550000Y-32940000D01*
X173500000Y-32940000D02*
X175450000Y-32940000D01*
X173500000Y-43060000D02*
X171550000Y-43060000D01*
X173500000Y-43060000D02*
X175450000Y-43060000D01*
X170800000Y-32995000D02*
X170560000Y-32665000D01*
X171040000Y-32665000D01*
X170800000Y-32995000D01*
G36*
X170800000Y-32995000D02*
G01*
X170560000Y-32665000D01*
X171040000Y-32665000D01*
X170800000Y-32995000D01*
G37*
%TO.C,U2*%
X180440000Y-80000000D02*
X180440000Y-78050000D01*
X180440000Y-80000000D02*
X180440000Y-81950000D01*
X190560000Y-80000000D02*
X190560000Y-78050000D01*
X190560000Y-80000000D02*
X190560000Y-81950000D01*
X180495000Y-82700000D02*
X180165000Y-82940000D01*
X180165000Y-82460000D01*
X180495000Y-82700000D01*
G36*
X180495000Y-82700000D02*
G01*
X180165000Y-82940000D01*
X180165000Y-82460000D01*
X180495000Y-82700000D01*
G37*
%TO.C,R5*%
X171754724Y-29477500D02*
X171245276Y-29477500D01*
X171754724Y-30522500D02*
X171245276Y-30522500D01*
%TO.C,R1*%
X167977500Y-2745276D02*
X167977500Y-3254724D01*
X169022500Y-2745276D02*
X169022500Y-3254724D01*
%TO.C,R9*%
X175754724Y-51477500D02*
X175245276Y-51477500D01*
X175754724Y-52522500D02*
X175245276Y-52522500D01*
%TO.C,J6*%
X157460000Y-67350000D02*
X158900000Y-67350000D01*
X158900000Y-66780000D02*
X158900000Y-67350000D01*
X158900000Y-66780000D02*
X164100000Y-66780000D01*
X158900000Y-68870000D02*
X158900000Y-69890000D01*
X158900000Y-71410000D02*
X158900000Y-72430000D01*
X158900000Y-73950000D02*
X158900000Y-74970000D01*
X158900000Y-76490000D02*
X158900000Y-77510000D01*
X158900000Y-79030000D02*
X158900000Y-80050000D01*
X158900000Y-81570000D02*
X158900000Y-82590000D01*
X158900000Y-84110000D02*
X158900000Y-85130000D01*
X158900000Y-86650000D02*
X158900000Y-87220000D01*
X158900000Y-87220000D02*
X164100000Y-87220000D01*
X164100000Y-66780000D02*
X164100000Y-67350000D01*
X164100000Y-68870000D02*
X164100000Y-69890000D01*
X164100000Y-71410000D02*
X164100000Y-72430000D01*
X164100000Y-73950000D02*
X164100000Y-74970000D01*
X164100000Y-76490000D02*
X164100000Y-77510000D01*
X164100000Y-79030000D02*
X164100000Y-80050000D01*
X164100000Y-81570000D02*
X164100000Y-82590000D01*
X164100000Y-84110000D02*
X164100000Y-85130000D01*
X164100000Y-86650000D02*
X164100000Y-87220000D01*
%TO.C,U10*%
X170800000Y-67535000D02*
X170560000Y-67205000D01*
X171040000Y-67205000D01*
X170800000Y-67535000D01*
G36*
X170800000Y-67535000D02*
G01*
X170560000Y-67205000D01*
X171040000Y-67205000D01*
X170800000Y-67535000D01*
G37*
X173500000Y-72560000D02*
X175450000Y-72560000D01*
X173500000Y-72560000D02*
X171550000Y-72560000D01*
X173500000Y-67440000D02*
X175450000Y-67440000D01*
X173500000Y-67440000D02*
X171550000Y-67440000D01*
%TO.C,R7*%
X167977500Y-46745276D02*
X167977500Y-47254724D01*
X169022500Y-46745276D02*
X169022500Y-47254724D01*
%TO.C,R3*%
X175754724Y-7477500D02*
X175245276Y-7477500D01*
X175754724Y-8522500D02*
X175245276Y-8522500D01*
%TO.C,U3*%
X173500000Y-10940000D02*
X171550000Y-10940000D01*
X173500000Y-10940000D02*
X175450000Y-10940000D01*
X173500000Y-21060000D02*
X171550000Y-21060000D01*
X173500000Y-21060000D02*
X175450000Y-21060000D01*
X170800000Y-10995000D02*
X170560000Y-10665000D01*
X171040000Y-10665000D01*
X170800000Y-10995000D01*
G36*
X170800000Y-10995000D02*
G01*
X170560000Y-10665000D01*
X171040000Y-10665000D01*
X170800000Y-10995000D01*
G37*
%TO.C,R8*%
X171754724Y-51477500D02*
X171245276Y-51477500D01*
X171754724Y-52522500D02*
X171245276Y-52522500D01*
%TD*%
M02*
