M48
; DRILL file {KiCad 8.0.4-8.0.4-0~ubuntu22.04.1} date 2024-08-21T02:36:29+0900
; FORMAT={-:-/ absolute / inch / decimal}
; #@! TF.CreationDate,2024-08-21T02:36:29+09:00
; #@! TF.GenerationSoftware,Kicad,Pcbnew,8.0.4-8.0.4-0~ubuntu22.04.1
; #@! TF.FileFunction,Plated,1,2,PTH
FMAT,2
INCH
; #@! TA.AperFunction,Plated,PTH,ViaDrill
T1C0.0118
; #@! TA.AperFunction,Plated,PTH,ComponentDrill
T2C0.0118
; #@! TA.AperFunction,Plated,PTH,ComponentDrill
T3C0.0394
%
G90
G05
T1
X2.0669Y-2.8937
X2.0669Y-3.0118
X2.126Y-2.8937
X2.126Y-3.0118
X3.5827Y-2.9528
X3.7795Y-2.8937
X3.7795Y-3.0118
X3.8386Y-2.8937
X3.8386Y-3.0118
X6.1811Y-0.6102
X6.2077Y-1.4764
X6.2077Y-2.3425
X6.2077Y-3.2087
X6.2205Y-0.4134
X6.2205Y-1.2795
X6.2205Y-2.1457
X6.2205Y-3.0118
X6.2795Y-0.1181
X6.2795Y-0.9843
X6.2795Y-1.8504
X6.2795Y-2.7165
X6.2992Y-0.2165
X6.2992Y-0.315
X6.2992Y-1.0827
X6.2992Y-1.1811
X6.2992Y-1.9488
X6.2992Y-2.0472
X6.2992Y-2.815
X6.2992Y-2.9134
X6.312Y-0.5118
X6.312Y-1.378
X6.312Y-2.2441
X6.312Y-3.1102
X6.374Y-0.4921
X6.374Y-1.3583
X6.374Y-2.2244
X6.374Y-3.0906
X6.3848Y-0.3346
X6.3848Y-1.2008
X6.3848Y-2.0669
X6.3848Y-2.9331
X6.4567Y-0.3346
X6.4567Y-1.2008
X6.4567Y-2.0669
X6.4567Y-2.9331
X6.5551Y-0.6299
X6.5551Y-1.4961
X6.5551Y-2.3622
X6.5551Y-3.2283
X6.6535Y-0.2362
X6.6535Y-0.5512
X6.6535Y-1.1024
X6.6535Y-1.4173
X6.6535Y-1.9685
X6.6535Y-2.2835
X6.6535Y-2.8346
X6.6535Y-3.1496
X6.6732Y-0.6693
X6.6732Y-0.7677
X6.6732Y-1.5354
X6.6732Y-1.6339
X6.6732Y-2.4016
X6.6732Y-2.5
X6.6732Y-3.2677
X6.6732Y-3.3661
X6.811Y-0.0984
X6.811Y-0.9646
X6.811Y-1.8307
X6.811Y-2.6969
X6.8307Y-3.3465
X6.8504Y-0.0984
X6.8701Y-0.9252
X6.8701Y-1.7913
X6.8701Y-2.6575
X6.8701Y-3.0512
X6.8898Y-0.4528
X6.8898Y-1.3189
X6.8898Y-2.185
X6.9685Y-1.7126
X6.9685Y-1.752
X6.9685Y-2.5787
X6.9685Y-2.6181
X6.9882Y-0.7677
X6.9882Y-0.8268
X6.9882Y-1.2008
X6.9882Y-1.6339
X6.9882Y-2.0669
X6.9882Y-2.5
X6.9885Y-2.697
X7.0433Y-1.0827
X7.0472Y-0.7677
X7.0472Y-1.689
X7.0472Y-2.5551
X7.0669Y-3.3465
X7.0827Y-1.8898
X7.0866Y-0.7677
X7.0906Y-1.7126
X7.0906Y-2.5787
X7.126Y-3.1693
X7.1299Y-1.7717
X7.1299Y-2.6181
X7.1457Y-2.9921
X7.185Y-2.5394
X7.185Y-3.1102
X7.2047Y-1.2598
X7.2441Y-3.1102
X7.2835Y-3.1102
X7.3031Y-2.5
X7.3281Y-3.4002
X7.3425Y-3.1102
X7.3819Y-2.2835
X7.3947Y-2.2372
X7.4213Y-3.1496
X7.5197Y-2.3228
T2
X0.1526Y-0.3691
X0.1526Y-1.1073
X0.1526Y-1.8455
X0.1526Y-2.5837
X0.1526Y-3.3219
X0.1526Y-4.06
X0.1526Y-4.7982
X0.1526Y-5.5364
X1.3238Y-0.3691
X1.3238Y-1.1073
X1.3238Y-1.8455
X1.3238Y-2.5837
X1.3238Y-3.3219
X1.3238Y-4.06
X1.3238Y-4.7982
X1.3238Y-5.5364
X1.6289Y-0.3691
X1.6289Y-1.1073
X1.6289Y-1.8455
X1.6289Y-2.5837
X1.6289Y-3.3219
X1.6289Y-4.06
X1.6289Y-4.7982
X1.6289Y-5.5364
X2.8002Y-0.3691
X2.8002Y-1.1073
X2.8002Y-1.8455
X2.8002Y-2.5837
X2.8002Y-3.3219
X2.8002Y-4.06
X2.8002Y-4.7982
X2.8002Y-5.5364
X3.1053Y-0.3691
X3.1053Y-1.1073
X3.1053Y-1.8455
X3.1053Y-2.5837
X3.1053Y-3.3219
X3.1053Y-4.06
X3.1053Y-4.7982
X3.1053Y-5.5364
X4.2766Y-0.3691
X4.2766Y-1.1073
X4.2766Y-1.8455
X4.2766Y-2.5837
X4.2766Y-3.3219
X4.2766Y-4.06
X4.2766Y-4.7982
X4.2766Y-5.5364
X4.5817Y-0.3691
X4.5817Y-1.1073
X4.5817Y-1.8455
X4.5817Y-2.5837
X4.5817Y-3.3219
X4.5817Y-4.06
X4.5817Y-4.7982
X4.5817Y-5.5364
X5.753Y-0.3691
X5.753Y-1.1073
X5.753Y-1.8455
X5.753Y-2.5837
X5.753Y-3.3219
X5.753Y-4.06
X5.753Y-4.7982
X5.753Y-5.5364
T3
X7.4213Y-0.1449
X7.4213Y-0.2449
X7.4213Y-0.3449
X7.4213Y-0.4449
X7.4213Y-0.5449
X7.4213Y-0.6449
X7.4213Y-0.7449
X7.4213Y-0.8449
X7.4213Y-0.9449
X7.4213Y-1.0449
X7.4213Y-1.1449
X7.4213Y-1.2449
X7.4213Y-1.3449
X7.4213Y-1.4449
X7.4213Y-1.5449
X7.4213Y-1.6449
X7.4213Y-1.7449
X7.4213Y-1.8449
X7.4213Y-1.9449
X7.4213Y-2.0449
X7.5213Y-0.1449
X7.5213Y-0.2449
X7.5213Y-0.3449
X7.5213Y-0.4449
X7.5213Y-0.5449
X7.5213Y-0.6449
X7.5213Y-0.7449
X7.5213Y-0.8449
X7.5213Y-0.9449
X7.5213Y-1.0449
X7.5213Y-1.1449
X7.5213Y-1.2449
X7.5213Y-1.3449
X7.5213Y-1.4449
X7.5213Y-1.5449
X7.5213Y-1.6449
X7.5213Y-1.7449
X7.5213Y-1.8449
X7.5213Y-1.9449
X7.5213Y-2.0449
X7.5591Y-2.5984
X7.5591Y-2.6984
X7.5591Y-2.7984
X7.5591Y-2.8984
M30
