%TF.GenerationSoftware,KiCad,Pcbnew,8.0.4-8.0.4-0~ubuntu22.04.1*%
%TF.CreationDate,2024-08-21T02:36:33+09:00*%
%TF.ProjectId,FSR_PAD,4653525f-5041-4442-9e6b-696361645f70,rev?*%
%TF.SameCoordinates,Original*%
%TF.FileFunction,Paste,Top*%
%TF.FilePolarity,Positive*%
%FSLAX46Y46*%
G04 Gerber Fmt 4.6, Leading zero omitted, Abs format (unit mm)*
G04 Created by KiCad (PCBNEW 8.0.4-8.0.4-0~ubuntu22.04.1) date 2024-08-21 02:36:33*
%MOMM*%
%LPD*%
G01*
G04 APERTURE LIST*
G04 Aperture macros list*
%AMRoundRect*
0 Rectangle with rounded corners*
0 $1 Rounding radius*
0 $2 $3 $4 $5 $6 $7 $8 $9 X,Y pos of 4 corners*
0 Add a 4 corners polygon primitive as box body*
4,1,4,$2,$3,$4,$5,$6,$7,$8,$9,$2,$3,0*
0 Add four circle primitives for the rounded corners*
1,1,$1+$1,$2,$3*
1,1,$1+$1,$4,$5*
1,1,$1+$1,$6,$7*
1,1,$1+$1,$8,$9*
0 Add four rect primitives between the rounded corners*
20,1,$1+$1,$2,$3,$4,$5,0*
20,1,$1+$1,$4,$5,$6,$7,0*
20,1,$1+$1,$6,$7,$8,$9,0*
20,1,$1+$1,$8,$9,$2,$3,0*%
G04 Aperture macros list end*
%ADD10RoundRect,0.237500X0.250000X0.237500X-0.250000X0.237500X-0.250000X-0.237500X0.250000X-0.237500X0*%
%ADD11R,3.150000X1.000000*%
%ADD12RoundRect,0.150000X-0.825000X-0.150000X0.825000X-0.150000X0.825000X0.150000X-0.825000X0.150000X0*%
%ADD13RoundRect,0.237500X-0.237500X0.250000X-0.237500X-0.250000X0.237500X-0.250000X0.237500X0.250000X0*%
%ADD14RoundRect,0.150000X0.150000X-0.825000X0.150000X0.825000X-0.150000X0.825000X-0.150000X-0.825000X0*%
G04 APERTURE END LIST*
D10*
%TO.C,R12*%
X176412500Y-74000000D03*
X174587500Y-74000000D03*
%TD*%
%TO.C,R11*%
X172412500Y-74000000D03*
X170587500Y-74000000D03*
%TD*%
%TO.C,R6*%
X176412500Y-30000000D03*
X174587500Y-30000000D03*
%TD*%
D11*
%TO.C,J4*%
X158975000Y-24110000D03*
X164025000Y-24110000D03*
X158975000Y-26650000D03*
X164025000Y-26650000D03*
X158975000Y-29190000D03*
X164025000Y-29190000D03*
X158975000Y-31730000D03*
X164025000Y-31730000D03*
X158975000Y-34270000D03*
X164025000Y-34270000D03*
X158975000Y-36810000D03*
X164025000Y-36810000D03*
X158975000Y-39350000D03*
X164025000Y-39350000D03*
X158975000Y-41890000D03*
X164025000Y-41890000D03*
%TD*%
D12*
%TO.C,U9*%
X175975000Y-46095000D03*
X175975000Y-47365000D03*
X175975000Y-48635000D03*
X175975000Y-49905000D03*
X171025000Y-49905000D03*
X171025000Y-48635000D03*
X171025000Y-47365000D03*
X171025000Y-46095000D03*
%TD*%
D11*
%TO.C,J5*%
X158975000Y-46110000D03*
X164025000Y-46110000D03*
X158975000Y-48650000D03*
X164025000Y-48650000D03*
X158975000Y-51190000D03*
X164025000Y-51190000D03*
X158975000Y-53730000D03*
X164025000Y-53730000D03*
X158975000Y-56270000D03*
X164025000Y-56270000D03*
X158975000Y-58810000D03*
X164025000Y-58810000D03*
X158975000Y-61350000D03*
X164025000Y-61350000D03*
X158975000Y-63890000D03*
X164025000Y-63890000D03*
%TD*%
D12*
%TO.C,U7*%
X171025000Y-2095000D03*
X171025000Y-3365000D03*
X171025000Y-4635000D03*
X171025000Y-5905000D03*
X175975000Y-5905000D03*
X175975000Y-4635000D03*
X175975000Y-3365000D03*
X175975000Y-2095000D03*
%TD*%
D13*
%TO.C,R10*%
X168500000Y-68087500D03*
X168500000Y-69912500D03*
%TD*%
D12*
%TO.C,U5*%
X171025000Y-55555000D03*
X171025000Y-56825000D03*
X171025000Y-58095000D03*
X171025000Y-59365000D03*
X171025000Y-60635000D03*
X171025000Y-61905000D03*
X171025000Y-63175000D03*
X171025000Y-64445000D03*
X175975000Y-64445000D03*
X175975000Y-63175000D03*
X175975000Y-61905000D03*
X175975000Y-60635000D03*
X175975000Y-59365000D03*
X175975000Y-58095000D03*
X175975000Y-56825000D03*
X175975000Y-55555000D03*
%TD*%
D11*
%TO.C,J3*%
X158975000Y-2110000D03*
X164025000Y-2110000D03*
X158975000Y-4650000D03*
X164025000Y-4650000D03*
X158975000Y-7190000D03*
X164025000Y-7190000D03*
X158975000Y-9730000D03*
X164025000Y-9730000D03*
X158975000Y-12270000D03*
X164025000Y-12270000D03*
X158975000Y-14810000D03*
X164025000Y-14810000D03*
X158975000Y-17350000D03*
X164025000Y-17350000D03*
X158975000Y-19890000D03*
X164025000Y-19890000D03*
%TD*%
D12*
%TO.C,U8*%
X171025000Y-24095000D03*
X171025000Y-25365000D03*
X171025000Y-26635000D03*
X171025000Y-27905000D03*
X175975000Y-27905000D03*
X175975000Y-26635000D03*
X175975000Y-25365000D03*
X175975000Y-24095000D03*
%TD*%
D13*
%TO.C,R4*%
X168500000Y-24087500D03*
X168500000Y-25912500D03*
%TD*%
D10*
%TO.C,R2*%
X172412500Y-8000000D03*
X170587500Y-8000000D03*
%TD*%
D12*
%TO.C,U6*%
X171025000Y-77555000D03*
X171025000Y-78825000D03*
X171025000Y-80095000D03*
X171025000Y-81365000D03*
X171025000Y-82635000D03*
X171025000Y-83905000D03*
X171025000Y-85175000D03*
X171025000Y-86445000D03*
X175975000Y-86445000D03*
X175975000Y-85175000D03*
X175975000Y-83905000D03*
X175975000Y-82635000D03*
X175975000Y-81365000D03*
X175975000Y-80095000D03*
X175975000Y-78825000D03*
X175975000Y-77555000D03*
%TD*%
%TO.C,U4*%
X171025000Y-33555000D03*
X171025000Y-34825000D03*
X171025000Y-36095000D03*
X171025000Y-37365000D03*
X171025000Y-38635000D03*
X171025000Y-39905000D03*
X171025000Y-41175000D03*
X171025000Y-42445000D03*
X175975000Y-42445000D03*
X175975000Y-41175000D03*
X175975000Y-39905000D03*
X175975000Y-38635000D03*
X175975000Y-37365000D03*
X175975000Y-36095000D03*
X175975000Y-34825000D03*
X175975000Y-33555000D03*
%TD*%
D14*
%TO.C,U2*%
X181055000Y-82475000D03*
X182325000Y-82475000D03*
X183595000Y-82475000D03*
X184865000Y-82475000D03*
X186135000Y-82475000D03*
X187405000Y-82475000D03*
X188675000Y-82475000D03*
X189945000Y-82475000D03*
X189945000Y-77525000D03*
X188675000Y-77525000D03*
X187405000Y-77525000D03*
X186135000Y-77525000D03*
X184865000Y-77525000D03*
X183595000Y-77525000D03*
X182325000Y-77525000D03*
X181055000Y-77525000D03*
%TD*%
D10*
%TO.C,R5*%
X172412500Y-30000000D03*
X170587500Y-30000000D03*
%TD*%
D13*
%TO.C,R1*%
X168500000Y-2087500D03*
X168500000Y-3912500D03*
%TD*%
D10*
%TO.C,R9*%
X176412500Y-52000000D03*
X174587500Y-52000000D03*
%TD*%
D11*
%TO.C,J6*%
X158975000Y-68110000D03*
X164025000Y-68110000D03*
X158975000Y-70650000D03*
X164025000Y-70650000D03*
X158975000Y-73190000D03*
X164025000Y-73190000D03*
X158975000Y-75730000D03*
X164025000Y-75730000D03*
X158975000Y-78270000D03*
X164025000Y-78270000D03*
X158975000Y-80810000D03*
X164025000Y-80810000D03*
X158975000Y-83350000D03*
X164025000Y-83350000D03*
X158975000Y-85890000D03*
X164025000Y-85890000D03*
%TD*%
D12*
%TO.C,U10*%
X175975000Y-68095000D03*
X175975000Y-69365000D03*
X175975000Y-70635000D03*
X175975000Y-71905000D03*
X171025000Y-71905000D03*
X171025000Y-70635000D03*
X171025000Y-69365000D03*
X171025000Y-68095000D03*
%TD*%
D13*
%TO.C,R7*%
X168500000Y-46087500D03*
X168500000Y-47912500D03*
%TD*%
D10*
%TO.C,R3*%
X176412500Y-8000000D03*
X174587500Y-8000000D03*
%TD*%
D12*
%TO.C,U3*%
X171025000Y-11555000D03*
X171025000Y-12825000D03*
X171025000Y-14095000D03*
X171025000Y-15365000D03*
X171025000Y-16635000D03*
X171025000Y-17905000D03*
X171025000Y-19175000D03*
X171025000Y-20445000D03*
X175975000Y-20445000D03*
X175975000Y-19175000D03*
X175975000Y-17905000D03*
X175975000Y-16635000D03*
X175975000Y-15365000D03*
X175975000Y-14095000D03*
X175975000Y-12825000D03*
X175975000Y-11555000D03*
%TD*%
D10*
%TO.C,R8*%
X172412500Y-52000000D03*
X170587500Y-52000000D03*
%TD*%
M02*
