%TF.GenerationSoftware,KiCad,Pcbnew,8.0.4-8.0.4-0~ubuntu22.04.1*%
%TF.CreationDate,2024-08-21T02:36:33+09:00*%
%TF.ProjectId,FSR_PAD,4653525f-5041-4442-9e6b-696361645f70,rev?*%
%TF.SameCoordinates,Original*%
%TF.FileFunction,Soldermask,Top*%
%TF.FilePolarity,Negative*%
%FSLAX46Y46*%
G04 Gerber Fmt 4.6, Leading zero omitted, Abs format (unit mm)*
G04 Created by KiCad (PCBNEW 8.0.4-8.0.4-0~ubuntu22.04.1) date 2024-08-21 02:36:33*
%MOMM*%
%LPD*%
G01*
G04 APERTURE LIST*
G04 Aperture macros list*
%AMRoundRect*
0 Rectangle with rounded corners*
0 $1 Rounding radius*
0 $2 $3 $4 $5 $6 $7 $8 $9 X,Y pos of 4 corners*
0 Add a 4 corners polygon primitive as box body*
4,1,4,$2,$3,$4,$5,$6,$7,$8,$9,$2,$3,0*
0 Add four circle primitives for the rounded corners*
1,1,$1+$1,$2,$3*
1,1,$1+$1,$4,$5*
1,1,$1+$1,$6,$7*
1,1,$1+$1,$8,$9*
0 Add four rect primitives between the rounded corners*
20,1,$1+$1,$2,$3,$4,$5,0*
20,1,$1+$1,$4,$5,$6,$7,0*
20,1,$1+$1,$6,$7,$8,$9,0*
20,1,$1+$1,$8,$9,$2,$3,0*%
%AMFreePoly0*
4,1,171,-1.895470,11.900796,-1.665444,11.831760,-1.450900,11.723829,-1.258358,11.580283,-1.093667,11.405483,-0.961832,11.204740,-0.866858,10.984154,-0.811632,10.750427,-0.797831,10.510661,-0.825875,10.272141,-0.894911,10.042115,-1.002842,9.827571,-1.146388,9.635028,-1.321188,9.470338,-1.521931,9.338503,-1.631250,9.288753,-1.815367,9.206831,-2.168220,9.012118,-2.500402,8.783922,-2.808745,8.524418,
-3.090311,8.236080,-3.342414,7.921657,-3.562652,7.584146,-3.748924,7.226766,-3.899455,6.852923,-4.012810,6.466182,-4.087908,6.070229,-4.124033,5.668840,-4.120840,5.265842,-4.078360,4.865076,-3.996999,4.470363,-3.877531,4.085466,-3.721096,3.714055,-3.529185,3.359671,-3.303627,3.025692,-3.046574,2.715302,-2.760475,2.431461,-2.448059,2.176875,-2.112304,1.953971,-1.756411,1.764873,
-1.383772,1.611385,-0.997941,1.494970,-0.602596,1.416738,-0.201506,1.377434,0.000000,1.375000,0.201506,1.377434,0.602596,1.416738,0.997941,1.494970,1.383772,1.611385,1.756411,1.764873,2.112304,1.953970,2.448059,2.176875,2.760475,2.431461,3.046574,2.715302,3.303627,3.025692,3.529185,3.359671,3.721096,3.714055,3.877531,4.085466,3.996999,4.470363,4.078361,4.865076,
4.120840,5.265842,4.124033,5.668840,4.087908,6.070229,4.012810,6.466182,3.899455,6.852923,3.748924,7.226766,3.562652,7.584146,3.342414,7.921657,3.090311,8.236080,2.808745,8.524418,2.500402,8.783922,2.168220,9.012118,1.815367,9.206831,1.631250,9.288753,1.522004,9.338637,1.321283,9.470457,1.146502,9.635129,1.002972,9.827650,0.895053,10.042171,0.826025,10.272171,
0.797984,10.510665,0.811784,10.750404,0.867004,10.984105,0.961967,11.204666,1.093787,11.405387,1.258459,11.580168,1.450980,11.723698,1.665500,11.831617,1.895501,11.900645,2.133995,11.928686,2.373734,11.914886,2.607435,11.859666,2.718750,11.814588,2.957686,11.709061,3.420422,11.466662,3.863425,11.189841,4.284140,10.880194,4.680139,10.539509,5.049137,10.169749,5.389006,9.773050,
5.697786,9.351698,5.973694,8.908126,6.215139,8.444892,6.420729,7.964668,6.589276,7.470225,6.719809,6.964416,6.811574,6.450158,6.864043,5.930419,6.876912,5.408197,6.850107,4.886504,6.783783,4.368351,6.678323,3.856726,6.534334,3.354581,6.352648,2.864814,6.134313,2.390249,5.880588,1.933625,5.592937,1.497576,5.273020,1.084618,4.922682,0.697132,4.543945,0.337355,
4.138993,0.007361,3.710162,-0.290944,3.259928,-0.555841,2.790886,-0.785801,2.305743,-0.979498,1.807298,-1.135813,1.298427,-1.253846,0.782064,-1.332914,0.261190,-1.372563,0.000000,-1.375000,-0.261190,-1.372562,-0.782065,-1.332914,-1.298427,-1.253845,-1.807298,-1.135813,-2.305743,-0.979497,-2.790886,-0.785801,-3.259928,-0.555841,-3.710163,-0.290944,-4.138993,0.007361,-4.543946,0.337355,
-4.922683,0.697132,-5.273021,1.084618,-5.592938,1.497576,-5.880589,1.933625,-6.134314,2.390249,-6.352649,2.864814,-6.534335,3.354581,-6.678324,3.856726,-6.783784,4.368351,-6.850108,4.886504,-6.876913,5.408197,-6.864044,5.930419,-6.811575,6.450158,-6.719810,6.964416,-6.589277,7.470225,-6.420729,7.964668,-6.215140,8.444892,-5.973695,8.908126,-5.697787,9.351699,-5.389007,9.773050,
-5.049138,10.169750,-4.680139,10.539509,-4.284140,10.880194,-3.863425,11.189841,-3.420422,11.466662,-2.957686,11.709061,-2.718750,11.814588,-2.607483,11.859813,-2.373756,11.915039,-2.133990,11.928840,-1.895470,11.900796,-1.895470,11.900796,$1*%
G04 Aperture macros list end*
%ADD10R,1.700000X1.700000*%
%ADD11O,1.700000X1.700000*%
%ADD12C,2.750000*%
%ADD13C,0.600000*%
%ADD14FreePoly0,270.000000*%
%ADD15C,3.200000*%
%ADD16RoundRect,0.237500X0.250000X0.237500X-0.250000X0.237500X-0.250000X-0.237500X0.250000X-0.237500X0*%
%ADD17FreePoly0,90.000000*%
%ADD18R,3.150000X1.000000*%
%ADD19RoundRect,0.150000X-0.825000X-0.150000X0.825000X-0.150000X0.825000X0.150000X-0.825000X0.150000X0*%
%ADD20RoundRect,0.237500X-0.237500X0.250000X-0.237500X-0.250000X0.237500X-0.250000X0.237500X0.250000X0*%
%ADD21RoundRect,0.150000X0.150000X-0.825000X0.150000X0.825000X-0.150000X0.825000X-0.150000X-0.825000X0*%
G04 APERTURE END LIST*
D10*
%TO.C,J7*%
X192000000Y-66000000D03*
D11*
X192000000Y-68540000D03*
X192000000Y-71080000D03*
X192000000Y-73620000D03*
%TD*%
D12*
%TO.C,FSR_8*%
X9375000Y-140625000D03*
D13*
X3875000Y-140625000D03*
D14*
X3875000Y-140625000D03*
%TD*%
D15*
%TO.C,REF\u002A\u002A*%
X37500000Y-112500000D03*
%TD*%
D12*
%TO.C,FSR_2*%
X9375000Y-28125000D03*
D13*
X3875000Y-28125000D03*
D14*
X3875000Y-28125000D03*
%TD*%
D16*
%TO.C,R12*%
X176412500Y-74000000D03*
X174587500Y-74000000D03*
%TD*%
D12*
%TO.C,FSR_58*%
X140625000Y-28125000D03*
D13*
X146125000Y-28125000D03*
D17*
X146125000Y-28125000D03*
%TD*%
D12*
%TO.C,FSR_64*%
X140625000Y-140625000D03*
D13*
X146125000Y-140625000D03*
D17*
X146125000Y-140625000D03*
%TD*%
D12*
%TO.C,FSR_9*%
X28125000Y-9375000D03*
D13*
X33625000Y-9375000D03*
D17*
X33625000Y-9375000D03*
%TD*%
D16*
%TO.C,R11*%
X172412500Y-74000000D03*
X170587500Y-74000000D03*
%TD*%
D12*
%TO.C,FSR_6*%
X9375000Y-103125000D03*
D13*
X3875000Y-103125000D03*
D14*
X3875000Y-103125000D03*
%TD*%
D12*
%TO.C,FSR_22*%
X46875000Y-103125000D03*
D13*
X41375000Y-103125000D03*
D14*
X41375000Y-103125000D03*
%TD*%
D12*
%TO.C,FSR_43*%
X103125000Y-46875000D03*
D13*
X108625000Y-46875000D03*
D17*
X108625000Y-46875000D03*
%TD*%
D12*
%TO.C,FSR_10*%
X28125000Y-28125000D03*
D13*
X33625000Y-28125000D03*
D17*
X33625000Y-28125000D03*
%TD*%
D16*
%TO.C,R6*%
X176412500Y-30000000D03*
X174587500Y-30000000D03*
%TD*%
D12*
%TO.C,FSR_21*%
X46875000Y-84375000D03*
D13*
X41375000Y-84375000D03*
D14*
X41375000Y-84375000D03*
%TD*%
D12*
%TO.C,FSR_30*%
X65625000Y-103125000D03*
D13*
X71125000Y-103125000D03*
D17*
X71125000Y-103125000D03*
%TD*%
D12*
%TO.C,FSR_52*%
X121875000Y-65625000D03*
D13*
X116375000Y-65625000D03*
D14*
X116375000Y-65625000D03*
%TD*%
D12*
%TO.C,FSR_32*%
X65625000Y-140625000D03*
D13*
X71125000Y-140625000D03*
D17*
X71125000Y-140625000D03*
%TD*%
D12*
%TO.C,FSR_18*%
X46875000Y-28125000D03*
D13*
X41375000Y-28125000D03*
D14*
X41375000Y-28125000D03*
%TD*%
D18*
%TO.C,J4*%
X158975000Y-24110000D03*
X164025000Y-24110000D03*
X158975000Y-26650000D03*
X164025000Y-26650000D03*
X158975000Y-29190000D03*
X164025000Y-29190000D03*
X158975000Y-31730000D03*
X164025000Y-31730000D03*
X158975000Y-34270000D03*
X164025000Y-34270000D03*
X158975000Y-36810000D03*
X164025000Y-36810000D03*
X158975000Y-39350000D03*
X164025000Y-39350000D03*
X158975000Y-41890000D03*
X164025000Y-41890000D03*
%TD*%
D19*
%TO.C,U9*%
X175975000Y-46095000D03*
X175975000Y-47365000D03*
X175975000Y-48635000D03*
X175975000Y-49905000D03*
X171025000Y-49905000D03*
X171025000Y-48635000D03*
X171025000Y-47365000D03*
X171025000Y-46095000D03*
%TD*%
D12*
%TO.C,FSR_19*%
X46875000Y-46875000D03*
D13*
X41375000Y-46875000D03*
D14*
X41375000Y-46875000D03*
%TD*%
D12*
%TO.C,FSR_25*%
X65625000Y-9375000D03*
D13*
X71125000Y-9375000D03*
D17*
X71125000Y-9375000D03*
%TD*%
D18*
%TO.C,J5*%
X158975000Y-46110000D03*
X164025000Y-46110000D03*
X158975000Y-48650000D03*
X164025000Y-48650000D03*
X158975000Y-51190000D03*
X164025000Y-51190000D03*
X158975000Y-53730000D03*
X164025000Y-53730000D03*
X158975000Y-56270000D03*
X164025000Y-56270000D03*
X158975000Y-58810000D03*
X164025000Y-58810000D03*
X158975000Y-61350000D03*
X164025000Y-61350000D03*
X158975000Y-63890000D03*
X164025000Y-63890000D03*
%TD*%
D12*
%TO.C,FSR_61*%
X140625000Y-84375000D03*
D13*
X146125000Y-84375000D03*
D17*
X146125000Y-84375000D03*
%TD*%
D12*
%TO.C,FSR_49*%
X121875000Y-9375000D03*
D13*
X116375000Y-9375000D03*
D14*
X116375000Y-9375000D03*
%TD*%
D19*
%TO.C,U7*%
X171025000Y-2095000D03*
X171025000Y-3365000D03*
X171025000Y-4635000D03*
X171025000Y-5905000D03*
X175975000Y-5905000D03*
X175975000Y-4635000D03*
X175975000Y-3365000D03*
X175975000Y-2095000D03*
%TD*%
D20*
%TO.C,R10*%
X168500000Y-68087500D03*
X168500000Y-69912500D03*
%TD*%
D12*
%TO.C,FSR_38*%
X84375000Y-103125000D03*
D13*
X78875000Y-103125000D03*
D14*
X78875000Y-103125000D03*
%TD*%
D12*
%TO.C,FSR_5*%
X9375000Y-84375000D03*
D13*
X3875000Y-84375000D03*
D14*
X3875000Y-84375000D03*
%TD*%
D12*
%TO.C,FSR_11*%
X28125000Y-46875000D03*
D13*
X33625000Y-46875000D03*
D17*
X33625000Y-46875000D03*
%TD*%
D12*
%TO.C,FSR_57*%
X140625000Y-9375000D03*
D13*
X146125000Y-9375000D03*
D17*
X146125000Y-9375000D03*
%TD*%
D12*
%TO.C,FSR_44*%
X103125000Y-65625000D03*
D13*
X108625000Y-65625000D03*
D17*
X108625000Y-65625000D03*
%TD*%
D12*
%TO.C,FSR_42*%
X103125000Y-28125000D03*
D13*
X108625000Y-28125000D03*
D17*
X108625000Y-28125000D03*
%TD*%
D19*
%TO.C,U5*%
X171025000Y-55555000D03*
X171025000Y-56825000D03*
X171025000Y-58095000D03*
X171025000Y-59365000D03*
X171025000Y-60635000D03*
X171025000Y-61905000D03*
X171025000Y-63175000D03*
X171025000Y-64445000D03*
X175975000Y-64445000D03*
X175975000Y-63175000D03*
X175975000Y-61905000D03*
X175975000Y-60635000D03*
X175975000Y-59365000D03*
X175975000Y-58095000D03*
X175975000Y-56825000D03*
X175975000Y-55555000D03*
%TD*%
D12*
%TO.C,FSR_63*%
X140625000Y-121875000D03*
D13*
X146125000Y-121875000D03*
D17*
X146125000Y-121875000D03*
%TD*%
D12*
%TO.C,FSR_37*%
X84375000Y-84375000D03*
D13*
X78875000Y-84375000D03*
D14*
X78875000Y-84375000D03*
%TD*%
D12*
%TO.C,FSR_7*%
X9375000Y-121875000D03*
D13*
X3875000Y-121875000D03*
D14*
X3875000Y-121875000D03*
%TD*%
D18*
%TO.C,J3*%
X158975000Y-2110000D03*
X164025000Y-2110000D03*
X158975000Y-4650000D03*
X164025000Y-4650000D03*
X158975000Y-7190000D03*
X164025000Y-7190000D03*
X158975000Y-9730000D03*
X164025000Y-9730000D03*
X158975000Y-12270000D03*
X164025000Y-12270000D03*
X158975000Y-14810000D03*
X164025000Y-14810000D03*
X158975000Y-17350000D03*
X164025000Y-17350000D03*
X158975000Y-19890000D03*
X164025000Y-19890000D03*
%TD*%
D19*
%TO.C,U8*%
X171025000Y-24095000D03*
X171025000Y-25365000D03*
X171025000Y-26635000D03*
X171025000Y-27905000D03*
X175975000Y-27905000D03*
X175975000Y-26635000D03*
X175975000Y-25365000D03*
X175975000Y-24095000D03*
%TD*%
D12*
%TO.C,FSR_55*%
X121875000Y-121875000D03*
D13*
X116375000Y-121875000D03*
D14*
X116375000Y-121875000D03*
%TD*%
D20*
%TO.C,R4*%
X168500000Y-24087500D03*
X168500000Y-25912500D03*
%TD*%
D12*
%TO.C,FSR_16*%
X28125000Y-140625000D03*
D13*
X33625000Y-140625000D03*
D17*
X33625000Y-140625000D03*
%TD*%
D12*
%TO.C,FSR_60*%
X140625000Y-65625000D03*
D13*
X146125000Y-65625000D03*
D17*
X146125000Y-65625000D03*
%TD*%
D12*
%TO.C,FSR_34*%
X84375000Y-28125000D03*
D13*
X78875000Y-28125000D03*
D14*
X78875000Y-28125000D03*
%TD*%
D16*
%TO.C,R2*%
X172412500Y-8000000D03*
X170587500Y-8000000D03*
%TD*%
D12*
%TO.C,FSR_31*%
X65625000Y-121875000D03*
D13*
X71125000Y-121875000D03*
D17*
X71125000Y-121875000D03*
%TD*%
D12*
%TO.C,FSR_14*%
X28125000Y-103125000D03*
D13*
X33625000Y-103125000D03*
D17*
X33625000Y-103125000D03*
%TD*%
D12*
%TO.C,FSR_48*%
X103125000Y-140625000D03*
D13*
X108625000Y-140625000D03*
D17*
X108625000Y-140625000D03*
%TD*%
D12*
%TO.C,FSR_36*%
X84375000Y-65625000D03*
D13*
X78875000Y-65625000D03*
D14*
X78875000Y-65625000D03*
%TD*%
D12*
%TO.C,FSR_54*%
X121875000Y-103125000D03*
D13*
X116375000Y-103125000D03*
D14*
X116375000Y-103125000D03*
%TD*%
D19*
%TO.C,U6*%
X171025000Y-77555000D03*
X171025000Y-78825000D03*
X171025000Y-80095000D03*
X171025000Y-81365000D03*
X171025000Y-82635000D03*
X171025000Y-83905000D03*
X171025000Y-85175000D03*
X171025000Y-86445000D03*
X175975000Y-86445000D03*
X175975000Y-85175000D03*
X175975000Y-83905000D03*
X175975000Y-82635000D03*
X175975000Y-81365000D03*
X175975000Y-80095000D03*
X175975000Y-78825000D03*
X175975000Y-77555000D03*
%TD*%
D12*
%TO.C,FSR_39*%
X84375000Y-121875000D03*
D13*
X78875000Y-121875000D03*
D14*
X78875000Y-121875000D03*
%TD*%
D12*
%TO.C,FSR_53*%
X121875000Y-84375000D03*
D13*
X116375000Y-84375000D03*
D14*
X116375000Y-84375000D03*
%TD*%
D12*
%TO.C,FSR_1*%
X9375000Y-9375000D03*
D13*
X3875000Y-9375000D03*
D14*
X3875000Y-9375000D03*
%TD*%
D12*
%TO.C,FSR_62*%
X140625000Y-103125000D03*
D13*
X146125000Y-103125000D03*
D17*
X146125000Y-103125000D03*
%TD*%
D10*
%TO.C,J1*%
X188500000Y-3680000D03*
D11*
X191040000Y-3680000D03*
X188500000Y-6220000D03*
X191040000Y-6220000D03*
X188500000Y-8760000D03*
X191040000Y-8760000D03*
X188500000Y-11300000D03*
X191040000Y-11300000D03*
X188500000Y-13840000D03*
X191040000Y-13840000D03*
X188500000Y-16380000D03*
X191040000Y-16380000D03*
X188500000Y-18920000D03*
X191040000Y-18920000D03*
X188500000Y-21460000D03*
X191040000Y-21460000D03*
X188500000Y-24000000D03*
X191040000Y-24000000D03*
X188500000Y-26540000D03*
X191040000Y-26540000D03*
X188500000Y-29080000D03*
X191040000Y-29080000D03*
X188500000Y-31620000D03*
X191040000Y-31620000D03*
X188500000Y-34160000D03*
X191040000Y-34160000D03*
X188500000Y-36700000D03*
X191040000Y-36700000D03*
X188500000Y-39240000D03*
X191040000Y-39240000D03*
X188500000Y-41780000D03*
X191040000Y-41780000D03*
X188500000Y-44320000D03*
X191040000Y-44320000D03*
X188500000Y-46860000D03*
X191040000Y-46860000D03*
X188500000Y-49400000D03*
X191040000Y-49400000D03*
X188500000Y-51940000D03*
X191040000Y-51940000D03*
%TD*%
D12*
%TO.C,FSR_24*%
X46875000Y-140625000D03*
D13*
X41375000Y-140625000D03*
D14*
X41375000Y-140625000D03*
%TD*%
D12*
%TO.C,FSR_13*%
X28125000Y-84375000D03*
D13*
X33625000Y-84375000D03*
D17*
X33625000Y-84375000D03*
%TD*%
D12*
%TO.C,FSR_29*%
X65625000Y-84375000D03*
D13*
X71125000Y-84375000D03*
D17*
X71125000Y-84375000D03*
%TD*%
D12*
%TO.C,FSR_28*%
X65625000Y-65625000D03*
D13*
X71125000Y-65625000D03*
D17*
X71125000Y-65625000D03*
%TD*%
D12*
%TO.C,FSR_20*%
X46875000Y-65625000D03*
D13*
X41375000Y-65625000D03*
D14*
X41375000Y-65625000D03*
%TD*%
D12*
%TO.C,FSR_47*%
X103125000Y-121875000D03*
D13*
X108625000Y-121875000D03*
D17*
X108625000Y-121875000D03*
%TD*%
D12*
%TO.C,FSR_59*%
X140625000Y-46875000D03*
D13*
X146125000Y-46875000D03*
D17*
X146125000Y-46875000D03*
%TD*%
D19*
%TO.C,U4*%
X171025000Y-33555000D03*
X171025000Y-34825000D03*
X171025000Y-36095000D03*
X171025000Y-37365000D03*
X171025000Y-38635000D03*
X171025000Y-39905000D03*
X171025000Y-41175000D03*
X171025000Y-42445000D03*
X175975000Y-42445000D03*
X175975000Y-41175000D03*
X175975000Y-39905000D03*
X175975000Y-38635000D03*
X175975000Y-37365000D03*
X175975000Y-36095000D03*
X175975000Y-34825000D03*
X175975000Y-33555000D03*
%TD*%
D21*
%TO.C,U2*%
X181055000Y-82475000D03*
X182325000Y-82475000D03*
X183595000Y-82475000D03*
X184865000Y-82475000D03*
X186135000Y-82475000D03*
X187405000Y-82475000D03*
X188675000Y-82475000D03*
X189945000Y-82475000D03*
X189945000Y-77525000D03*
X188675000Y-77525000D03*
X187405000Y-77525000D03*
X186135000Y-77525000D03*
X184865000Y-77525000D03*
X183595000Y-77525000D03*
X182325000Y-77525000D03*
X181055000Y-77525000D03*
%TD*%
D12*
%TO.C,FSR_23*%
X46875000Y-121875000D03*
D13*
X41375000Y-121875000D03*
D14*
X41375000Y-121875000D03*
%TD*%
D12*
%TO.C,FSR_41*%
X103125000Y-9375000D03*
D13*
X108625000Y-9375000D03*
D17*
X108625000Y-9375000D03*
%TD*%
D12*
%TO.C,FSR_12*%
X28125000Y-65625000D03*
D13*
X33625000Y-65625000D03*
D17*
X33625000Y-65625000D03*
%TD*%
D15*
%TO.C,REF\u002A\u002A*%
X112500000Y-112500000D03*
%TD*%
D12*
%TO.C,FSR_40*%
X84375000Y-140625000D03*
D13*
X78875000Y-140625000D03*
D14*
X78875000Y-140625000D03*
%TD*%
D12*
%TO.C,FSR_51*%
X121875000Y-46875000D03*
D13*
X116375000Y-46875000D03*
D14*
X116375000Y-46875000D03*
%TD*%
D16*
%TO.C,R5*%
X172412500Y-30000000D03*
X170587500Y-30000000D03*
%TD*%
D20*
%TO.C,R1*%
X168500000Y-2087500D03*
X168500000Y-3912500D03*
%TD*%
D12*
%TO.C,FSR_45*%
X103125000Y-84375000D03*
D13*
X108625000Y-84375000D03*
D17*
X108625000Y-84375000D03*
%TD*%
D12*
%TO.C,FSR_50*%
X121875000Y-28125000D03*
D13*
X116375000Y-28125000D03*
D14*
X116375000Y-28125000D03*
%TD*%
D12*
%TO.C,FSR_3*%
X9375000Y-46875000D03*
D13*
X3875000Y-46875000D03*
D14*
X3875000Y-46875000D03*
%TD*%
D12*
%TO.C,FSR_26*%
X65625000Y-28125000D03*
D13*
X71125000Y-28125000D03*
D17*
X71125000Y-28125000D03*
%TD*%
D12*
%TO.C,FSR_17*%
X46875000Y-9375000D03*
D13*
X41375000Y-9375000D03*
D14*
X41375000Y-9375000D03*
%TD*%
D16*
%TO.C,R9*%
X176412500Y-52000000D03*
X174587500Y-52000000D03*
%TD*%
D18*
%TO.C,J6*%
X158975000Y-68110000D03*
X164025000Y-68110000D03*
X158975000Y-70650000D03*
X164025000Y-70650000D03*
X158975000Y-73190000D03*
X164025000Y-73190000D03*
X158975000Y-75730000D03*
X164025000Y-75730000D03*
X158975000Y-78270000D03*
X164025000Y-78270000D03*
X158975000Y-80810000D03*
X164025000Y-80810000D03*
X158975000Y-83350000D03*
X164025000Y-83350000D03*
X158975000Y-85890000D03*
X164025000Y-85890000D03*
%TD*%
D12*
%TO.C,FSR_35*%
X84375000Y-46875000D03*
D13*
X78875000Y-46875000D03*
D14*
X78875000Y-46875000D03*
%TD*%
D19*
%TO.C,U10*%
X175975000Y-68095000D03*
X175975000Y-69365000D03*
X175975000Y-70635000D03*
X175975000Y-71905000D03*
X171025000Y-71905000D03*
X171025000Y-70635000D03*
X171025000Y-69365000D03*
X171025000Y-68095000D03*
%TD*%
D12*
%TO.C,FSR_15*%
X28125000Y-121875000D03*
D13*
X33625000Y-121875000D03*
D17*
X33625000Y-121875000D03*
%TD*%
D12*
%TO.C,FSR_56*%
X121875000Y-140625000D03*
D13*
X116375000Y-140625000D03*
D14*
X116375000Y-140625000D03*
%TD*%
D12*
%TO.C,FSR_46*%
X103125000Y-103125000D03*
D13*
X108625000Y-103125000D03*
D17*
X108625000Y-103125000D03*
%TD*%
D12*
%TO.C,FSR_27*%
X65625000Y-46875000D03*
D13*
X71125000Y-46875000D03*
D17*
X71125000Y-46875000D03*
%TD*%
D20*
%TO.C,R7*%
X168500000Y-46087500D03*
X168500000Y-47912500D03*
%TD*%
D16*
%TO.C,R3*%
X176412500Y-8000000D03*
X174587500Y-8000000D03*
%TD*%
D12*
%TO.C,FSR_33*%
X84375000Y-9375000D03*
D13*
X78875000Y-9375000D03*
D14*
X78875000Y-9375000D03*
%TD*%
D19*
%TO.C,U3*%
X171025000Y-11555000D03*
X171025000Y-12825000D03*
X171025000Y-14095000D03*
X171025000Y-15365000D03*
X171025000Y-16635000D03*
X171025000Y-17905000D03*
X171025000Y-19175000D03*
X171025000Y-20445000D03*
X175975000Y-20445000D03*
X175975000Y-19175000D03*
X175975000Y-17905000D03*
X175975000Y-16635000D03*
X175975000Y-15365000D03*
X175975000Y-14095000D03*
X175975000Y-12825000D03*
X175975000Y-11555000D03*
%TD*%
D16*
%TO.C,R8*%
X172412500Y-52000000D03*
X170587500Y-52000000D03*
%TD*%
D12*
%TO.C,FSR_4*%
X9375000Y-65625000D03*
D13*
X3875000Y-65625000D03*
D14*
X3875000Y-65625000D03*
%TD*%
M02*
