%TF.GenerationSoftware,KiCad,Pcbnew,8.0.4-8.0.4-0~ubuntu22.04.1*%
%TF.CreationDate,2024-08-21T02:36:33+09:00*%
%TF.ProjectId,FSR_PAD,4653525f-5041-4442-9e6b-696361645f70,rev?*%
%TF.SameCoordinates,Original*%
%TF.FileFunction,Legend,Bot*%
%TF.FilePolarity,Positive*%
%FSLAX46Y46*%
G04 Gerber Fmt 4.6, Leading zero omitted, Abs format (unit mm)*
G04 Created by KiCad (PCBNEW 8.0.4-8.0.4-0~ubuntu22.04.1) date 2024-08-21 02:36:33*
%MOMM*%
%LPD*%
G01*
G04 APERTURE LIST*
%ADD10C,0.250000*%
%ADD11C,0.300000*%
%ADD12C,0.150000*%
%ADD13C,0.120000*%
G04 APERTURE END LIST*
D10*
X89761904Y-76497238D02*
X89857142Y-76449619D01*
X89857142Y-76449619D02*
X89999999Y-76449619D01*
X89999999Y-76449619D02*
X90142856Y-76497238D01*
X90142856Y-76497238D02*
X90238094Y-76592476D01*
X90238094Y-76592476D02*
X90285713Y-76687714D01*
X90285713Y-76687714D02*
X90333332Y-76878190D01*
X90333332Y-76878190D02*
X90333332Y-77021047D01*
X90333332Y-77021047D02*
X90285713Y-77211523D01*
X90285713Y-77211523D02*
X90238094Y-77306761D01*
X90238094Y-77306761D02*
X90142856Y-77402000D01*
X90142856Y-77402000D02*
X89999999Y-77449619D01*
X89999999Y-77449619D02*
X89904761Y-77449619D01*
X89904761Y-77449619D02*
X89761904Y-77402000D01*
X89761904Y-77402000D02*
X89714285Y-77354380D01*
X89714285Y-77354380D02*
X89714285Y-77021047D01*
X89714285Y-77021047D02*
X89904761Y-77021047D01*
X89285713Y-77449619D02*
X89285713Y-76449619D01*
X89285713Y-76449619D02*
X88714285Y-77449619D01*
X88714285Y-77449619D02*
X88714285Y-76449619D01*
X88238094Y-77449619D02*
X88238094Y-76449619D01*
X88238094Y-76449619D02*
X87999999Y-76449619D01*
X87999999Y-76449619D02*
X87857142Y-76497238D01*
X87857142Y-76497238D02*
X87761904Y-76592476D01*
X87761904Y-76592476D02*
X87714285Y-76687714D01*
X87714285Y-76687714D02*
X87666666Y-76878190D01*
X87666666Y-76878190D02*
X87666666Y-77021047D01*
X87666666Y-77021047D02*
X87714285Y-77211523D01*
X87714285Y-77211523D02*
X87761904Y-77306761D01*
X87761904Y-77306761D02*
X87857142Y-77402000D01*
X87857142Y-77402000D02*
X87999999Y-77449619D01*
X87999999Y-77449619D02*
X88238094Y-77449619D01*
D11*
X63178328Y-72000000D02*
X63535471Y-72000000D01*
X63392614Y-71642857D02*
X63535471Y-72000000D01*
X63535471Y-72000000D02*
X63392614Y-72357143D01*
X63821185Y-71785714D02*
X63535471Y-72000000D01*
X63535471Y-72000000D02*
X63821185Y-72214286D01*
X182444171Y-39945489D02*
X183944171Y-39945489D01*
X182444171Y-39231203D02*
X183944171Y-39231203D01*
X183944171Y-39231203D02*
X182444171Y-38374060D01*
X182444171Y-38374060D02*
X183944171Y-38374060D01*
X182444171Y-37659774D02*
X183944171Y-37659774D01*
X183229885Y-37659774D02*
X183229885Y-36802631D01*
X182444171Y-36802631D02*
X183944171Y-36802631D01*
X182872742Y-36159773D02*
X182872742Y-35445488D01*
X182444171Y-36302630D02*
X183944171Y-35802630D01*
X183944171Y-35802630D02*
X182444171Y-35302630D01*
X183944171Y-33659774D02*
X182729885Y-33659774D01*
X182729885Y-33659774D02*
X182587028Y-33588345D01*
X182587028Y-33588345D02*
X182515600Y-33516917D01*
X182515600Y-33516917D02*
X182444171Y-33374059D01*
X182444171Y-33374059D02*
X182444171Y-33088345D01*
X182444171Y-33088345D02*
X182515600Y-32945488D01*
X182515600Y-32945488D02*
X182587028Y-32874059D01*
X182587028Y-32874059D02*
X182729885Y-32802631D01*
X182729885Y-32802631D02*
X183944171Y-32802631D01*
X183444171Y-32088345D02*
X182444171Y-32088345D01*
X183301314Y-32088345D02*
X183372742Y-32016916D01*
X183372742Y-32016916D02*
X183444171Y-31874059D01*
X183444171Y-31874059D02*
X183444171Y-31659773D01*
X183444171Y-31659773D02*
X183372742Y-31516916D01*
X183372742Y-31516916D02*
X183229885Y-31445488D01*
X183229885Y-31445488D02*
X182444171Y-31445488D01*
X182444171Y-30731202D02*
X183444171Y-30731202D01*
X183944171Y-30731202D02*
X183872742Y-30802630D01*
X183872742Y-30802630D02*
X183801314Y-30731202D01*
X183801314Y-30731202D02*
X183872742Y-30659773D01*
X183872742Y-30659773D02*
X183944171Y-30731202D01*
X183944171Y-30731202D02*
X183801314Y-30731202D01*
X183444171Y-30159773D02*
X182444171Y-29802630D01*
X182444171Y-29802630D02*
X183444171Y-29445487D01*
X182515600Y-28302630D02*
X182444171Y-28445487D01*
X182444171Y-28445487D02*
X182444171Y-28731202D01*
X182444171Y-28731202D02*
X182515600Y-28874059D01*
X182515600Y-28874059D02*
X182658457Y-28945487D01*
X182658457Y-28945487D02*
X183229885Y-28945487D01*
X183229885Y-28945487D02*
X183372742Y-28874059D01*
X183372742Y-28874059D02*
X183444171Y-28731202D01*
X183444171Y-28731202D02*
X183444171Y-28445487D01*
X183444171Y-28445487D02*
X183372742Y-28302630D01*
X183372742Y-28302630D02*
X183229885Y-28231202D01*
X183229885Y-28231202D02*
X183087028Y-28231202D01*
X183087028Y-28231202D02*
X182944171Y-28945487D01*
X182444171Y-27588345D02*
X183444171Y-27588345D01*
X183158457Y-27588345D02*
X183301314Y-27516916D01*
X183301314Y-27516916D02*
X183372742Y-27445488D01*
X183372742Y-27445488D02*
X183444171Y-27302630D01*
X183444171Y-27302630D02*
X183444171Y-27159773D01*
X182515600Y-26731202D02*
X182444171Y-26588345D01*
X182444171Y-26588345D02*
X182444171Y-26302631D01*
X182444171Y-26302631D02*
X182515600Y-26159774D01*
X182515600Y-26159774D02*
X182658457Y-26088345D01*
X182658457Y-26088345D02*
X182729885Y-26088345D01*
X182729885Y-26088345D02*
X182872742Y-26159774D01*
X182872742Y-26159774D02*
X182944171Y-26302631D01*
X182944171Y-26302631D02*
X182944171Y-26516917D01*
X182944171Y-26516917D02*
X183015600Y-26659774D01*
X183015600Y-26659774D02*
X183158457Y-26731202D01*
X183158457Y-26731202D02*
X183229885Y-26731202D01*
X183229885Y-26731202D02*
X183372742Y-26659774D01*
X183372742Y-26659774D02*
X183444171Y-26516917D01*
X183444171Y-26516917D02*
X183444171Y-26302631D01*
X183444171Y-26302631D02*
X183372742Y-26159774D01*
X182444171Y-25445488D02*
X183444171Y-25445488D01*
X183944171Y-25445488D02*
X183872742Y-25516916D01*
X183872742Y-25516916D02*
X183801314Y-25445488D01*
X183801314Y-25445488D02*
X183872742Y-25374059D01*
X183872742Y-25374059D02*
X183944171Y-25445488D01*
X183944171Y-25445488D02*
X183801314Y-25445488D01*
X183444171Y-24945487D02*
X183444171Y-24374059D01*
X183944171Y-24731202D02*
X182658457Y-24731202D01*
X182658457Y-24731202D02*
X182515600Y-24659773D01*
X182515600Y-24659773D02*
X182444171Y-24516916D01*
X182444171Y-24516916D02*
X182444171Y-24374059D01*
X183444171Y-24016916D02*
X182444171Y-23659773D01*
X183444171Y-23302630D02*
X182444171Y-23659773D01*
X182444171Y-23659773D02*
X182087028Y-23802630D01*
X182087028Y-23802630D02*
X182015600Y-23874059D01*
X182015600Y-23874059D02*
X181944171Y-24016916D01*
X177614339Y-39945489D02*
X179114339Y-39945489D01*
X179114339Y-39945489D02*
X179114339Y-39588346D01*
X179114339Y-39588346D02*
X179042910Y-39374060D01*
X179042910Y-39374060D02*
X178900053Y-39231203D01*
X178900053Y-39231203D02*
X178757196Y-39159774D01*
X178757196Y-39159774D02*
X178471482Y-39088346D01*
X178471482Y-39088346D02*
X178257196Y-39088346D01*
X178257196Y-39088346D02*
X177971482Y-39159774D01*
X177971482Y-39159774D02*
X177828625Y-39231203D01*
X177828625Y-39231203D02*
X177685768Y-39374060D01*
X177685768Y-39374060D02*
X177614339Y-39588346D01*
X177614339Y-39588346D02*
X177614339Y-39945489D01*
X177614339Y-37802632D02*
X178400053Y-37802632D01*
X178400053Y-37802632D02*
X178542910Y-37874060D01*
X178542910Y-37874060D02*
X178614339Y-38016917D01*
X178614339Y-38016917D02*
X178614339Y-38302632D01*
X178614339Y-38302632D02*
X178542910Y-38445489D01*
X177685768Y-37802632D02*
X177614339Y-37945489D01*
X177614339Y-37945489D02*
X177614339Y-38302632D01*
X177614339Y-38302632D02*
X177685768Y-38445489D01*
X177685768Y-38445489D02*
X177828625Y-38516917D01*
X177828625Y-38516917D02*
X177971482Y-38516917D01*
X177971482Y-38516917D02*
X178114339Y-38445489D01*
X178114339Y-38445489D02*
X178185768Y-38302632D01*
X178185768Y-38302632D02*
X178185768Y-37945489D01*
X178185768Y-37945489D02*
X178257196Y-37802632D01*
X178614339Y-37302631D02*
X178614339Y-36731203D01*
X179114339Y-37088346D02*
X177828625Y-37088346D01*
X177828625Y-37088346D02*
X177685768Y-37016917D01*
X177685768Y-37016917D02*
X177614339Y-36874060D01*
X177614339Y-36874060D02*
X177614339Y-36731203D01*
X177685768Y-35659774D02*
X177614339Y-35802631D01*
X177614339Y-35802631D02*
X177614339Y-36088346D01*
X177614339Y-36088346D02*
X177685768Y-36231203D01*
X177685768Y-36231203D02*
X177828625Y-36302631D01*
X177828625Y-36302631D02*
X178400053Y-36302631D01*
X178400053Y-36302631D02*
X178542910Y-36231203D01*
X178542910Y-36231203D02*
X178614339Y-36088346D01*
X178614339Y-36088346D02*
X178614339Y-35802631D01*
X178614339Y-35802631D02*
X178542910Y-35659774D01*
X178542910Y-35659774D02*
X178400053Y-35588346D01*
X178400053Y-35588346D02*
X178257196Y-35588346D01*
X178257196Y-35588346D02*
X178114339Y-36302631D01*
X177757196Y-33802632D02*
X177685768Y-33731203D01*
X177685768Y-33731203D02*
X177614339Y-33802632D01*
X177614339Y-33802632D02*
X177685768Y-33874060D01*
X177685768Y-33874060D02*
X177757196Y-33802632D01*
X177757196Y-33802632D02*
X177614339Y-33802632D01*
X178542910Y-33802632D02*
X178471482Y-33731203D01*
X178471482Y-33731203D02*
X178400053Y-33802632D01*
X178400053Y-33802632D02*
X178471482Y-33874060D01*
X178471482Y-33874060D02*
X178542910Y-33802632D01*
X178542910Y-33802632D02*
X178400053Y-33802632D01*
X178971482Y-32016917D02*
X179042910Y-31945489D01*
X179042910Y-31945489D02*
X179114339Y-31802632D01*
X179114339Y-31802632D02*
X179114339Y-31445489D01*
X179114339Y-31445489D02*
X179042910Y-31302632D01*
X179042910Y-31302632D02*
X178971482Y-31231203D01*
X178971482Y-31231203D02*
X178828625Y-31159774D01*
X178828625Y-31159774D02*
X178685768Y-31159774D01*
X178685768Y-31159774D02*
X178471482Y-31231203D01*
X178471482Y-31231203D02*
X177614339Y-32088346D01*
X177614339Y-32088346D02*
X177614339Y-31159774D01*
X179114339Y-30231203D02*
X179114339Y-30088346D01*
X179114339Y-30088346D02*
X179042910Y-29945489D01*
X179042910Y-29945489D02*
X178971482Y-29874061D01*
X178971482Y-29874061D02*
X178828625Y-29802632D01*
X178828625Y-29802632D02*
X178542910Y-29731203D01*
X178542910Y-29731203D02*
X178185768Y-29731203D01*
X178185768Y-29731203D02*
X177900053Y-29802632D01*
X177900053Y-29802632D02*
X177757196Y-29874061D01*
X177757196Y-29874061D02*
X177685768Y-29945489D01*
X177685768Y-29945489D02*
X177614339Y-30088346D01*
X177614339Y-30088346D02*
X177614339Y-30231203D01*
X177614339Y-30231203D02*
X177685768Y-30374061D01*
X177685768Y-30374061D02*
X177757196Y-30445489D01*
X177757196Y-30445489D02*
X177900053Y-30516918D01*
X177900053Y-30516918D02*
X178185768Y-30588346D01*
X178185768Y-30588346D02*
X178542910Y-30588346D01*
X178542910Y-30588346D02*
X178828625Y-30516918D01*
X178828625Y-30516918D02*
X178971482Y-30445489D01*
X178971482Y-30445489D02*
X179042910Y-30374061D01*
X179042910Y-30374061D02*
X179114339Y-30231203D01*
X178971482Y-29159775D02*
X179042910Y-29088347D01*
X179042910Y-29088347D02*
X179114339Y-28945490D01*
X179114339Y-28945490D02*
X179114339Y-28588347D01*
X179114339Y-28588347D02*
X179042910Y-28445490D01*
X179042910Y-28445490D02*
X178971482Y-28374061D01*
X178971482Y-28374061D02*
X178828625Y-28302632D01*
X178828625Y-28302632D02*
X178685768Y-28302632D01*
X178685768Y-28302632D02*
X178471482Y-28374061D01*
X178471482Y-28374061D02*
X177614339Y-29231204D01*
X177614339Y-29231204D02*
X177614339Y-28302632D01*
X178614339Y-27016919D02*
X177614339Y-27016919D01*
X179185768Y-27374061D02*
X178114339Y-27731204D01*
X178114339Y-27731204D02*
X178114339Y-26802633D01*
X177757196Y-26231205D02*
X177685768Y-26159776D01*
X177685768Y-26159776D02*
X177614339Y-26231205D01*
X177614339Y-26231205D02*
X177685768Y-26302633D01*
X177685768Y-26302633D02*
X177757196Y-26231205D01*
X177757196Y-26231205D02*
X177614339Y-26231205D01*
X179114339Y-25231204D02*
X179114339Y-25088347D01*
X179114339Y-25088347D02*
X179042910Y-24945490D01*
X179042910Y-24945490D02*
X178971482Y-24874062D01*
X178971482Y-24874062D02*
X178828625Y-24802633D01*
X178828625Y-24802633D02*
X178542910Y-24731204D01*
X178542910Y-24731204D02*
X178185768Y-24731204D01*
X178185768Y-24731204D02*
X177900053Y-24802633D01*
X177900053Y-24802633D02*
X177757196Y-24874062D01*
X177757196Y-24874062D02*
X177685768Y-24945490D01*
X177685768Y-24945490D02*
X177614339Y-25088347D01*
X177614339Y-25088347D02*
X177614339Y-25231204D01*
X177614339Y-25231204D02*
X177685768Y-25374062D01*
X177685768Y-25374062D02*
X177757196Y-25445490D01*
X177757196Y-25445490D02*
X177900053Y-25516919D01*
X177900053Y-25516919D02*
X178185768Y-25588347D01*
X178185768Y-25588347D02*
X178542910Y-25588347D01*
X178542910Y-25588347D02*
X178828625Y-25516919D01*
X178828625Y-25516919D02*
X178971482Y-25445490D01*
X178971482Y-25445490D02*
X179042910Y-25374062D01*
X179042910Y-25374062D02*
X179114339Y-25231204D01*
X178471482Y-23874062D02*
X178542910Y-24016919D01*
X178542910Y-24016919D02*
X178614339Y-24088348D01*
X178614339Y-24088348D02*
X178757196Y-24159776D01*
X178757196Y-24159776D02*
X178828625Y-24159776D01*
X178828625Y-24159776D02*
X178971482Y-24088348D01*
X178971482Y-24088348D02*
X179042910Y-24016919D01*
X179042910Y-24016919D02*
X179114339Y-23874062D01*
X179114339Y-23874062D02*
X179114339Y-23588348D01*
X179114339Y-23588348D02*
X179042910Y-23445491D01*
X179042910Y-23445491D02*
X178971482Y-23374062D01*
X178971482Y-23374062D02*
X178828625Y-23302633D01*
X178828625Y-23302633D02*
X178757196Y-23302633D01*
X178757196Y-23302633D02*
X178614339Y-23374062D01*
X178614339Y-23374062D02*
X178542910Y-23445491D01*
X178542910Y-23445491D02*
X178471482Y-23588348D01*
X178471482Y-23588348D02*
X178471482Y-23874062D01*
X178471482Y-23874062D02*
X178400053Y-24016919D01*
X178400053Y-24016919D02*
X178328625Y-24088348D01*
X178328625Y-24088348D02*
X178185768Y-24159776D01*
X178185768Y-24159776D02*
X177900053Y-24159776D01*
X177900053Y-24159776D02*
X177757196Y-24088348D01*
X177757196Y-24088348D02*
X177685768Y-24016919D01*
X177685768Y-24016919D02*
X177614339Y-23874062D01*
X177614339Y-23874062D02*
X177614339Y-23588348D01*
X177614339Y-23588348D02*
X177685768Y-23445491D01*
X177685768Y-23445491D02*
X177757196Y-23374062D01*
X177757196Y-23374062D02*
X177900053Y-23302633D01*
X177900053Y-23302633D02*
X178185768Y-23302633D01*
X178185768Y-23302633D02*
X178328625Y-23374062D01*
X178328625Y-23374062D02*
X178400053Y-23445491D01*
X178400053Y-23445491D02*
X178471482Y-23588348D01*
X177757196Y-22659777D02*
X177685768Y-22588348D01*
X177685768Y-22588348D02*
X177614339Y-22659777D01*
X177614339Y-22659777D02*
X177685768Y-22731205D01*
X177685768Y-22731205D02*
X177757196Y-22659777D01*
X177757196Y-22659777D02*
X177614339Y-22659777D01*
X178971482Y-22016919D02*
X179042910Y-21945491D01*
X179042910Y-21945491D02*
X179114339Y-21802634D01*
X179114339Y-21802634D02*
X179114339Y-21445491D01*
X179114339Y-21445491D02*
X179042910Y-21302634D01*
X179042910Y-21302634D02*
X178971482Y-21231205D01*
X178971482Y-21231205D02*
X178828625Y-21159776D01*
X178828625Y-21159776D02*
X178685768Y-21159776D01*
X178685768Y-21159776D02*
X178471482Y-21231205D01*
X178471482Y-21231205D02*
X177614339Y-22088348D01*
X177614339Y-22088348D02*
X177614339Y-21159776D01*
X177614339Y-19731205D02*
X177614339Y-20588348D01*
X177614339Y-20159777D02*
X179114339Y-20159777D01*
X179114339Y-20159777D02*
X178900053Y-20302634D01*
X178900053Y-20302634D02*
X178757196Y-20445491D01*
X178757196Y-20445491D02*
X178685768Y-20588348D01*
X175342280Y-39088346D02*
X175270852Y-39159774D01*
X175270852Y-39159774D02*
X175199423Y-39374060D01*
X175199423Y-39374060D02*
X175199423Y-39516917D01*
X175199423Y-39516917D02*
X175270852Y-39731203D01*
X175270852Y-39731203D02*
X175413709Y-39874060D01*
X175413709Y-39874060D02*
X175556566Y-39945489D01*
X175556566Y-39945489D02*
X175842280Y-40016917D01*
X175842280Y-40016917D02*
X176056566Y-40016917D01*
X176056566Y-40016917D02*
X176342280Y-39945489D01*
X176342280Y-39945489D02*
X176485137Y-39874060D01*
X176485137Y-39874060D02*
X176627994Y-39731203D01*
X176627994Y-39731203D02*
X176699423Y-39516917D01*
X176699423Y-39516917D02*
X176699423Y-39374060D01*
X176699423Y-39374060D02*
X176627994Y-39159774D01*
X176627994Y-39159774D02*
X176556566Y-39088346D01*
X175199423Y-38231203D02*
X175270852Y-38374060D01*
X175270852Y-38374060D02*
X175342280Y-38445489D01*
X175342280Y-38445489D02*
X175485137Y-38516917D01*
X175485137Y-38516917D02*
X175913709Y-38516917D01*
X175913709Y-38516917D02*
X176056566Y-38445489D01*
X176056566Y-38445489D02*
X176127994Y-38374060D01*
X176127994Y-38374060D02*
X176199423Y-38231203D01*
X176199423Y-38231203D02*
X176199423Y-38016917D01*
X176199423Y-38016917D02*
X176127994Y-37874060D01*
X176127994Y-37874060D02*
X176056566Y-37802632D01*
X176056566Y-37802632D02*
X175913709Y-37731203D01*
X175913709Y-37731203D02*
X175485137Y-37731203D01*
X175485137Y-37731203D02*
X175342280Y-37802632D01*
X175342280Y-37802632D02*
X175270852Y-37874060D01*
X175270852Y-37874060D02*
X175199423Y-38016917D01*
X175199423Y-38016917D02*
X175199423Y-38231203D01*
X176199423Y-37088346D02*
X175199423Y-37088346D01*
X176056566Y-37088346D02*
X176127994Y-37016917D01*
X176127994Y-37016917D02*
X176199423Y-36874060D01*
X176199423Y-36874060D02*
X176199423Y-36659774D01*
X176199423Y-36659774D02*
X176127994Y-36516917D01*
X176127994Y-36516917D02*
X175985137Y-36445489D01*
X175985137Y-36445489D02*
X175199423Y-36445489D01*
X176199423Y-35945488D02*
X176199423Y-35374060D01*
X176699423Y-35731203D02*
X175413709Y-35731203D01*
X175413709Y-35731203D02*
X175270852Y-35659774D01*
X175270852Y-35659774D02*
X175199423Y-35516917D01*
X175199423Y-35516917D02*
X175199423Y-35374060D01*
X175342280Y-33731203D02*
X175270852Y-33659774D01*
X175270852Y-33659774D02*
X175199423Y-33731203D01*
X175199423Y-33731203D02*
X175270852Y-33802631D01*
X175270852Y-33802631D02*
X175342280Y-33731203D01*
X175342280Y-33731203D02*
X175199423Y-33731203D01*
X176127994Y-33731203D02*
X176056566Y-33659774D01*
X176056566Y-33659774D02*
X175985137Y-33731203D01*
X175985137Y-33731203D02*
X176056566Y-33802631D01*
X176056566Y-33802631D02*
X176127994Y-33731203D01*
X176127994Y-33731203D02*
X175985137Y-33731203D01*
X175199423Y-31659774D02*
X175270852Y-31802631D01*
X175270852Y-31802631D02*
X175413709Y-31874060D01*
X175413709Y-31874060D02*
X176699423Y-31874060D01*
X175270852Y-30516917D02*
X175199423Y-30659774D01*
X175199423Y-30659774D02*
X175199423Y-30945489D01*
X175199423Y-30945489D02*
X175270852Y-31088346D01*
X175270852Y-31088346D02*
X175413709Y-31159774D01*
X175413709Y-31159774D02*
X175985137Y-31159774D01*
X175985137Y-31159774D02*
X176127994Y-31088346D01*
X176127994Y-31088346D02*
X176199423Y-30945489D01*
X176199423Y-30945489D02*
X176199423Y-30659774D01*
X176199423Y-30659774D02*
X176127994Y-30516917D01*
X176127994Y-30516917D02*
X175985137Y-30445489D01*
X175985137Y-30445489D02*
X175842280Y-30445489D01*
X175842280Y-30445489D02*
X175699423Y-31159774D01*
X175270852Y-29231203D02*
X175199423Y-29374060D01*
X175199423Y-29374060D02*
X175199423Y-29659775D01*
X175199423Y-29659775D02*
X175270852Y-29802632D01*
X175270852Y-29802632D02*
X175413709Y-29874060D01*
X175413709Y-29874060D02*
X175985137Y-29874060D01*
X175985137Y-29874060D02*
X176127994Y-29802632D01*
X176127994Y-29802632D02*
X176199423Y-29659775D01*
X176199423Y-29659775D02*
X176199423Y-29374060D01*
X176199423Y-29374060D02*
X176127994Y-29231203D01*
X176127994Y-29231203D02*
X175985137Y-29159775D01*
X175985137Y-29159775D02*
X175842280Y-29159775D01*
X175842280Y-29159775D02*
X175699423Y-29874060D01*
X175270852Y-27874061D02*
X175199423Y-28016918D01*
X175199423Y-28016918D02*
X175199423Y-28302632D01*
X175199423Y-28302632D02*
X175270852Y-28445489D01*
X175270852Y-28445489D02*
X175342280Y-28516918D01*
X175342280Y-28516918D02*
X175485137Y-28588346D01*
X175485137Y-28588346D02*
X175913709Y-28588346D01*
X175913709Y-28588346D02*
X176056566Y-28516918D01*
X176056566Y-28516918D02*
X176127994Y-28445489D01*
X176127994Y-28445489D02*
X176199423Y-28302632D01*
X176199423Y-28302632D02*
X176199423Y-28016918D01*
X176199423Y-28016918D02*
X176127994Y-27874061D01*
X176199423Y-26588347D02*
X175199423Y-26588347D01*
X176199423Y-27231204D02*
X175413709Y-27231204D01*
X175413709Y-27231204D02*
X175270852Y-27159775D01*
X175270852Y-27159775D02*
X175199423Y-27016918D01*
X175199423Y-27016918D02*
X175199423Y-26802632D01*
X175199423Y-26802632D02*
X175270852Y-26659775D01*
X175270852Y-26659775D02*
X175342280Y-26588347D01*
X175199423Y-25874061D02*
X176199423Y-25874061D01*
X175913709Y-25874061D02*
X176056566Y-25802632D01*
X176056566Y-25802632D02*
X176127994Y-25731204D01*
X176127994Y-25731204D02*
X176199423Y-25588346D01*
X176199423Y-25588346D02*
X176199423Y-25445489D01*
X175199423Y-24945490D02*
X176199423Y-24945490D01*
X175913709Y-24945490D02*
X176056566Y-24874061D01*
X176056566Y-24874061D02*
X176127994Y-24802633D01*
X176127994Y-24802633D02*
X176199423Y-24659775D01*
X176199423Y-24659775D02*
X176199423Y-24516918D01*
X175270852Y-23445490D02*
X175199423Y-23588347D01*
X175199423Y-23588347D02*
X175199423Y-23874062D01*
X175199423Y-23874062D02*
X175270852Y-24016919D01*
X175270852Y-24016919D02*
X175413709Y-24088347D01*
X175413709Y-24088347D02*
X175985137Y-24088347D01*
X175985137Y-24088347D02*
X176127994Y-24016919D01*
X176127994Y-24016919D02*
X176199423Y-23874062D01*
X176199423Y-23874062D02*
X176199423Y-23588347D01*
X176199423Y-23588347D02*
X176127994Y-23445490D01*
X176127994Y-23445490D02*
X175985137Y-23374062D01*
X175985137Y-23374062D02*
X175842280Y-23374062D01*
X175842280Y-23374062D02*
X175699423Y-24088347D01*
X176199423Y-22731205D02*
X175199423Y-22731205D01*
X176056566Y-22731205D02*
X176127994Y-22659776D01*
X176127994Y-22659776D02*
X176199423Y-22516919D01*
X176199423Y-22516919D02*
X176199423Y-22302633D01*
X176199423Y-22302633D02*
X176127994Y-22159776D01*
X176127994Y-22159776D02*
X175985137Y-22088348D01*
X175985137Y-22088348D02*
X175199423Y-22088348D01*
X176199423Y-21588347D02*
X176199423Y-21016919D01*
X176699423Y-21374062D02*
X175413709Y-21374062D01*
X175413709Y-21374062D02*
X175270852Y-21302633D01*
X175270852Y-21302633D02*
X175199423Y-21159776D01*
X175199423Y-21159776D02*
X175199423Y-21016919D01*
X176699423Y-20231204D02*
X176699423Y-20088347D01*
X176699423Y-20088347D02*
X176627994Y-19945490D01*
X176627994Y-19945490D02*
X176556566Y-19874062D01*
X176556566Y-19874062D02*
X176413709Y-19802633D01*
X176413709Y-19802633D02*
X176127994Y-19731204D01*
X176127994Y-19731204D02*
X175770852Y-19731204D01*
X175770852Y-19731204D02*
X175485137Y-19802633D01*
X175485137Y-19802633D02*
X175342280Y-19874062D01*
X175342280Y-19874062D02*
X175270852Y-19945490D01*
X175270852Y-19945490D02*
X175199423Y-20088347D01*
X175199423Y-20088347D02*
X175199423Y-20231204D01*
X175199423Y-20231204D02*
X175270852Y-20374062D01*
X175270852Y-20374062D02*
X175342280Y-20445490D01*
X175342280Y-20445490D02*
X175485137Y-20516919D01*
X175485137Y-20516919D02*
X175770852Y-20588347D01*
X175770852Y-20588347D02*
X176127994Y-20588347D01*
X176127994Y-20588347D02*
X176413709Y-20516919D01*
X176413709Y-20516919D02*
X176556566Y-20445490D01*
X176556566Y-20445490D02*
X176627994Y-20374062D01*
X176627994Y-20374062D02*
X176699423Y-20231204D01*
X176199423Y-18445491D02*
X175199423Y-18445491D01*
X176770852Y-18802633D02*
X175699423Y-19159776D01*
X175699423Y-19159776D02*
X175699423Y-18231205D01*
X175913709Y-16731205D02*
X175985137Y-16802634D01*
X175985137Y-16802634D02*
X176056566Y-16945491D01*
X176056566Y-16945491D02*
X176056566Y-17088348D01*
X176056566Y-17088348D02*
X175985137Y-17231205D01*
X175985137Y-17231205D02*
X175913709Y-17302634D01*
X175913709Y-17302634D02*
X175770852Y-17374062D01*
X175770852Y-17374062D02*
X175627994Y-17374062D01*
X175627994Y-17374062D02*
X175485137Y-17302634D01*
X175485137Y-17302634D02*
X175413709Y-17231205D01*
X175413709Y-17231205D02*
X175342280Y-17088348D01*
X175342280Y-17088348D02*
X175342280Y-16945491D01*
X175342280Y-16945491D02*
X175413709Y-16802634D01*
X175413709Y-16802634D02*
X175485137Y-16731205D01*
X176056566Y-16731205D02*
X175485137Y-16731205D01*
X175485137Y-16731205D02*
X175413709Y-16659777D01*
X175413709Y-16659777D02*
X175413709Y-16588348D01*
X175413709Y-16588348D02*
X175485137Y-16445491D01*
X175485137Y-16445491D02*
X175627994Y-16374062D01*
X175627994Y-16374062D02*
X175985137Y-16374062D01*
X175985137Y-16374062D02*
X176199423Y-16516920D01*
X176199423Y-16516920D02*
X176342280Y-16731205D01*
X176342280Y-16731205D02*
X176413709Y-17016920D01*
X176413709Y-17016920D02*
X176342280Y-17302634D01*
X176342280Y-17302634D02*
X176199423Y-17516920D01*
X176199423Y-17516920D02*
X175985137Y-17659777D01*
X175985137Y-17659777D02*
X175699423Y-17731205D01*
X175699423Y-17731205D02*
X175413709Y-17659777D01*
X175413709Y-17659777D02*
X175199423Y-17516920D01*
X175199423Y-17516920D02*
X175056566Y-17302634D01*
X175056566Y-17302634D02*
X174985137Y-17016920D01*
X174985137Y-17016920D02*
X175056566Y-16731205D01*
X175056566Y-16731205D02*
X175199423Y-16516920D01*
X175199423Y-15731206D02*
X176199423Y-15731206D01*
X176699423Y-15731206D02*
X176627994Y-15802634D01*
X176627994Y-15802634D02*
X176556566Y-15731206D01*
X176556566Y-15731206D02*
X176627994Y-15659777D01*
X176627994Y-15659777D02*
X176699423Y-15731206D01*
X176699423Y-15731206D02*
X176556566Y-15731206D01*
X176199423Y-15016920D02*
X175199423Y-15016920D01*
X176056566Y-15016920D02*
X176127994Y-14945491D01*
X176127994Y-14945491D02*
X176199423Y-14802634D01*
X176199423Y-14802634D02*
X176199423Y-14588348D01*
X176199423Y-14588348D02*
X176127994Y-14445491D01*
X176127994Y-14445491D02*
X175985137Y-14374063D01*
X175985137Y-14374063D02*
X175199423Y-14374063D01*
X175199423Y-13659777D02*
X176699423Y-13659777D01*
X175199423Y-13016920D02*
X175985137Y-13016920D01*
X175985137Y-13016920D02*
X176127994Y-13088348D01*
X176127994Y-13088348D02*
X176199423Y-13231205D01*
X176199423Y-13231205D02*
X176199423Y-13445491D01*
X176199423Y-13445491D02*
X176127994Y-13588348D01*
X176127994Y-13588348D02*
X176056566Y-13659777D01*
X175199423Y-11659777D02*
X175985137Y-11659777D01*
X175985137Y-11659777D02*
X176127994Y-11731205D01*
X176127994Y-11731205D02*
X176199423Y-11874062D01*
X176199423Y-11874062D02*
X176199423Y-12159777D01*
X176199423Y-12159777D02*
X176127994Y-12302634D01*
X175270852Y-11659777D02*
X175199423Y-11802634D01*
X175199423Y-11802634D02*
X175199423Y-12159777D01*
X175199423Y-12159777D02*
X175270852Y-12302634D01*
X175270852Y-12302634D02*
X175413709Y-12374062D01*
X175413709Y-12374062D02*
X175556566Y-12374062D01*
X175556566Y-12374062D02*
X175699423Y-12302634D01*
X175699423Y-12302634D02*
X175770852Y-12159777D01*
X175770852Y-12159777D02*
X175770852Y-11802634D01*
X175770852Y-11802634D02*
X175842280Y-11659777D01*
X175342280Y-10945491D02*
X175270852Y-10874062D01*
X175270852Y-10874062D02*
X175199423Y-10945491D01*
X175199423Y-10945491D02*
X175270852Y-11016919D01*
X175270852Y-11016919D02*
X175342280Y-10945491D01*
X175342280Y-10945491D02*
X175199423Y-10945491D01*
X175270852Y-9659776D02*
X175199423Y-9802633D01*
X175199423Y-9802633D02*
X175199423Y-10088348D01*
X175199423Y-10088348D02*
X175270852Y-10231205D01*
X175270852Y-10231205D02*
X175413709Y-10302633D01*
X175413709Y-10302633D02*
X175985137Y-10302633D01*
X175985137Y-10302633D02*
X176127994Y-10231205D01*
X176127994Y-10231205D02*
X176199423Y-10088348D01*
X176199423Y-10088348D02*
X176199423Y-9802633D01*
X176199423Y-9802633D02*
X176127994Y-9659776D01*
X176127994Y-9659776D02*
X175985137Y-9588348D01*
X175985137Y-9588348D02*
X175842280Y-9588348D01*
X175842280Y-9588348D02*
X175699423Y-10302633D01*
X175199423Y-8302634D02*
X176699423Y-8302634D01*
X175270852Y-8302634D02*
X175199423Y-8445491D01*
X175199423Y-8445491D02*
X175199423Y-8731205D01*
X175199423Y-8731205D02*
X175270852Y-8874062D01*
X175270852Y-8874062D02*
X175342280Y-8945491D01*
X175342280Y-8945491D02*
X175485137Y-9016919D01*
X175485137Y-9016919D02*
X175913709Y-9016919D01*
X175913709Y-9016919D02*
X176056566Y-8945491D01*
X176056566Y-8945491D02*
X176127994Y-8874062D01*
X176127994Y-8874062D02*
X176199423Y-8731205D01*
X176199423Y-8731205D02*
X176199423Y-8445491D01*
X176199423Y-8445491D02*
X176127994Y-8302634D01*
X176199423Y-6945491D02*
X175199423Y-6945491D01*
X176199423Y-7588348D02*
X175413709Y-7588348D01*
X175413709Y-7588348D02*
X175270852Y-7516919D01*
X175270852Y-7516919D02*
X175199423Y-7374062D01*
X175199423Y-7374062D02*
X175199423Y-7159776D01*
X175199423Y-7159776D02*
X175270852Y-7016919D01*
X175270852Y-7016919D02*
X175342280Y-6945491D01*
X85445489Y-30270114D02*
X85945489Y-30270114D01*
X85945489Y-31055828D02*
X85945489Y-29555828D01*
X85945489Y-29555828D02*
X85231203Y-29555828D01*
X84731203Y-30984400D02*
X84516918Y-31055828D01*
X84516918Y-31055828D02*
X84159775Y-31055828D01*
X84159775Y-31055828D02*
X84016918Y-30984400D01*
X84016918Y-30984400D02*
X83945489Y-30912971D01*
X83945489Y-30912971D02*
X83874060Y-30770114D01*
X83874060Y-30770114D02*
X83874060Y-30627257D01*
X83874060Y-30627257D02*
X83945489Y-30484400D01*
X83945489Y-30484400D02*
X84016918Y-30412971D01*
X84016918Y-30412971D02*
X84159775Y-30341542D01*
X84159775Y-30341542D02*
X84445489Y-30270114D01*
X84445489Y-30270114D02*
X84588346Y-30198685D01*
X84588346Y-30198685D02*
X84659775Y-30127257D01*
X84659775Y-30127257D02*
X84731203Y-29984400D01*
X84731203Y-29984400D02*
X84731203Y-29841542D01*
X84731203Y-29841542D02*
X84659775Y-29698685D01*
X84659775Y-29698685D02*
X84588346Y-29627257D01*
X84588346Y-29627257D02*
X84445489Y-29555828D01*
X84445489Y-29555828D02*
X84088346Y-29555828D01*
X84088346Y-29555828D02*
X83874060Y-29627257D01*
X82374061Y-31055828D02*
X82874061Y-30341542D01*
X83231204Y-31055828D02*
X83231204Y-29555828D01*
X83231204Y-29555828D02*
X82659775Y-29555828D01*
X82659775Y-29555828D02*
X82516918Y-29627257D01*
X82516918Y-29627257D02*
X82445489Y-29698685D01*
X82445489Y-29698685D02*
X82374061Y-29841542D01*
X82374061Y-29841542D02*
X82374061Y-30055828D01*
X82374061Y-30055828D02*
X82445489Y-30198685D01*
X82445489Y-30198685D02*
X82516918Y-30270114D01*
X82516918Y-30270114D02*
X82659775Y-30341542D01*
X82659775Y-30341542D02*
X83231204Y-30341542D01*
X80659775Y-30984400D02*
X80445490Y-31055828D01*
X80445490Y-31055828D02*
X80088347Y-31055828D01*
X80088347Y-31055828D02*
X79945490Y-30984400D01*
X79945490Y-30984400D02*
X79874061Y-30912971D01*
X79874061Y-30912971D02*
X79802632Y-30770114D01*
X79802632Y-30770114D02*
X79802632Y-30627257D01*
X79802632Y-30627257D02*
X79874061Y-30484400D01*
X79874061Y-30484400D02*
X79945490Y-30412971D01*
X79945490Y-30412971D02*
X80088347Y-30341542D01*
X80088347Y-30341542D02*
X80374061Y-30270114D01*
X80374061Y-30270114D02*
X80516918Y-30198685D01*
X80516918Y-30198685D02*
X80588347Y-30127257D01*
X80588347Y-30127257D02*
X80659775Y-29984400D01*
X80659775Y-29984400D02*
X80659775Y-29841542D01*
X80659775Y-29841542D02*
X80588347Y-29698685D01*
X80588347Y-29698685D02*
X80516918Y-29627257D01*
X80516918Y-29627257D02*
X80374061Y-29555828D01*
X80374061Y-29555828D02*
X80016918Y-29555828D01*
X80016918Y-29555828D02*
X79802632Y-29627257D01*
X78588347Y-30984400D02*
X78731204Y-31055828D01*
X78731204Y-31055828D02*
X79016919Y-31055828D01*
X79016919Y-31055828D02*
X79159776Y-30984400D01*
X79159776Y-30984400D02*
X79231204Y-30841542D01*
X79231204Y-30841542D02*
X79231204Y-30270114D01*
X79231204Y-30270114D02*
X79159776Y-30127257D01*
X79159776Y-30127257D02*
X79016919Y-30055828D01*
X79016919Y-30055828D02*
X78731204Y-30055828D01*
X78731204Y-30055828D02*
X78588347Y-30127257D01*
X78588347Y-30127257D02*
X78516919Y-30270114D01*
X78516919Y-30270114D02*
X78516919Y-30412971D01*
X78516919Y-30412971D02*
X79231204Y-30555828D01*
X77874062Y-30055828D02*
X77874062Y-31055828D01*
X77874062Y-30198685D02*
X77802633Y-30127257D01*
X77802633Y-30127257D02*
X77659776Y-30055828D01*
X77659776Y-30055828D02*
X77445490Y-30055828D01*
X77445490Y-30055828D02*
X77302633Y-30127257D01*
X77302633Y-30127257D02*
X77231205Y-30270114D01*
X77231205Y-30270114D02*
X77231205Y-31055828D01*
X76588347Y-30984400D02*
X76445490Y-31055828D01*
X76445490Y-31055828D02*
X76159776Y-31055828D01*
X76159776Y-31055828D02*
X76016919Y-30984400D01*
X76016919Y-30984400D02*
X75945490Y-30841542D01*
X75945490Y-30841542D02*
X75945490Y-30770114D01*
X75945490Y-30770114D02*
X76016919Y-30627257D01*
X76016919Y-30627257D02*
X76159776Y-30555828D01*
X76159776Y-30555828D02*
X76374062Y-30555828D01*
X76374062Y-30555828D02*
X76516919Y-30484400D01*
X76516919Y-30484400D02*
X76588347Y-30341542D01*
X76588347Y-30341542D02*
X76588347Y-30270114D01*
X76588347Y-30270114D02*
X76516919Y-30127257D01*
X76516919Y-30127257D02*
X76374062Y-30055828D01*
X76374062Y-30055828D02*
X76159776Y-30055828D01*
X76159776Y-30055828D02*
X76016919Y-30127257D01*
X75088347Y-31055828D02*
X75231204Y-30984400D01*
X75231204Y-30984400D02*
X75302633Y-30912971D01*
X75302633Y-30912971D02*
X75374061Y-30770114D01*
X75374061Y-30770114D02*
X75374061Y-30341542D01*
X75374061Y-30341542D02*
X75302633Y-30198685D01*
X75302633Y-30198685D02*
X75231204Y-30127257D01*
X75231204Y-30127257D02*
X75088347Y-30055828D01*
X75088347Y-30055828D02*
X74874061Y-30055828D01*
X74874061Y-30055828D02*
X74731204Y-30127257D01*
X74731204Y-30127257D02*
X74659776Y-30198685D01*
X74659776Y-30198685D02*
X74588347Y-30341542D01*
X74588347Y-30341542D02*
X74588347Y-30770114D01*
X74588347Y-30770114D02*
X74659776Y-30912971D01*
X74659776Y-30912971D02*
X74731204Y-30984400D01*
X74731204Y-30984400D02*
X74874061Y-31055828D01*
X74874061Y-31055828D02*
X75088347Y-31055828D01*
X73945490Y-31055828D02*
X73945490Y-30055828D01*
X73945490Y-30341542D02*
X73874061Y-30198685D01*
X73874061Y-30198685D02*
X73802633Y-30127257D01*
X73802633Y-30127257D02*
X73659775Y-30055828D01*
X73659775Y-30055828D02*
X73516918Y-30055828D01*
X72016919Y-30055828D02*
X71659776Y-31055828D01*
X71659776Y-31055828D02*
X71302633Y-30055828D01*
X69945490Y-31055828D02*
X70802633Y-31055828D01*
X70374062Y-31055828D02*
X70374062Y-29555828D01*
X70374062Y-29555828D02*
X70516919Y-29770114D01*
X70516919Y-29770114D02*
X70659776Y-29912971D01*
X70659776Y-29912971D02*
X70802633Y-29984400D01*
X69302634Y-30912971D02*
X69231205Y-30984400D01*
X69231205Y-30984400D02*
X69302634Y-31055828D01*
X69302634Y-31055828D02*
X69374062Y-30984400D01*
X69374062Y-30984400D02*
X69302634Y-30912971D01*
X69302634Y-30912971D02*
X69302634Y-31055828D01*
X67802633Y-31055828D02*
X68659776Y-31055828D01*
X68231205Y-31055828D02*
X68231205Y-29555828D01*
X68231205Y-29555828D02*
X68374062Y-29770114D01*
X68374062Y-29770114D02*
X68516919Y-29912971D01*
X68516919Y-29912971D02*
X68659776Y-29984400D01*
X85945489Y-35885660D02*
X85945489Y-34385660D01*
X85231203Y-35885660D02*
X85231203Y-34385660D01*
X85231203Y-34385660D02*
X84374060Y-35885660D01*
X84374060Y-35885660D02*
X84374060Y-34385660D01*
X83659774Y-35885660D02*
X83659774Y-34385660D01*
X83659774Y-35099946D02*
X82802631Y-35099946D01*
X82802631Y-35885660D02*
X82802631Y-34385660D01*
X82159773Y-35457089D02*
X81445488Y-35457089D01*
X82302630Y-35885660D02*
X81802630Y-34385660D01*
X81802630Y-34385660D02*
X81302630Y-35885660D01*
X79659774Y-34385660D02*
X79659774Y-35599946D01*
X79659774Y-35599946D02*
X79588345Y-35742803D01*
X79588345Y-35742803D02*
X79516917Y-35814232D01*
X79516917Y-35814232D02*
X79374059Y-35885660D01*
X79374059Y-35885660D02*
X79088345Y-35885660D01*
X79088345Y-35885660D02*
X78945488Y-35814232D01*
X78945488Y-35814232D02*
X78874059Y-35742803D01*
X78874059Y-35742803D02*
X78802631Y-35599946D01*
X78802631Y-35599946D02*
X78802631Y-34385660D01*
X78088345Y-34885660D02*
X78088345Y-35885660D01*
X78088345Y-35028517D02*
X78016916Y-34957089D01*
X78016916Y-34957089D02*
X77874059Y-34885660D01*
X77874059Y-34885660D02*
X77659773Y-34885660D01*
X77659773Y-34885660D02*
X77516916Y-34957089D01*
X77516916Y-34957089D02*
X77445488Y-35099946D01*
X77445488Y-35099946D02*
X77445488Y-35885660D01*
X76731202Y-35885660D02*
X76731202Y-34885660D01*
X76731202Y-34385660D02*
X76802630Y-34457089D01*
X76802630Y-34457089D02*
X76731202Y-34528517D01*
X76731202Y-34528517D02*
X76659773Y-34457089D01*
X76659773Y-34457089D02*
X76731202Y-34385660D01*
X76731202Y-34385660D02*
X76731202Y-34528517D01*
X76159773Y-34885660D02*
X75802630Y-35885660D01*
X75802630Y-35885660D02*
X75445487Y-34885660D01*
X74302630Y-35814232D02*
X74445487Y-35885660D01*
X74445487Y-35885660D02*
X74731202Y-35885660D01*
X74731202Y-35885660D02*
X74874059Y-35814232D01*
X74874059Y-35814232D02*
X74945487Y-35671374D01*
X74945487Y-35671374D02*
X74945487Y-35099946D01*
X74945487Y-35099946D02*
X74874059Y-34957089D01*
X74874059Y-34957089D02*
X74731202Y-34885660D01*
X74731202Y-34885660D02*
X74445487Y-34885660D01*
X74445487Y-34885660D02*
X74302630Y-34957089D01*
X74302630Y-34957089D02*
X74231202Y-35099946D01*
X74231202Y-35099946D02*
X74231202Y-35242803D01*
X74231202Y-35242803D02*
X74945487Y-35385660D01*
X73588345Y-35885660D02*
X73588345Y-34885660D01*
X73588345Y-35171374D02*
X73516916Y-35028517D01*
X73516916Y-35028517D02*
X73445488Y-34957089D01*
X73445488Y-34957089D02*
X73302630Y-34885660D01*
X73302630Y-34885660D02*
X73159773Y-34885660D01*
X72731202Y-35814232D02*
X72588345Y-35885660D01*
X72588345Y-35885660D02*
X72302631Y-35885660D01*
X72302631Y-35885660D02*
X72159774Y-35814232D01*
X72159774Y-35814232D02*
X72088345Y-35671374D01*
X72088345Y-35671374D02*
X72088345Y-35599946D01*
X72088345Y-35599946D02*
X72159774Y-35457089D01*
X72159774Y-35457089D02*
X72302631Y-35385660D01*
X72302631Y-35385660D02*
X72516917Y-35385660D01*
X72516917Y-35385660D02*
X72659774Y-35314232D01*
X72659774Y-35314232D02*
X72731202Y-35171374D01*
X72731202Y-35171374D02*
X72731202Y-35099946D01*
X72731202Y-35099946D02*
X72659774Y-34957089D01*
X72659774Y-34957089D02*
X72516917Y-34885660D01*
X72516917Y-34885660D02*
X72302631Y-34885660D01*
X72302631Y-34885660D02*
X72159774Y-34957089D01*
X71445488Y-35885660D02*
X71445488Y-34885660D01*
X71445488Y-34385660D02*
X71516916Y-34457089D01*
X71516916Y-34457089D02*
X71445488Y-34528517D01*
X71445488Y-34528517D02*
X71374059Y-34457089D01*
X71374059Y-34457089D02*
X71445488Y-34385660D01*
X71445488Y-34385660D02*
X71445488Y-34528517D01*
X70945487Y-34885660D02*
X70374059Y-34885660D01*
X70731202Y-34385660D02*
X70731202Y-35671374D01*
X70731202Y-35671374D02*
X70659773Y-35814232D01*
X70659773Y-35814232D02*
X70516916Y-35885660D01*
X70516916Y-35885660D02*
X70374059Y-35885660D01*
X70016916Y-34885660D02*
X69659773Y-35885660D01*
X69302630Y-34885660D02*
X69659773Y-35885660D01*
X69659773Y-35885660D02*
X69802630Y-36242803D01*
X69802630Y-36242803D02*
X69874059Y-36314232D01*
X69874059Y-36314232D02*
X70016916Y-36385660D01*
X85945489Y-40715492D02*
X85945489Y-39215492D01*
X85945489Y-39215492D02*
X85588346Y-39215492D01*
X85588346Y-39215492D02*
X85374060Y-39286921D01*
X85374060Y-39286921D02*
X85231203Y-39429778D01*
X85231203Y-39429778D02*
X85159774Y-39572635D01*
X85159774Y-39572635D02*
X85088346Y-39858349D01*
X85088346Y-39858349D02*
X85088346Y-40072635D01*
X85088346Y-40072635D02*
X85159774Y-40358349D01*
X85159774Y-40358349D02*
X85231203Y-40501206D01*
X85231203Y-40501206D02*
X85374060Y-40644064D01*
X85374060Y-40644064D02*
X85588346Y-40715492D01*
X85588346Y-40715492D02*
X85945489Y-40715492D01*
X83802632Y-40715492D02*
X83802632Y-39929778D01*
X83802632Y-39929778D02*
X83874060Y-39786921D01*
X83874060Y-39786921D02*
X84016917Y-39715492D01*
X84016917Y-39715492D02*
X84302632Y-39715492D01*
X84302632Y-39715492D02*
X84445489Y-39786921D01*
X83802632Y-40644064D02*
X83945489Y-40715492D01*
X83945489Y-40715492D02*
X84302632Y-40715492D01*
X84302632Y-40715492D02*
X84445489Y-40644064D01*
X84445489Y-40644064D02*
X84516917Y-40501206D01*
X84516917Y-40501206D02*
X84516917Y-40358349D01*
X84516917Y-40358349D02*
X84445489Y-40215492D01*
X84445489Y-40215492D02*
X84302632Y-40144064D01*
X84302632Y-40144064D02*
X83945489Y-40144064D01*
X83945489Y-40144064D02*
X83802632Y-40072635D01*
X83302631Y-39715492D02*
X82731203Y-39715492D01*
X83088346Y-39215492D02*
X83088346Y-40501206D01*
X83088346Y-40501206D02*
X83016917Y-40644064D01*
X83016917Y-40644064D02*
X82874060Y-40715492D01*
X82874060Y-40715492D02*
X82731203Y-40715492D01*
X81659774Y-40644064D02*
X81802631Y-40715492D01*
X81802631Y-40715492D02*
X82088346Y-40715492D01*
X82088346Y-40715492D02*
X82231203Y-40644064D01*
X82231203Y-40644064D02*
X82302631Y-40501206D01*
X82302631Y-40501206D02*
X82302631Y-39929778D01*
X82302631Y-39929778D02*
X82231203Y-39786921D01*
X82231203Y-39786921D02*
X82088346Y-39715492D01*
X82088346Y-39715492D02*
X81802631Y-39715492D01*
X81802631Y-39715492D02*
X81659774Y-39786921D01*
X81659774Y-39786921D02*
X81588346Y-39929778D01*
X81588346Y-39929778D02*
X81588346Y-40072635D01*
X81588346Y-40072635D02*
X82302631Y-40215492D01*
X79802632Y-40572635D02*
X79731203Y-40644064D01*
X79731203Y-40644064D02*
X79802632Y-40715492D01*
X79802632Y-40715492D02*
X79874060Y-40644064D01*
X79874060Y-40644064D02*
X79802632Y-40572635D01*
X79802632Y-40572635D02*
X79802632Y-40715492D01*
X79802632Y-39786921D02*
X79731203Y-39858349D01*
X79731203Y-39858349D02*
X79802632Y-39929778D01*
X79802632Y-39929778D02*
X79874060Y-39858349D01*
X79874060Y-39858349D02*
X79802632Y-39786921D01*
X79802632Y-39786921D02*
X79802632Y-39929778D01*
X78016917Y-39358349D02*
X77945489Y-39286921D01*
X77945489Y-39286921D02*
X77802632Y-39215492D01*
X77802632Y-39215492D02*
X77445489Y-39215492D01*
X77445489Y-39215492D02*
X77302632Y-39286921D01*
X77302632Y-39286921D02*
X77231203Y-39358349D01*
X77231203Y-39358349D02*
X77159774Y-39501206D01*
X77159774Y-39501206D02*
X77159774Y-39644064D01*
X77159774Y-39644064D02*
X77231203Y-39858349D01*
X77231203Y-39858349D02*
X78088346Y-40715492D01*
X78088346Y-40715492D02*
X77159774Y-40715492D01*
X76231203Y-39215492D02*
X76088346Y-39215492D01*
X76088346Y-39215492D02*
X75945489Y-39286921D01*
X75945489Y-39286921D02*
X75874061Y-39358349D01*
X75874061Y-39358349D02*
X75802632Y-39501206D01*
X75802632Y-39501206D02*
X75731203Y-39786921D01*
X75731203Y-39786921D02*
X75731203Y-40144064D01*
X75731203Y-40144064D02*
X75802632Y-40429778D01*
X75802632Y-40429778D02*
X75874061Y-40572635D01*
X75874061Y-40572635D02*
X75945489Y-40644064D01*
X75945489Y-40644064D02*
X76088346Y-40715492D01*
X76088346Y-40715492D02*
X76231203Y-40715492D01*
X76231203Y-40715492D02*
X76374061Y-40644064D01*
X76374061Y-40644064D02*
X76445489Y-40572635D01*
X76445489Y-40572635D02*
X76516918Y-40429778D01*
X76516918Y-40429778D02*
X76588346Y-40144064D01*
X76588346Y-40144064D02*
X76588346Y-39786921D01*
X76588346Y-39786921D02*
X76516918Y-39501206D01*
X76516918Y-39501206D02*
X76445489Y-39358349D01*
X76445489Y-39358349D02*
X76374061Y-39286921D01*
X76374061Y-39286921D02*
X76231203Y-39215492D01*
X75159775Y-39358349D02*
X75088347Y-39286921D01*
X75088347Y-39286921D02*
X74945490Y-39215492D01*
X74945490Y-39215492D02*
X74588347Y-39215492D01*
X74588347Y-39215492D02*
X74445490Y-39286921D01*
X74445490Y-39286921D02*
X74374061Y-39358349D01*
X74374061Y-39358349D02*
X74302632Y-39501206D01*
X74302632Y-39501206D02*
X74302632Y-39644064D01*
X74302632Y-39644064D02*
X74374061Y-39858349D01*
X74374061Y-39858349D02*
X75231204Y-40715492D01*
X75231204Y-40715492D02*
X74302632Y-40715492D01*
X73016919Y-39715492D02*
X73016919Y-40715492D01*
X73374061Y-39144064D02*
X73731204Y-40215492D01*
X73731204Y-40215492D02*
X72802633Y-40215492D01*
X72231205Y-40572635D02*
X72159776Y-40644064D01*
X72159776Y-40644064D02*
X72231205Y-40715492D01*
X72231205Y-40715492D02*
X72302633Y-40644064D01*
X72302633Y-40644064D02*
X72231205Y-40572635D01*
X72231205Y-40572635D02*
X72231205Y-40715492D01*
X71231204Y-39215492D02*
X71088347Y-39215492D01*
X71088347Y-39215492D02*
X70945490Y-39286921D01*
X70945490Y-39286921D02*
X70874062Y-39358349D01*
X70874062Y-39358349D02*
X70802633Y-39501206D01*
X70802633Y-39501206D02*
X70731204Y-39786921D01*
X70731204Y-39786921D02*
X70731204Y-40144064D01*
X70731204Y-40144064D02*
X70802633Y-40429778D01*
X70802633Y-40429778D02*
X70874062Y-40572635D01*
X70874062Y-40572635D02*
X70945490Y-40644064D01*
X70945490Y-40644064D02*
X71088347Y-40715492D01*
X71088347Y-40715492D02*
X71231204Y-40715492D01*
X71231204Y-40715492D02*
X71374062Y-40644064D01*
X71374062Y-40644064D02*
X71445490Y-40572635D01*
X71445490Y-40572635D02*
X71516919Y-40429778D01*
X71516919Y-40429778D02*
X71588347Y-40144064D01*
X71588347Y-40144064D02*
X71588347Y-39786921D01*
X71588347Y-39786921D02*
X71516919Y-39501206D01*
X71516919Y-39501206D02*
X71445490Y-39358349D01*
X71445490Y-39358349D02*
X71374062Y-39286921D01*
X71374062Y-39286921D02*
X71231204Y-39215492D01*
X69874062Y-39858349D02*
X70016919Y-39786921D01*
X70016919Y-39786921D02*
X70088348Y-39715492D01*
X70088348Y-39715492D02*
X70159776Y-39572635D01*
X70159776Y-39572635D02*
X70159776Y-39501206D01*
X70159776Y-39501206D02*
X70088348Y-39358349D01*
X70088348Y-39358349D02*
X70016919Y-39286921D01*
X70016919Y-39286921D02*
X69874062Y-39215492D01*
X69874062Y-39215492D02*
X69588348Y-39215492D01*
X69588348Y-39215492D02*
X69445491Y-39286921D01*
X69445491Y-39286921D02*
X69374062Y-39358349D01*
X69374062Y-39358349D02*
X69302633Y-39501206D01*
X69302633Y-39501206D02*
X69302633Y-39572635D01*
X69302633Y-39572635D02*
X69374062Y-39715492D01*
X69374062Y-39715492D02*
X69445491Y-39786921D01*
X69445491Y-39786921D02*
X69588348Y-39858349D01*
X69588348Y-39858349D02*
X69874062Y-39858349D01*
X69874062Y-39858349D02*
X70016919Y-39929778D01*
X70016919Y-39929778D02*
X70088348Y-40001206D01*
X70088348Y-40001206D02*
X70159776Y-40144064D01*
X70159776Y-40144064D02*
X70159776Y-40429778D01*
X70159776Y-40429778D02*
X70088348Y-40572635D01*
X70088348Y-40572635D02*
X70016919Y-40644064D01*
X70016919Y-40644064D02*
X69874062Y-40715492D01*
X69874062Y-40715492D02*
X69588348Y-40715492D01*
X69588348Y-40715492D02*
X69445491Y-40644064D01*
X69445491Y-40644064D02*
X69374062Y-40572635D01*
X69374062Y-40572635D02*
X69302633Y-40429778D01*
X69302633Y-40429778D02*
X69302633Y-40144064D01*
X69302633Y-40144064D02*
X69374062Y-40001206D01*
X69374062Y-40001206D02*
X69445491Y-39929778D01*
X69445491Y-39929778D02*
X69588348Y-39858349D01*
X68659777Y-40572635D02*
X68588348Y-40644064D01*
X68588348Y-40644064D02*
X68659777Y-40715492D01*
X68659777Y-40715492D02*
X68731205Y-40644064D01*
X68731205Y-40644064D02*
X68659777Y-40572635D01*
X68659777Y-40572635D02*
X68659777Y-40715492D01*
X68016919Y-39358349D02*
X67945491Y-39286921D01*
X67945491Y-39286921D02*
X67802634Y-39215492D01*
X67802634Y-39215492D02*
X67445491Y-39215492D01*
X67445491Y-39215492D02*
X67302634Y-39286921D01*
X67302634Y-39286921D02*
X67231205Y-39358349D01*
X67231205Y-39358349D02*
X67159776Y-39501206D01*
X67159776Y-39501206D02*
X67159776Y-39644064D01*
X67159776Y-39644064D02*
X67231205Y-39858349D01*
X67231205Y-39858349D02*
X68088348Y-40715492D01*
X68088348Y-40715492D02*
X67159776Y-40715492D01*
X65731205Y-40715492D02*
X66588348Y-40715492D01*
X66159777Y-40715492D02*
X66159777Y-39215492D01*
X66159777Y-39215492D02*
X66302634Y-39429778D01*
X66302634Y-39429778D02*
X66445491Y-39572635D01*
X66445491Y-39572635D02*
X66588348Y-39644064D01*
X85088346Y-42987551D02*
X85159774Y-43058980D01*
X85159774Y-43058980D02*
X85374060Y-43130408D01*
X85374060Y-43130408D02*
X85516917Y-43130408D01*
X85516917Y-43130408D02*
X85731203Y-43058980D01*
X85731203Y-43058980D02*
X85874060Y-42916122D01*
X85874060Y-42916122D02*
X85945489Y-42773265D01*
X85945489Y-42773265D02*
X86016917Y-42487551D01*
X86016917Y-42487551D02*
X86016917Y-42273265D01*
X86016917Y-42273265D02*
X85945489Y-41987551D01*
X85945489Y-41987551D02*
X85874060Y-41844694D01*
X85874060Y-41844694D02*
X85731203Y-41701837D01*
X85731203Y-41701837D02*
X85516917Y-41630408D01*
X85516917Y-41630408D02*
X85374060Y-41630408D01*
X85374060Y-41630408D02*
X85159774Y-41701837D01*
X85159774Y-41701837D02*
X85088346Y-41773265D01*
X84231203Y-43130408D02*
X84374060Y-43058980D01*
X84374060Y-43058980D02*
X84445489Y-42987551D01*
X84445489Y-42987551D02*
X84516917Y-42844694D01*
X84516917Y-42844694D02*
X84516917Y-42416122D01*
X84516917Y-42416122D02*
X84445489Y-42273265D01*
X84445489Y-42273265D02*
X84374060Y-42201837D01*
X84374060Y-42201837D02*
X84231203Y-42130408D01*
X84231203Y-42130408D02*
X84016917Y-42130408D01*
X84016917Y-42130408D02*
X83874060Y-42201837D01*
X83874060Y-42201837D02*
X83802632Y-42273265D01*
X83802632Y-42273265D02*
X83731203Y-42416122D01*
X83731203Y-42416122D02*
X83731203Y-42844694D01*
X83731203Y-42844694D02*
X83802632Y-42987551D01*
X83802632Y-42987551D02*
X83874060Y-43058980D01*
X83874060Y-43058980D02*
X84016917Y-43130408D01*
X84016917Y-43130408D02*
X84231203Y-43130408D01*
X83088346Y-42130408D02*
X83088346Y-43130408D01*
X83088346Y-42273265D02*
X83016917Y-42201837D01*
X83016917Y-42201837D02*
X82874060Y-42130408D01*
X82874060Y-42130408D02*
X82659774Y-42130408D01*
X82659774Y-42130408D02*
X82516917Y-42201837D01*
X82516917Y-42201837D02*
X82445489Y-42344694D01*
X82445489Y-42344694D02*
X82445489Y-43130408D01*
X81945488Y-42130408D02*
X81374060Y-42130408D01*
X81731203Y-41630408D02*
X81731203Y-42916122D01*
X81731203Y-42916122D02*
X81659774Y-43058980D01*
X81659774Y-43058980D02*
X81516917Y-43130408D01*
X81516917Y-43130408D02*
X81374060Y-43130408D01*
X79731203Y-42987551D02*
X79659774Y-43058980D01*
X79659774Y-43058980D02*
X79731203Y-43130408D01*
X79731203Y-43130408D02*
X79802631Y-43058980D01*
X79802631Y-43058980D02*
X79731203Y-42987551D01*
X79731203Y-42987551D02*
X79731203Y-43130408D01*
X79731203Y-42201837D02*
X79659774Y-42273265D01*
X79659774Y-42273265D02*
X79731203Y-42344694D01*
X79731203Y-42344694D02*
X79802631Y-42273265D01*
X79802631Y-42273265D02*
X79731203Y-42201837D01*
X79731203Y-42201837D02*
X79731203Y-42344694D01*
X77659774Y-43130408D02*
X77802631Y-43058980D01*
X77802631Y-43058980D02*
X77874060Y-42916122D01*
X77874060Y-42916122D02*
X77874060Y-41630408D01*
X76516917Y-43058980D02*
X76659774Y-43130408D01*
X76659774Y-43130408D02*
X76945489Y-43130408D01*
X76945489Y-43130408D02*
X77088346Y-43058980D01*
X77088346Y-43058980D02*
X77159774Y-42916122D01*
X77159774Y-42916122D02*
X77159774Y-42344694D01*
X77159774Y-42344694D02*
X77088346Y-42201837D01*
X77088346Y-42201837D02*
X76945489Y-42130408D01*
X76945489Y-42130408D02*
X76659774Y-42130408D01*
X76659774Y-42130408D02*
X76516917Y-42201837D01*
X76516917Y-42201837D02*
X76445489Y-42344694D01*
X76445489Y-42344694D02*
X76445489Y-42487551D01*
X76445489Y-42487551D02*
X77159774Y-42630408D01*
X75231203Y-43058980D02*
X75374060Y-43130408D01*
X75374060Y-43130408D02*
X75659775Y-43130408D01*
X75659775Y-43130408D02*
X75802632Y-43058980D01*
X75802632Y-43058980D02*
X75874060Y-42916122D01*
X75874060Y-42916122D02*
X75874060Y-42344694D01*
X75874060Y-42344694D02*
X75802632Y-42201837D01*
X75802632Y-42201837D02*
X75659775Y-42130408D01*
X75659775Y-42130408D02*
X75374060Y-42130408D01*
X75374060Y-42130408D02*
X75231203Y-42201837D01*
X75231203Y-42201837D02*
X75159775Y-42344694D01*
X75159775Y-42344694D02*
X75159775Y-42487551D01*
X75159775Y-42487551D02*
X75874060Y-42630408D01*
X73874061Y-43058980D02*
X74016918Y-43130408D01*
X74016918Y-43130408D02*
X74302632Y-43130408D01*
X74302632Y-43130408D02*
X74445489Y-43058980D01*
X74445489Y-43058980D02*
X74516918Y-42987551D01*
X74516918Y-42987551D02*
X74588346Y-42844694D01*
X74588346Y-42844694D02*
X74588346Y-42416122D01*
X74588346Y-42416122D02*
X74516918Y-42273265D01*
X74516918Y-42273265D02*
X74445489Y-42201837D01*
X74445489Y-42201837D02*
X74302632Y-42130408D01*
X74302632Y-42130408D02*
X74016918Y-42130408D01*
X74016918Y-42130408D02*
X73874061Y-42201837D01*
X72588347Y-42130408D02*
X72588347Y-43130408D01*
X73231204Y-42130408D02*
X73231204Y-42916122D01*
X73231204Y-42916122D02*
X73159775Y-43058980D01*
X73159775Y-43058980D02*
X73016918Y-43130408D01*
X73016918Y-43130408D02*
X72802632Y-43130408D01*
X72802632Y-43130408D02*
X72659775Y-43058980D01*
X72659775Y-43058980D02*
X72588347Y-42987551D01*
X71874061Y-43130408D02*
X71874061Y-42130408D01*
X71874061Y-42416122D02*
X71802632Y-42273265D01*
X71802632Y-42273265D02*
X71731204Y-42201837D01*
X71731204Y-42201837D02*
X71588346Y-42130408D01*
X71588346Y-42130408D02*
X71445489Y-42130408D01*
X70945490Y-43130408D02*
X70945490Y-42130408D01*
X70945490Y-42416122D02*
X70874061Y-42273265D01*
X70874061Y-42273265D02*
X70802633Y-42201837D01*
X70802633Y-42201837D02*
X70659775Y-42130408D01*
X70659775Y-42130408D02*
X70516918Y-42130408D01*
X69445490Y-43058980D02*
X69588347Y-43130408D01*
X69588347Y-43130408D02*
X69874062Y-43130408D01*
X69874062Y-43130408D02*
X70016919Y-43058980D01*
X70016919Y-43058980D02*
X70088347Y-42916122D01*
X70088347Y-42916122D02*
X70088347Y-42344694D01*
X70088347Y-42344694D02*
X70016919Y-42201837D01*
X70016919Y-42201837D02*
X69874062Y-42130408D01*
X69874062Y-42130408D02*
X69588347Y-42130408D01*
X69588347Y-42130408D02*
X69445490Y-42201837D01*
X69445490Y-42201837D02*
X69374062Y-42344694D01*
X69374062Y-42344694D02*
X69374062Y-42487551D01*
X69374062Y-42487551D02*
X70088347Y-42630408D01*
X68731205Y-42130408D02*
X68731205Y-43130408D01*
X68731205Y-42273265D02*
X68659776Y-42201837D01*
X68659776Y-42201837D02*
X68516919Y-42130408D01*
X68516919Y-42130408D02*
X68302633Y-42130408D01*
X68302633Y-42130408D02*
X68159776Y-42201837D01*
X68159776Y-42201837D02*
X68088348Y-42344694D01*
X68088348Y-42344694D02*
X68088348Y-43130408D01*
X67588347Y-42130408D02*
X67016919Y-42130408D01*
X67374062Y-41630408D02*
X67374062Y-42916122D01*
X67374062Y-42916122D02*
X67302633Y-43058980D01*
X67302633Y-43058980D02*
X67159776Y-43130408D01*
X67159776Y-43130408D02*
X67016919Y-43130408D01*
X66231204Y-41630408D02*
X66088347Y-41630408D01*
X66088347Y-41630408D02*
X65945490Y-41701837D01*
X65945490Y-41701837D02*
X65874062Y-41773265D01*
X65874062Y-41773265D02*
X65802633Y-41916122D01*
X65802633Y-41916122D02*
X65731204Y-42201837D01*
X65731204Y-42201837D02*
X65731204Y-42558980D01*
X65731204Y-42558980D02*
X65802633Y-42844694D01*
X65802633Y-42844694D02*
X65874062Y-42987551D01*
X65874062Y-42987551D02*
X65945490Y-43058980D01*
X65945490Y-43058980D02*
X66088347Y-43130408D01*
X66088347Y-43130408D02*
X66231204Y-43130408D01*
X66231204Y-43130408D02*
X66374062Y-43058980D01*
X66374062Y-43058980D02*
X66445490Y-42987551D01*
X66445490Y-42987551D02*
X66516919Y-42844694D01*
X66516919Y-42844694D02*
X66588347Y-42558980D01*
X66588347Y-42558980D02*
X66588347Y-42201837D01*
X66588347Y-42201837D02*
X66516919Y-41916122D01*
X66516919Y-41916122D02*
X66445490Y-41773265D01*
X66445490Y-41773265D02*
X66374062Y-41701837D01*
X66374062Y-41701837D02*
X66231204Y-41630408D01*
X64445491Y-42130408D02*
X64445491Y-43130408D01*
X64802633Y-41558980D02*
X65159776Y-42630408D01*
X65159776Y-42630408D02*
X64231205Y-42630408D01*
X62731205Y-42416122D02*
X62802634Y-42344694D01*
X62802634Y-42344694D02*
X62945491Y-42273265D01*
X62945491Y-42273265D02*
X63088348Y-42273265D01*
X63088348Y-42273265D02*
X63231205Y-42344694D01*
X63231205Y-42344694D02*
X63302634Y-42416122D01*
X63302634Y-42416122D02*
X63374062Y-42558980D01*
X63374062Y-42558980D02*
X63374062Y-42701837D01*
X63374062Y-42701837D02*
X63302634Y-42844694D01*
X63302634Y-42844694D02*
X63231205Y-42916122D01*
X63231205Y-42916122D02*
X63088348Y-42987551D01*
X63088348Y-42987551D02*
X62945491Y-42987551D01*
X62945491Y-42987551D02*
X62802634Y-42916122D01*
X62802634Y-42916122D02*
X62731205Y-42844694D01*
X62731205Y-42273265D02*
X62731205Y-42844694D01*
X62731205Y-42844694D02*
X62659777Y-42916122D01*
X62659777Y-42916122D02*
X62588348Y-42916122D01*
X62588348Y-42916122D02*
X62445491Y-42844694D01*
X62445491Y-42844694D02*
X62374062Y-42701837D01*
X62374062Y-42701837D02*
X62374062Y-42344694D01*
X62374062Y-42344694D02*
X62516920Y-42130408D01*
X62516920Y-42130408D02*
X62731205Y-41987551D01*
X62731205Y-41987551D02*
X63016920Y-41916122D01*
X63016920Y-41916122D02*
X63302634Y-41987551D01*
X63302634Y-41987551D02*
X63516920Y-42130408D01*
X63516920Y-42130408D02*
X63659777Y-42344694D01*
X63659777Y-42344694D02*
X63731205Y-42630408D01*
X63731205Y-42630408D02*
X63659777Y-42916122D01*
X63659777Y-42916122D02*
X63516920Y-43130408D01*
X63516920Y-43130408D02*
X63302634Y-43273265D01*
X63302634Y-43273265D02*
X63016920Y-43344694D01*
X63016920Y-43344694D02*
X62731205Y-43273265D01*
X62731205Y-43273265D02*
X62516920Y-43130408D01*
X61731206Y-43130408D02*
X61731206Y-42130408D01*
X61731206Y-41630408D02*
X61802634Y-41701837D01*
X61802634Y-41701837D02*
X61731206Y-41773265D01*
X61731206Y-41773265D02*
X61659777Y-41701837D01*
X61659777Y-41701837D02*
X61731206Y-41630408D01*
X61731206Y-41630408D02*
X61731206Y-41773265D01*
X61016920Y-42130408D02*
X61016920Y-43130408D01*
X61016920Y-42273265D02*
X60945491Y-42201837D01*
X60945491Y-42201837D02*
X60802634Y-42130408D01*
X60802634Y-42130408D02*
X60588348Y-42130408D01*
X60588348Y-42130408D02*
X60445491Y-42201837D01*
X60445491Y-42201837D02*
X60374063Y-42344694D01*
X60374063Y-42344694D02*
X60374063Y-43130408D01*
X59659777Y-43130408D02*
X59659777Y-41630408D01*
X59016920Y-43130408D02*
X59016920Y-42344694D01*
X59016920Y-42344694D02*
X59088348Y-42201837D01*
X59088348Y-42201837D02*
X59231205Y-42130408D01*
X59231205Y-42130408D02*
X59445491Y-42130408D01*
X59445491Y-42130408D02*
X59588348Y-42201837D01*
X59588348Y-42201837D02*
X59659777Y-42273265D01*
X57659777Y-43130408D02*
X57659777Y-42344694D01*
X57659777Y-42344694D02*
X57731205Y-42201837D01*
X57731205Y-42201837D02*
X57874062Y-42130408D01*
X57874062Y-42130408D02*
X58159777Y-42130408D01*
X58159777Y-42130408D02*
X58302634Y-42201837D01*
X57659777Y-43058980D02*
X57802634Y-43130408D01*
X57802634Y-43130408D02*
X58159777Y-43130408D01*
X58159777Y-43130408D02*
X58302634Y-43058980D01*
X58302634Y-43058980D02*
X58374062Y-42916122D01*
X58374062Y-42916122D02*
X58374062Y-42773265D01*
X58374062Y-42773265D02*
X58302634Y-42630408D01*
X58302634Y-42630408D02*
X58159777Y-42558980D01*
X58159777Y-42558980D02*
X57802634Y-42558980D01*
X57802634Y-42558980D02*
X57659777Y-42487551D01*
X56945491Y-42987551D02*
X56874062Y-43058980D01*
X56874062Y-43058980D02*
X56945491Y-43130408D01*
X56945491Y-43130408D02*
X57016919Y-43058980D01*
X57016919Y-43058980D02*
X56945491Y-42987551D01*
X56945491Y-42987551D02*
X56945491Y-43130408D01*
X55659776Y-43058980D02*
X55802633Y-43130408D01*
X55802633Y-43130408D02*
X56088348Y-43130408D01*
X56088348Y-43130408D02*
X56231205Y-43058980D01*
X56231205Y-43058980D02*
X56302633Y-42916122D01*
X56302633Y-42916122D02*
X56302633Y-42344694D01*
X56302633Y-42344694D02*
X56231205Y-42201837D01*
X56231205Y-42201837D02*
X56088348Y-42130408D01*
X56088348Y-42130408D02*
X55802633Y-42130408D01*
X55802633Y-42130408D02*
X55659776Y-42201837D01*
X55659776Y-42201837D02*
X55588348Y-42344694D01*
X55588348Y-42344694D02*
X55588348Y-42487551D01*
X55588348Y-42487551D02*
X56302633Y-42630408D01*
X54302634Y-43130408D02*
X54302634Y-41630408D01*
X54302634Y-43058980D02*
X54445491Y-43130408D01*
X54445491Y-43130408D02*
X54731205Y-43130408D01*
X54731205Y-43130408D02*
X54874062Y-43058980D01*
X54874062Y-43058980D02*
X54945491Y-42987551D01*
X54945491Y-42987551D02*
X55016919Y-42844694D01*
X55016919Y-42844694D02*
X55016919Y-42416122D01*
X55016919Y-42416122D02*
X54945491Y-42273265D01*
X54945491Y-42273265D02*
X54874062Y-42201837D01*
X54874062Y-42201837D02*
X54731205Y-42130408D01*
X54731205Y-42130408D02*
X54445491Y-42130408D01*
X54445491Y-42130408D02*
X54302634Y-42201837D01*
X52945491Y-42130408D02*
X52945491Y-43130408D01*
X53588348Y-42130408D02*
X53588348Y-42916122D01*
X53588348Y-42916122D02*
X53516919Y-43058980D01*
X53516919Y-43058980D02*
X53374062Y-43130408D01*
X53374062Y-43130408D02*
X53159776Y-43130408D01*
X53159776Y-43130408D02*
X53016919Y-43058980D01*
X53016919Y-43058980D02*
X52945491Y-42987551D01*
D12*
X81329819Y-50285714D02*
X80329819Y-50285714D01*
X80329819Y-50285714D02*
X80329819Y-50523809D01*
X80329819Y-50523809D02*
X80377438Y-50666666D01*
X80377438Y-50666666D02*
X80472676Y-50761904D01*
X80472676Y-50761904D02*
X80567914Y-50809523D01*
X80567914Y-50809523D02*
X80758390Y-50857142D01*
X80758390Y-50857142D02*
X80901247Y-50857142D01*
X80901247Y-50857142D02*
X81091723Y-50809523D01*
X81091723Y-50809523D02*
X81186961Y-50761904D01*
X81186961Y-50761904D02*
X81282200Y-50666666D01*
X81282200Y-50666666D02*
X81329819Y-50523809D01*
X81329819Y-50523809D02*
X81329819Y-50285714D01*
X80329819Y-51190476D02*
X80329819Y-51809523D01*
X80329819Y-51809523D02*
X80710771Y-51476190D01*
X80710771Y-51476190D02*
X80710771Y-51619047D01*
X80710771Y-51619047D02*
X80758390Y-51714285D01*
X80758390Y-51714285D02*
X80806009Y-51761904D01*
X80806009Y-51761904D02*
X80901247Y-51809523D01*
X80901247Y-51809523D02*
X81139342Y-51809523D01*
X81139342Y-51809523D02*
X81234580Y-51761904D01*
X81234580Y-51761904D02*
X81282200Y-51714285D01*
X81282200Y-51714285D02*
X81329819Y-51619047D01*
X81329819Y-51619047D02*
X81329819Y-51333333D01*
X81329819Y-51333333D02*
X81282200Y-51238095D01*
X81282200Y-51238095D02*
X81234580Y-51190476D01*
X80329819Y-52714285D02*
X80329819Y-52238095D01*
X80329819Y-52238095D02*
X80806009Y-52190476D01*
X80806009Y-52190476D02*
X80758390Y-52238095D01*
X80758390Y-52238095D02*
X80710771Y-52333333D01*
X80710771Y-52333333D02*
X80710771Y-52571428D01*
X80710771Y-52571428D02*
X80758390Y-52666666D01*
X80758390Y-52666666D02*
X80806009Y-52714285D01*
X80806009Y-52714285D02*
X80901247Y-52761904D01*
X80901247Y-52761904D02*
X81139342Y-52761904D01*
X81139342Y-52761904D02*
X81234580Y-52714285D01*
X81234580Y-52714285D02*
X81282200Y-52666666D01*
X81282200Y-52666666D02*
X81329819Y-52571428D01*
X81329819Y-52571428D02*
X81329819Y-52333333D01*
X81329819Y-52333333D02*
X81282200Y-52238095D01*
X81282200Y-52238095D02*
X81234580Y-52190476D01*
X39829819Y-134785714D02*
X38829819Y-134785714D01*
X38829819Y-134785714D02*
X38829819Y-135023809D01*
X38829819Y-135023809D02*
X38877438Y-135166666D01*
X38877438Y-135166666D02*
X38972676Y-135261904D01*
X38972676Y-135261904D02*
X39067914Y-135309523D01*
X39067914Y-135309523D02*
X39258390Y-135357142D01*
X39258390Y-135357142D02*
X39401247Y-135357142D01*
X39401247Y-135357142D02*
X39591723Y-135309523D01*
X39591723Y-135309523D02*
X39686961Y-135261904D01*
X39686961Y-135261904D02*
X39782200Y-135166666D01*
X39782200Y-135166666D02*
X39829819Y-135023809D01*
X39829819Y-135023809D02*
X39829819Y-134785714D01*
X38925057Y-135738095D02*
X38877438Y-135785714D01*
X38877438Y-135785714D02*
X38829819Y-135880952D01*
X38829819Y-135880952D02*
X38829819Y-136119047D01*
X38829819Y-136119047D02*
X38877438Y-136214285D01*
X38877438Y-136214285D02*
X38925057Y-136261904D01*
X38925057Y-136261904D02*
X39020295Y-136309523D01*
X39020295Y-136309523D02*
X39115533Y-136309523D01*
X39115533Y-136309523D02*
X39258390Y-136261904D01*
X39258390Y-136261904D02*
X39829819Y-135690476D01*
X39829819Y-135690476D02*
X39829819Y-136309523D01*
X39163152Y-137166666D02*
X39829819Y-137166666D01*
X38782200Y-136928571D02*
X39496485Y-136690476D01*
X39496485Y-136690476D02*
X39496485Y-137309523D01*
X77329819Y-22285714D02*
X76329819Y-22285714D01*
X76329819Y-22285714D02*
X76329819Y-22523809D01*
X76329819Y-22523809D02*
X76377438Y-22666666D01*
X76377438Y-22666666D02*
X76472676Y-22761904D01*
X76472676Y-22761904D02*
X76567914Y-22809523D01*
X76567914Y-22809523D02*
X76758390Y-22857142D01*
X76758390Y-22857142D02*
X76901247Y-22857142D01*
X76901247Y-22857142D02*
X77091723Y-22809523D01*
X77091723Y-22809523D02*
X77186961Y-22761904D01*
X77186961Y-22761904D02*
X77282200Y-22666666D01*
X77282200Y-22666666D02*
X77329819Y-22523809D01*
X77329819Y-22523809D02*
X77329819Y-22285714D01*
X76329819Y-23190476D02*
X76329819Y-23809523D01*
X76329819Y-23809523D02*
X76710771Y-23476190D01*
X76710771Y-23476190D02*
X76710771Y-23619047D01*
X76710771Y-23619047D02*
X76758390Y-23714285D01*
X76758390Y-23714285D02*
X76806009Y-23761904D01*
X76806009Y-23761904D02*
X76901247Y-23809523D01*
X76901247Y-23809523D02*
X77139342Y-23809523D01*
X77139342Y-23809523D02*
X77234580Y-23761904D01*
X77234580Y-23761904D02*
X77282200Y-23714285D01*
X77282200Y-23714285D02*
X77329819Y-23619047D01*
X77329819Y-23619047D02*
X77329819Y-23333333D01*
X77329819Y-23333333D02*
X77282200Y-23238095D01*
X77282200Y-23238095D02*
X77234580Y-23190476D01*
X76663152Y-24666666D02*
X77329819Y-24666666D01*
X76282200Y-24428571D02*
X76996485Y-24190476D01*
X76996485Y-24190476D02*
X76996485Y-24809523D01*
X36079819Y-13261905D02*
X35079819Y-13261905D01*
X35079819Y-13261905D02*
X35079819Y-13500000D01*
X35079819Y-13500000D02*
X35127438Y-13642857D01*
X35127438Y-13642857D02*
X35222676Y-13738095D01*
X35222676Y-13738095D02*
X35317914Y-13785714D01*
X35317914Y-13785714D02*
X35508390Y-13833333D01*
X35508390Y-13833333D02*
X35651247Y-13833333D01*
X35651247Y-13833333D02*
X35841723Y-13785714D01*
X35841723Y-13785714D02*
X35936961Y-13738095D01*
X35936961Y-13738095D02*
X36032200Y-13642857D01*
X36032200Y-13642857D02*
X36079819Y-13500000D01*
X36079819Y-13500000D02*
X36079819Y-13261905D01*
X36079819Y-14309524D02*
X36079819Y-14500000D01*
X36079819Y-14500000D02*
X36032200Y-14595238D01*
X36032200Y-14595238D02*
X35984580Y-14642857D01*
X35984580Y-14642857D02*
X35841723Y-14738095D01*
X35841723Y-14738095D02*
X35651247Y-14785714D01*
X35651247Y-14785714D02*
X35270295Y-14785714D01*
X35270295Y-14785714D02*
X35175057Y-14738095D01*
X35175057Y-14738095D02*
X35127438Y-14690476D01*
X35127438Y-14690476D02*
X35079819Y-14595238D01*
X35079819Y-14595238D02*
X35079819Y-14404762D01*
X35079819Y-14404762D02*
X35127438Y-14309524D01*
X35127438Y-14309524D02*
X35175057Y-14261905D01*
X35175057Y-14261905D02*
X35270295Y-14214286D01*
X35270295Y-14214286D02*
X35508390Y-14214286D01*
X35508390Y-14214286D02*
X35603628Y-14261905D01*
X35603628Y-14261905D02*
X35651247Y-14309524D01*
X35651247Y-14309524D02*
X35698866Y-14404762D01*
X35698866Y-14404762D02*
X35698866Y-14595238D01*
X35698866Y-14595238D02*
X35651247Y-14690476D01*
X35651247Y-14690476D02*
X35603628Y-14738095D01*
X35603628Y-14738095D02*
X35508390Y-14785714D01*
X114829819Y-22285714D02*
X113829819Y-22285714D01*
X113829819Y-22285714D02*
X113829819Y-22523809D01*
X113829819Y-22523809D02*
X113877438Y-22666666D01*
X113877438Y-22666666D02*
X113972676Y-22761904D01*
X113972676Y-22761904D02*
X114067914Y-22809523D01*
X114067914Y-22809523D02*
X114258390Y-22857142D01*
X114258390Y-22857142D02*
X114401247Y-22857142D01*
X114401247Y-22857142D02*
X114591723Y-22809523D01*
X114591723Y-22809523D02*
X114686961Y-22761904D01*
X114686961Y-22761904D02*
X114782200Y-22666666D01*
X114782200Y-22666666D02*
X114829819Y-22523809D01*
X114829819Y-22523809D02*
X114829819Y-22285714D01*
X113829819Y-23761904D02*
X113829819Y-23285714D01*
X113829819Y-23285714D02*
X114306009Y-23238095D01*
X114306009Y-23238095D02*
X114258390Y-23285714D01*
X114258390Y-23285714D02*
X114210771Y-23380952D01*
X114210771Y-23380952D02*
X114210771Y-23619047D01*
X114210771Y-23619047D02*
X114258390Y-23714285D01*
X114258390Y-23714285D02*
X114306009Y-23761904D01*
X114306009Y-23761904D02*
X114401247Y-23809523D01*
X114401247Y-23809523D02*
X114639342Y-23809523D01*
X114639342Y-23809523D02*
X114734580Y-23761904D01*
X114734580Y-23761904D02*
X114782200Y-23714285D01*
X114782200Y-23714285D02*
X114829819Y-23619047D01*
X114829819Y-23619047D02*
X114829819Y-23380952D01*
X114829819Y-23380952D02*
X114782200Y-23285714D01*
X114782200Y-23285714D02*
X114734580Y-23238095D01*
X113829819Y-24428571D02*
X113829819Y-24523809D01*
X113829819Y-24523809D02*
X113877438Y-24619047D01*
X113877438Y-24619047D02*
X113925057Y-24666666D01*
X113925057Y-24666666D02*
X114020295Y-24714285D01*
X114020295Y-24714285D02*
X114210771Y-24761904D01*
X114210771Y-24761904D02*
X114448866Y-24761904D01*
X114448866Y-24761904D02*
X114639342Y-24714285D01*
X114639342Y-24714285D02*
X114734580Y-24666666D01*
X114734580Y-24666666D02*
X114782200Y-24619047D01*
X114782200Y-24619047D02*
X114829819Y-24523809D01*
X114829819Y-24523809D02*
X114829819Y-24428571D01*
X114829819Y-24428571D02*
X114782200Y-24333333D01*
X114782200Y-24333333D02*
X114734580Y-24285714D01*
X114734580Y-24285714D02*
X114639342Y-24238095D01*
X114639342Y-24238095D02*
X114448866Y-24190476D01*
X114448866Y-24190476D02*
X114210771Y-24190476D01*
X114210771Y-24190476D02*
X114020295Y-24238095D01*
X114020295Y-24238095D02*
X113925057Y-24285714D01*
X113925057Y-24285714D02*
X113877438Y-24333333D01*
X113877438Y-24333333D02*
X113829819Y-24428571D01*
X111079819Y-12785714D02*
X110079819Y-12785714D01*
X110079819Y-12785714D02*
X110079819Y-13023809D01*
X110079819Y-13023809D02*
X110127438Y-13166666D01*
X110127438Y-13166666D02*
X110222676Y-13261904D01*
X110222676Y-13261904D02*
X110317914Y-13309523D01*
X110317914Y-13309523D02*
X110508390Y-13357142D01*
X110508390Y-13357142D02*
X110651247Y-13357142D01*
X110651247Y-13357142D02*
X110841723Y-13309523D01*
X110841723Y-13309523D02*
X110936961Y-13261904D01*
X110936961Y-13261904D02*
X111032200Y-13166666D01*
X111032200Y-13166666D02*
X111079819Y-13023809D01*
X111079819Y-13023809D02*
X111079819Y-12785714D01*
X110413152Y-14214285D02*
X111079819Y-14214285D01*
X110032200Y-13976190D02*
X110746485Y-13738095D01*
X110746485Y-13738095D02*
X110746485Y-14357142D01*
X111079819Y-15261904D02*
X111079819Y-14690476D01*
X111079819Y-14976190D02*
X110079819Y-14976190D01*
X110079819Y-14976190D02*
X110222676Y-14880952D01*
X110222676Y-14880952D02*
X110317914Y-14785714D01*
X110317914Y-14785714D02*
X110365533Y-14690476D01*
X69579819Y-97285714D02*
X68579819Y-97285714D01*
X68579819Y-97285714D02*
X68579819Y-97523809D01*
X68579819Y-97523809D02*
X68627438Y-97666666D01*
X68627438Y-97666666D02*
X68722676Y-97761904D01*
X68722676Y-97761904D02*
X68817914Y-97809523D01*
X68817914Y-97809523D02*
X69008390Y-97857142D01*
X69008390Y-97857142D02*
X69151247Y-97857142D01*
X69151247Y-97857142D02*
X69341723Y-97809523D01*
X69341723Y-97809523D02*
X69436961Y-97761904D01*
X69436961Y-97761904D02*
X69532200Y-97666666D01*
X69532200Y-97666666D02*
X69579819Y-97523809D01*
X69579819Y-97523809D02*
X69579819Y-97285714D01*
X68579819Y-98190476D02*
X68579819Y-98809523D01*
X68579819Y-98809523D02*
X68960771Y-98476190D01*
X68960771Y-98476190D02*
X68960771Y-98619047D01*
X68960771Y-98619047D02*
X69008390Y-98714285D01*
X69008390Y-98714285D02*
X69056009Y-98761904D01*
X69056009Y-98761904D02*
X69151247Y-98809523D01*
X69151247Y-98809523D02*
X69389342Y-98809523D01*
X69389342Y-98809523D02*
X69484580Y-98761904D01*
X69484580Y-98761904D02*
X69532200Y-98714285D01*
X69532200Y-98714285D02*
X69579819Y-98619047D01*
X69579819Y-98619047D02*
X69579819Y-98333333D01*
X69579819Y-98333333D02*
X69532200Y-98238095D01*
X69532200Y-98238095D02*
X69484580Y-98190476D01*
X68579819Y-99428571D02*
X68579819Y-99523809D01*
X68579819Y-99523809D02*
X68627438Y-99619047D01*
X68627438Y-99619047D02*
X68675057Y-99666666D01*
X68675057Y-99666666D02*
X68770295Y-99714285D01*
X68770295Y-99714285D02*
X68960771Y-99761904D01*
X68960771Y-99761904D02*
X69198866Y-99761904D01*
X69198866Y-99761904D02*
X69389342Y-99714285D01*
X69389342Y-99714285D02*
X69484580Y-99666666D01*
X69484580Y-99666666D02*
X69532200Y-99619047D01*
X69532200Y-99619047D02*
X69579819Y-99523809D01*
X69579819Y-99523809D02*
X69579819Y-99428571D01*
X69579819Y-99428571D02*
X69532200Y-99333333D01*
X69532200Y-99333333D02*
X69484580Y-99285714D01*
X69484580Y-99285714D02*
X69389342Y-99238095D01*
X69389342Y-99238095D02*
X69198866Y-99190476D01*
X69198866Y-99190476D02*
X68960771Y-99190476D01*
X68960771Y-99190476D02*
X68770295Y-99238095D01*
X68770295Y-99238095D02*
X68675057Y-99285714D01*
X68675057Y-99285714D02*
X68627438Y-99333333D01*
X68627438Y-99333333D02*
X68579819Y-99428571D01*
X63234819Y-74666666D02*
X63949104Y-74666666D01*
X63949104Y-74666666D02*
X64091961Y-74619047D01*
X64091961Y-74619047D02*
X64187200Y-74523809D01*
X64187200Y-74523809D02*
X64234819Y-74380952D01*
X64234819Y-74380952D02*
X64234819Y-74285714D01*
X63330057Y-75095238D02*
X63282438Y-75142857D01*
X63282438Y-75142857D02*
X63234819Y-75238095D01*
X63234819Y-75238095D02*
X63234819Y-75476190D01*
X63234819Y-75476190D02*
X63282438Y-75571428D01*
X63282438Y-75571428D02*
X63330057Y-75619047D01*
X63330057Y-75619047D02*
X63425295Y-75666666D01*
X63425295Y-75666666D02*
X63520533Y-75666666D01*
X63520533Y-75666666D02*
X63663390Y-75619047D01*
X63663390Y-75619047D02*
X64234819Y-75047619D01*
X64234819Y-75047619D02*
X64234819Y-75666666D01*
X81329819Y-87785714D02*
X80329819Y-87785714D01*
X80329819Y-87785714D02*
X80329819Y-88023809D01*
X80329819Y-88023809D02*
X80377438Y-88166666D01*
X80377438Y-88166666D02*
X80472676Y-88261904D01*
X80472676Y-88261904D02*
X80567914Y-88309523D01*
X80567914Y-88309523D02*
X80758390Y-88357142D01*
X80758390Y-88357142D02*
X80901247Y-88357142D01*
X80901247Y-88357142D02*
X81091723Y-88309523D01*
X81091723Y-88309523D02*
X81186961Y-88261904D01*
X81186961Y-88261904D02*
X81282200Y-88166666D01*
X81282200Y-88166666D02*
X81329819Y-88023809D01*
X81329819Y-88023809D02*
X81329819Y-87785714D01*
X80329819Y-88690476D02*
X80329819Y-89309523D01*
X80329819Y-89309523D02*
X80710771Y-88976190D01*
X80710771Y-88976190D02*
X80710771Y-89119047D01*
X80710771Y-89119047D02*
X80758390Y-89214285D01*
X80758390Y-89214285D02*
X80806009Y-89261904D01*
X80806009Y-89261904D02*
X80901247Y-89309523D01*
X80901247Y-89309523D02*
X81139342Y-89309523D01*
X81139342Y-89309523D02*
X81234580Y-89261904D01*
X81234580Y-89261904D02*
X81282200Y-89214285D01*
X81282200Y-89214285D02*
X81329819Y-89119047D01*
X81329819Y-89119047D02*
X81329819Y-88833333D01*
X81329819Y-88833333D02*
X81282200Y-88738095D01*
X81282200Y-88738095D02*
X81234580Y-88690476D01*
X80329819Y-89642857D02*
X80329819Y-90309523D01*
X80329819Y-90309523D02*
X81329819Y-89880952D01*
X32079819Y-22285714D02*
X31079819Y-22285714D01*
X31079819Y-22285714D02*
X31079819Y-22523809D01*
X31079819Y-22523809D02*
X31127438Y-22666666D01*
X31127438Y-22666666D02*
X31222676Y-22761904D01*
X31222676Y-22761904D02*
X31317914Y-22809523D01*
X31317914Y-22809523D02*
X31508390Y-22857142D01*
X31508390Y-22857142D02*
X31651247Y-22857142D01*
X31651247Y-22857142D02*
X31841723Y-22809523D01*
X31841723Y-22809523D02*
X31936961Y-22761904D01*
X31936961Y-22761904D02*
X32032200Y-22666666D01*
X32032200Y-22666666D02*
X32079819Y-22523809D01*
X32079819Y-22523809D02*
X32079819Y-22285714D01*
X32079819Y-23809523D02*
X32079819Y-23238095D01*
X32079819Y-23523809D02*
X31079819Y-23523809D01*
X31079819Y-23523809D02*
X31222676Y-23428571D01*
X31222676Y-23428571D02*
X31317914Y-23333333D01*
X31317914Y-23333333D02*
X31365533Y-23238095D01*
X31079819Y-24428571D02*
X31079819Y-24523809D01*
X31079819Y-24523809D02*
X31127438Y-24619047D01*
X31127438Y-24619047D02*
X31175057Y-24666666D01*
X31175057Y-24666666D02*
X31270295Y-24714285D01*
X31270295Y-24714285D02*
X31460771Y-24761904D01*
X31460771Y-24761904D02*
X31698866Y-24761904D01*
X31698866Y-24761904D02*
X31889342Y-24714285D01*
X31889342Y-24714285D02*
X31984580Y-24666666D01*
X31984580Y-24666666D02*
X32032200Y-24619047D01*
X32032200Y-24619047D02*
X32079819Y-24523809D01*
X32079819Y-24523809D02*
X32079819Y-24428571D01*
X32079819Y-24428571D02*
X32032200Y-24333333D01*
X32032200Y-24333333D02*
X31984580Y-24285714D01*
X31984580Y-24285714D02*
X31889342Y-24238095D01*
X31889342Y-24238095D02*
X31698866Y-24190476D01*
X31698866Y-24190476D02*
X31460771Y-24190476D01*
X31460771Y-24190476D02*
X31270295Y-24238095D01*
X31270295Y-24238095D02*
X31175057Y-24285714D01*
X31175057Y-24285714D02*
X31127438Y-24333333D01*
X31127438Y-24333333D02*
X31079819Y-24428571D01*
X43829819Y-50285714D02*
X42829819Y-50285714D01*
X42829819Y-50285714D02*
X42829819Y-50523809D01*
X42829819Y-50523809D02*
X42877438Y-50666666D01*
X42877438Y-50666666D02*
X42972676Y-50761904D01*
X42972676Y-50761904D02*
X43067914Y-50809523D01*
X43067914Y-50809523D02*
X43258390Y-50857142D01*
X43258390Y-50857142D02*
X43401247Y-50857142D01*
X43401247Y-50857142D02*
X43591723Y-50809523D01*
X43591723Y-50809523D02*
X43686961Y-50761904D01*
X43686961Y-50761904D02*
X43782200Y-50666666D01*
X43782200Y-50666666D02*
X43829819Y-50523809D01*
X43829819Y-50523809D02*
X43829819Y-50285714D01*
X43829819Y-51809523D02*
X43829819Y-51238095D01*
X43829819Y-51523809D02*
X42829819Y-51523809D01*
X42829819Y-51523809D02*
X42972676Y-51428571D01*
X42972676Y-51428571D02*
X43067914Y-51333333D01*
X43067914Y-51333333D02*
X43115533Y-51238095D01*
X43829819Y-52285714D02*
X43829819Y-52476190D01*
X43829819Y-52476190D02*
X43782200Y-52571428D01*
X43782200Y-52571428D02*
X43734580Y-52619047D01*
X43734580Y-52619047D02*
X43591723Y-52714285D01*
X43591723Y-52714285D02*
X43401247Y-52761904D01*
X43401247Y-52761904D02*
X43020295Y-52761904D01*
X43020295Y-52761904D02*
X42925057Y-52714285D01*
X42925057Y-52714285D02*
X42877438Y-52666666D01*
X42877438Y-52666666D02*
X42829819Y-52571428D01*
X42829819Y-52571428D02*
X42829819Y-52380952D01*
X42829819Y-52380952D02*
X42877438Y-52285714D01*
X42877438Y-52285714D02*
X42925057Y-52238095D01*
X42925057Y-52238095D02*
X43020295Y-52190476D01*
X43020295Y-52190476D02*
X43258390Y-52190476D01*
X43258390Y-52190476D02*
X43353628Y-52238095D01*
X43353628Y-52238095D02*
X43401247Y-52285714D01*
X43401247Y-52285714D02*
X43448866Y-52380952D01*
X43448866Y-52380952D02*
X43448866Y-52571428D01*
X43448866Y-52571428D02*
X43401247Y-52666666D01*
X43401247Y-52666666D02*
X43353628Y-52714285D01*
X43353628Y-52714285D02*
X43258390Y-52761904D01*
X2329819Y-97761905D02*
X1329819Y-97761905D01*
X1329819Y-97761905D02*
X1329819Y-98000000D01*
X1329819Y-98000000D02*
X1377438Y-98142857D01*
X1377438Y-98142857D02*
X1472676Y-98238095D01*
X1472676Y-98238095D02*
X1567914Y-98285714D01*
X1567914Y-98285714D02*
X1758390Y-98333333D01*
X1758390Y-98333333D02*
X1901247Y-98333333D01*
X1901247Y-98333333D02*
X2091723Y-98285714D01*
X2091723Y-98285714D02*
X2186961Y-98238095D01*
X2186961Y-98238095D02*
X2282200Y-98142857D01*
X2282200Y-98142857D02*
X2329819Y-98000000D01*
X2329819Y-98000000D02*
X2329819Y-97761905D01*
X1329819Y-99190476D02*
X1329819Y-99000000D01*
X1329819Y-99000000D02*
X1377438Y-98904762D01*
X1377438Y-98904762D02*
X1425057Y-98857143D01*
X1425057Y-98857143D02*
X1567914Y-98761905D01*
X1567914Y-98761905D02*
X1758390Y-98714286D01*
X1758390Y-98714286D02*
X2139342Y-98714286D01*
X2139342Y-98714286D02*
X2234580Y-98761905D01*
X2234580Y-98761905D02*
X2282200Y-98809524D01*
X2282200Y-98809524D02*
X2329819Y-98904762D01*
X2329819Y-98904762D02*
X2329819Y-99095238D01*
X2329819Y-99095238D02*
X2282200Y-99190476D01*
X2282200Y-99190476D02*
X2234580Y-99238095D01*
X2234580Y-99238095D02*
X2139342Y-99285714D01*
X2139342Y-99285714D02*
X1901247Y-99285714D01*
X1901247Y-99285714D02*
X1806009Y-99238095D01*
X1806009Y-99238095D02*
X1758390Y-99190476D01*
X1758390Y-99190476D02*
X1710771Y-99095238D01*
X1710771Y-99095238D02*
X1710771Y-98904762D01*
X1710771Y-98904762D02*
X1758390Y-98809524D01*
X1758390Y-98809524D02*
X1806009Y-98761905D01*
X1806009Y-98761905D02*
X1901247Y-98714286D01*
X148579819Y-87785714D02*
X147579819Y-87785714D01*
X147579819Y-87785714D02*
X147579819Y-88023809D01*
X147579819Y-88023809D02*
X147627438Y-88166666D01*
X147627438Y-88166666D02*
X147722676Y-88261904D01*
X147722676Y-88261904D02*
X147817914Y-88309523D01*
X147817914Y-88309523D02*
X148008390Y-88357142D01*
X148008390Y-88357142D02*
X148151247Y-88357142D01*
X148151247Y-88357142D02*
X148341723Y-88309523D01*
X148341723Y-88309523D02*
X148436961Y-88261904D01*
X148436961Y-88261904D02*
X148532200Y-88166666D01*
X148532200Y-88166666D02*
X148579819Y-88023809D01*
X148579819Y-88023809D02*
X148579819Y-87785714D01*
X147579819Y-89214285D02*
X147579819Y-89023809D01*
X147579819Y-89023809D02*
X147627438Y-88928571D01*
X147627438Y-88928571D02*
X147675057Y-88880952D01*
X147675057Y-88880952D02*
X147817914Y-88785714D01*
X147817914Y-88785714D02*
X148008390Y-88738095D01*
X148008390Y-88738095D02*
X148389342Y-88738095D01*
X148389342Y-88738095D02*
X148484580Y-88785714D01*
X148484580Y-88785714D02*
X148532200Y-88833333D01*
X148532200Y-88833333D02*
X148579819Y-88928571D01*
X148579819Y-88928571D02*
X148579819Y-89119047D01*
X148579819Y-89119047D02*
X148532200Y-89214285D01*
X148532200Y-89214285D02*
X148484580Y-89261904D01*
X148484580Y-89261904D02*
X148389342Y-89309523D01*
X148389342Y-89309523D02*
X148151247Y-89309523D01*
X148151247Y-89309523D02*
X148056009Y-89261904D01*
X148056009Y-89261904D02*
X148008390Y-89214285D01*
X148008390Y-89214285D02*
X147960771Y-89119047D01*
X147960771Y-89119047D02*
X147960771Y-88928571D01*
X147960771Y-88928571D02*
X148008390Y-88833333D01*
X148008390Y-88833333D02*
X148056009Y-88785714D01*
X148056009Y-88785714D02*
X148151247Y-88738095D01*
X148579819Y-90261904D02*
X148579819Y-89690476D01*
X148579819Y-89976190D02*
X147579819Y-89976190D01*
X147579819Y-89976190D02*
X147722676Y-89880952D01*
X147722676Y-89880952D02*
X147817914Y-89785714D01*
X147817914Y-89785714D02*
X147865533Y-89690476D01*
X39829819Y-22285714D02*
X38829819Y-22285714D01*
X38829819Y-22285714D02*
X38829819Y-22523809D01*
X38829819Y-22523809D02*
X38877438Y-22666666D01*
X38877438Y-22666666D02*
X38972676Y-22761904D01*
X38972676Y-22761904D02*
X39067914Y-22809523D01*
X39067914Y-22809523D02*
X39258390Y-22857142D01*
X39258390Y-22857142D02*
X39401247Y-22857142D01*
X39401247Y-22857142D02*
X39591723Y-22809523D01*
X39591723Y-22809523D02*
X39686961Y-22761904D01*
X39686961Y-22761904D02*
X39782200Y-22666666D01*
X39782200Y-22666666D02*
X39829819Y-22523809D01*
X39829819Y-22523809D02*
X39829819Y-22285714D01*
X39829819Y-23809523D02*
X39829819Y-23238095D01*
X39829819Y-23523809D02*
X38829819Y-23523809D01*
X38829819Y-23523809D02*
X38972676Y-23428571D01*
X38972676Y-23428571D02*
X39067914Y-23333333D01*
X39067914Y-23333333D02*
X39115533Y-23238095D01*
X39258390Y-24380952D02*
X39210771Y-24285714D01*
X39210771Y-24285714D02*
X39163152Y-24238095D01*
X39163152Y-24238095D02*
X39067914Y-24190476D01*
X39067914Y-24190476D02*
X39020295Y-24190476D01*
X39020295Y-24190476D02*
X38925057Y-24238095D01*
X38925057Y-24238095D02*
X38877438Y-24285714D01*
X38877438Y-24285714D02*
X38829819Y-24380952D01*
X38829819Y-24380952D02*
X38829819Y-24571428D01*
X38829819Y-24571428D02*
X38877438Y-24666666D01*
X38877438Y-24666666D02*
X38925057Y-24714285D01*
X38925057Y-24714285D02*
X39020295Y-24761904D01*
X39020295Y-24761904D02*
X39067914Y-24761904D01*
X39067914Y-24761904D02*
X39163152Y-24714285D01*
X39163152Y-24714285D02*
X39210771Y-24666666D01*
X39210771Y-24666666D02*
X39258390Y-24571428D01*
X39258390Y-24571428D02*
X39258390Y-24380952D01*
X39258390Y-24380952D02*
X39306009Y-24285714D01*
X39306009Y-24285714D02*
X39353628Y-24238095D01*
X39353628Y-24238095D02*
X39448866Y-24190476D01*
X39448866Y-24190476D02*
X39639342Y-24190476D01*
X39639342Y-24190476D02*
X39734580Y-24238095D01*
X39734580Y-24238095D02*
X39782200Y-24285714D01*
X39782200Y-24285714D02*
X39829819Y-24380952D01*
X39829819Y-24380952D02*
X39829819Y-24571428D01*
X39829819Y-24571428D02*
X39782200Y-24666666D01*
X39782200Y-24666666D02*
X39734580Y-24714285D01*
X39734580Y-24714285D02*
X39639342Y-24761904D01*
X39639342Y-24761904D02*
X39448866Y-24761904D01*
X39448866Y-24761904D02*
X39353628Y-24714285D01*
X39353628Y-24714285D02*
X39306009Y-24666666D01*
X39306009Y-24666666D02*
X39258390Y-24571428D01*
X39829819Y-97285714D02*
X38829819Y-97285714D01*
X38829819Y-97285714D02*
X38829819Y-97523809D01*
X38829819Y-97523809D02*
X38877438Y-97666666D01*
X38877438Y-97666666D02*
X38972676Y-97761904D01*
X38972676Y-97761904D02*
X39067914Y-97809523D01*
X39067914Y-97809523D02*
X39258390Y-97857142D01*
X39258390Y-97857142D02*
X39401247Y-97857142D01*
X39401247Y-97857142D02*
X39591723Y-97809523D01*
X39591723Y-97809523D02*
X39686961Y-97761904D01*
X39686961Y-97761904D02*
X39782200Y-97666666D01*
X39782200Y-97666666D02*
X39829819Y-97523809D01*
X39829819Y-97523809D02*
X39829819Y-97285714D01*
X38925057Y-98238095D02*
X38877438Y-98285714D01*
X38877438Y-98285714D02*
X38829819Y-98380952D01*
X38829819Y-98380952D02*
X38829819Y-98619047D01*
X38829819Y-98619047D02*
X38877438Y-98714285D01*
X38877438Y-98714285D02*
X38925057Y-98761904D01*
X38925057Y-98761904D02*
X39020295Y-98809523D01*
X39020295Y-98809523D02*
X39115533Y-98809523D01*
X39115533Y-98809523D02*
X39258390Y-98761904D01*
X39258390Y-98761904D02*
X39829819Y-98190476D01*
X39829819Y-98190476D02*
X39829819Y-98809523D01*
X38925057Y-99190476D02*
X38877438Y-99238095D01*
X38877438Y-99238095D02*
X38829819Y-99333333D01*
X38829819Y-99333333D02*
X38829819Y-99571428D01*
X38829819Y-99571428D02*
X38877438Y-99666666D01*
X38877438Y-99666666D02*
X38925057Y-99714285D01*
X38925057Y-99714285D02*
X39020295Y-99761904D01*
X39020295Y-99761904D02*
X39115533Y-99761904D01*
X39115533Y-99761904D02*
X39258390Y-99714285D01*
X39258390Y-99714285D02*
X39829819Y-99142857D01*
X39829819Y-99142857D02*
X39829819Y-99761904D01*
X39829819Y-59785714D02*
X38829819Y-59785714D01*
X38829819Y-59785714D02*
X38829819Y-60023809D01*
X38829819Y-60023809D02*
X38877438Y-60166666D01*
X38877438Y-60166666D02*
X38972676Y-60261904D01*
X38972676Y-60261904D02*
X39067914Y-60309523D01*
X39067914Y-60309523D02*
X39258390Y-60357142D01*
X39258390Y-60357142D02*
X39401247Y-60357142D01*
X39401247Y-60357142D02*
X39591723Y-60309523D01*
X39591723Y-60309523D02*
X39686961Y-60261904D01*
X39686961Y-60261904D02*
X39782200Y-60166666D01*
X39782200Y-60166666D02*
X39829819Y-60023809D01*
X39829819Y-60023809D02*
X39829819Y-59785714D01*
X38925057Y-60738095D02*
X38877438Y-60785714D01*
X38877438Y-60785714D02*
X38829819Y-60880952D01*
X38829819Y-60880952D02*
X38829819Y-61119047D01*
X38829819Y-61119047D02*
X38877438Y-61214285D01*
X38877438Y-61214285D02*
X38925057Y-61261904D01*
X38925057Y-61261904D02*
X39020295Y-61309523D01*
X39020295Y-61309523D02*
X39115533Y-61309523D01*
X39115533Y-61309523D02*
X39258390Y-61261904D01*
X39258390Y-61261904D02*
X39829819Y-60690476D01*
X39829819Y-60690476D02*
X39829819Y-61309523D01*
X38829819Y-61928571D02*
X38829819Y-62023809D01*
X38829819Y-62023809D02*
X38877438Y-62119047D01*
X38877438Y-62119047D02*
X38925057Y-62166666D01*
X38925057Y-62166666D02*
X39020295Y-62214285D01*
X39020295Y-62214285D02*
X39210771Y-62261904D01*
X39210771Y-62261904D02*
X39448866Y-62261904D01*
X39448866Y-62261904D02*
X39639342Y-62214285D01*
X39639342Y-62214285D02*
X39734580Y-62166666D01*
X39734580Y-62166666D02*
X39782200Y-62119047D01*
X39782200Y-62119047D02*
X39829819Y-62023809D01*
X39829819Y-62023809D02*
X39829819Y-61928571D01*
X39829819Y-61928571D02*
X39782200Y-61833333D01*
X39782200Y-61833333D02*
X39734580Y-61785714D01*
X39734580Y-61785714D02*
X39639342Y-61738095D01*
X39639342Y-61738095D02*
X39448866Y-61690476D01*
X39448866Y-61690476D02*
X39210771Y-61690476D01*
X39210771Y-61690476D02*
X39020295Y-61738095D01*
X39020295Y-61738095D02*
X38925057Y-61785714D01*
X38925057Y-61785714D02*
X38877438Y-61833333D01*
X38877438Y-61833333D02*
X38829819Y-61928571D01*
X32079819Y-97285714D02*
X31079819Y-97285714D01*
X31079819Y-97285714D02*
X31079819Y-97523809D01*
X31079819Y-97523809D02*
X31127438Y-97666666D01*
X31127438Y-97666666D02*
X31222676Y-97761904D01*
X31222676Y-97761904D02*
X31317914Y-97809523D01*
X31317914Y-97809523D02*
X31508390Y-97857142D01*
X31508390Y-97857142D02*
X31651247Y-97857142D01*
X31651247Y-97857142D02*
X31841723Y-97809523D01*
X31841723Y-97809523D02*
X31936961Y-97761904D01*
X31936961Y-97761904D02*
X32032200Y-97666666D01*
X32032200Y-97666666D02*
X32079819Y-97523809D01*
X32079819Y-97523809D02*
X32079819Y-97285714D01*
X32079819Y-98809523D02*
X32079819Y-98238095D01*
X32079819Y-98523809D02*
X31079819Y-98523809D01*
X31079819Y-98523809D02*
X31222676Y-98428571D01*
X31222676Y-98428571D02*
X31317914Y-98333333D01*
X31317914Y-98333333D02*
X31365533Y-98238095D01*
X31413152Y-99666666D02*
X32079819Y-99666666D01*
X31032200Y-99428571D02*
X31746485Y-99190476D01*
X31746485Y-99190476D02*
X31746485Y-99809523D01*
X107079819Y-134785714D02*
X106079819Y-134785714D01*
X106079819Y-134785714D02*
X106079819Y-135023809D01*
X106079819Y-135023809D02*
X106127438Y-135166666D01*
X106127438Y-135166666D02*
X106222676Y-135261904D01*
X106222676Y-135261904D02*
X106317914Y-135309523D01*
X106317914Y-135309523D02*
X106508390Y-135357142D01*
X106508390Y-135357142D02*
X106651247Y-135357142D01*
X106651247Y-135357142D02*
X106841723Y-135309523D01*
X106841723Y-135309523D02*
X106936961Y-135261904D01*
X106936961Y-135261904D02*
X107032200Y-135166666D01*
X107032200Y-135166666D02*
X107079819Y-135023809D01*
X107079819Y-135023809D02*
X107079819Y-134785714D01*
X106413152Y-136214285D02*
X107079819Y-136214285D01*
X106032200Y-135976190D02*
X106746485Y-135738095D01*
X106746485Y-135738095D02*
X106746485Y-136357142D01*
X106508390Y-136880952D02*
X106460771Y-136785714D01*
X106460771Y-136785714D02*
X106413152Y-136738095D01*
X106413152Y-136738095D02*
X106317914Y-136690476D01*
X106317914Y-136690476D02*
X106270295Y-136690476D01*
X106270295Y-136690476D02*
X106175057Y-136738095D01*
X106175057Y-136738095D02*
X106127438Y-136785714D01*
X106127438Y-136785714D02*
X106079819Y-136880952D01*
X106079819Y-136880952D02*
X106079819Y-137071428D01*
X106079819Y-137071428D02*
X106127438Y-137166666D01*
X106127438Y-137166666D02*
X106175057Y-137214285D01*
X106175057Y-137214285D02*
X106270295Y-137261904D01*
X106270295Y-137261904D02*
X106317914Y-137261904D01*
X106317914Y-137261904D02*
X106413152Y-137214285D01*
X106413152Y-137214285D02*
X106460771Y-137166666D01*
X106460771Y-137166666D02*
X106508390Y-137071428D01*
X106508390Y-137071428D02*
X106508390Y-136880952D01*
X106508390Y-136880952D02*
X106556009Y-136785714D01*
X106556009Y-136785714D02*
X106603628Y-136738095D01*
X106603628Y-136738095D02*
X106698866Y-136690476D01*
X106698866Y-136690476D02*
X106889342Y-136690476D01*
X106889342Y-136690476D02*
X106984580Y-136738095D01*
X106984580Y-136738095D02*
X107032200Y-136785714D01*
X107032200Y-136785714D02*
X107079819Y-136880952D01*
X107079819Y-136880952D02*
X107079819Y-137071428D01*
X107079819Y-137071428D02*
X107032200Y-137166666D01*
X107032200Y-137166666D02*
X106984580Y-137214285D01*
X106984580Y-137214285D02*
X106889342Y-137261904D01*
X106889342Y-137261904D02*
X106698866Y-137261904D01*
X106698866Y-137261904D02*
X106603628Y-137214285D01*
X106603628Y-137214285D02*
X106556009Y-137166666D01*
X106556009Y-137166666D02*
X106508390Y-137071428D01*
X69579819Y-59785714D02*
X68579819Y-59785714D01*
X68579819Y-59785714D02*
X68579819Y-60023809D01*
X68579819Y-60023809D02*
X68627438Y-60166666D01*
X68627438Y-60166666D02*
X68722676Y-60261904D01*
X68722676Y-60261904D02*
X68817914Y-60309523D01*
X68817914Y-60309523D02*
X69008390Y-60357142D01*
X69008390Y-60357142D02*
X69151247Y-60357142D01*
X69151247Y-60357142D02*
X69341723Y-60309523D01*
X69341723Y-60309523D02*
X69436961Y-60261904D01*
X69436961Y-60261904D02*
X69532200Y-60166666D01*
X69532200Y-60166666D02*
X69579819Y-60023809D01*
X69579819Y-60023809D02*
X69579819Y-59785714D01*
X68675057Y-60738095D02*
X68627438Y-60785714D01*
X68627438Y-60785714D02*
X68579819Y-60880952D01*
X68579819Y-60880952D02*
X68579819Y-61119047D01*
X68579819Y-61119047D02*
X68627438Y-61214285D01*
X68627438Y-61214285D02*
X68675057Y-61261904D01*
X68675057Y-61261904D02*
X68770295Y-61309523D01*
X68770295Y-61309523D02*
X68865533Y-61309523D01*
X68865533Y-61309523D02*
X69008390Y-61261904D01*
X69008390Y-61261904D02*
X69579819Y-60690476D01*
X69579819Y-60690476D02*
X69579819Y-61309523D01*
X69008390Y-61880952D02*
X68960771Y-61785714D01*
X68960771Y-61785714D02*
X68913152Y-61738095D01*
X68913152Y-61738095D02*
X68817914Y-61690476D01*
X68817914Y-61690476D02*
X68770295Y-61690476D01*
X68770295Y-61690476D02*
X68675057Y-61738095D01*
X68675057Y-61738095D02*
X68627438Y-61785714D01*
X68627438Y-61785714D02*
X68579819Y-61880952D01*
X68579819Y-61880952D02*
X68579819Y-62071428D01*
X68579819Y-62071428D02*
X68627438Y-62166666D01*
X68627438Y-62166666D02*
X68675057Y-62214285D01*
X68675057Y-62214285D02*
X68770295Y-62261904D01*
X68770295Y-62261904D02*
X68817914Y-62261904D01*
X68817914Y-62261904D02*
X68913152Y-62214285D01*
X68913152Y-62214285D02*
X68960771Y-62166666D01*
X68960771Y-62166666D02*
X69008390Y-62071428D01*
X69008390Y-62071428D02*
X69008390Y-61880952D01*
X69008390Y-61880952D02*
X69056009Y-61785714D01*
X69056009Y-61785714D02*
X69103628Y-61738095D01*
X69103628Y-61738095D02*
X69198866Y-61690476D01*
X69198866Y-61690476D02*
X69389342Y-61690476D01*
X69389342Y-61690476D02*
X69484580Y-61738095D01*
X69484580Y-61738095D02*
X69532200Y-61785714D01*
X69532200Y-61785714D02*
X69579819Y-61880952D01*
X69579819Y-61880952D02*
X69579819Y-62071428D01*
X69579819Y-62071428D02*
X69532200Y-62166666D01*
X69532200Y-62166666D02*
X69484580Y-62214285D01*
X69484580Y-62214285D02*
X69389342Y-62261904D01*
X69389342Y-62261904D02*
X69198866Y-62261904D01*
X69198866Y-62261904D02*
X69103628Y-62214285D01*
X69103628Y-62214285D02*
X69056009Y-62166666D01*
X69056009Y-62166666D02*
X69008390Y-62071428D01*
X144579819Y-134785714D02*
X143579819Y-134785714D01*
X143579819Y-134785714D02*
X143579819Y-135023809D01*
X143579819Y-135023809D02*
X143627438Y-135166666D01*
X143627438Y-135166666D02*
X143722676Y-135261904D01*
X143722676Y-135261904D02*
X143817914Y-135309523D01*
X143817914Y-135309523D02*
X144008390Y-135357142D01*
X144008390Y-135357142D02*
X144151247Y-135357142D01*
X144151247Y-135357142D02*
X144341723Y-135309523D01*
X144341723Y-135309523D02*
X144436961Y-135261904D01*
X144436961Y-135261904D02*
X144532200Y-135166666D01*
X144532200Y-135166666D02*
X144579819Y-135023809D01*
X144579819Y-135023809D02*
X144579819Y-134785714D01*
X143579819Y-136214285D02*
X143579819Y-136023809D01*
X143579819Y-136023809D02*
X143627438Y-135928571D01*
X143627438Y-135928571D02*
X143675057Y-135880952D01*
X143675057Y-135880952D02*
X143817914Y-135785714D01*
X143817914Y-135785714D02*
X144008390Y-135738095D01*
X144008390Y-135738095D02*
X144389342Y-135738095D01*
X144389342Y-135738095D02*
X144484580Y-135785714D01*
X144484580Y-135785714D02*
X144532200Y-135833333D01*
X144532200Y-135833333D02*
X144579819Y-135928571D01*
X144579819Y-135928571D02*
X144579819Y-136119047D01*
X144579819Y-136119047D02*
X144532200Y-136214285D01*
X144532200Y-136214285D02*
X144484580Y-136261904D01*
X144484580Y-136261904D02*
X144389342Y-136309523D01*
X144389342Y-136309523D02*
X144151247Y-136309523D01*
X144151247Y-136309523D02*
X144056009Y-136261904D01*
X144056009Y-136261904D02*
X144008390Y-136214285D01*
X144008390Y-136214285D02*
X143960771Y-136119047D01*
X143960771Y-136119047D02*
X143960771Y-135928571D01*
X143960771Y-135928571D02*
X144008390Y-135833333D01*
X144008390Y-135833333D02*
X144056009Y-135785714D01*
X144056009Y-135785714D02*
X144151247Y-135738095D01*
X143913152Y-137166666D02*
X144579819Y-137166666D01*
X143532200Y-136928571D02*
X144246485Y-136690476D01*
X144246485Y-136690476D02*
X144246485Y-137309523D01*
X77329819Y-134785714D02*
X76329819Y-134785714D01*
X76329819Y-134785714D02*
X76329819Y-135023809D01*
X76329819Y-135023809D02*
X76377438Y-135166666D01*
X76377438Y-135166666D02*
X76472676Y-135261904D01*
X76472676Y-135261904D02*
X76567914Y-135309523D01*
X76567914Y-135309523D02*
X76758390Y-135357142D01*
X76758390Y-135357142D02*
X76901247Y-135357142D01*
X76901247Y-135357142D02*
X77091723Y-135309523D01*
X77091723Y-135309523D02*
X77186961Y-135261904D01*
X77186961Y-135261904D02*
X77282200Y-135166666D01*
X77282200Y-135166666D02*
X77329819Y-135023809D01*
X77329819Y-135023809D02*
X77329819Y-134785714D01*
X76663152Y-136214285D02*
X77329819Y-136214285D01*
X76282200Y-135976190D02*
X76996485Y-135738095D01*
X76996485Y-135738095D02*
X76996485Y-136357142D01*
X76329819Y-136928571D02*
X76329819Y-137023809D01*
X76329819Y-137023809D02*
X76377438Y-137119047D01*
X76377438Y-137119047D02*
X76425057Y-137166666D01*
X76425057Y-137166666D02*
X76520295Y-137214285D01*
X76520295Y-137214285D02*
X76710771Y-137261904D01*
X76710771Y-137261904D02*
X76948866Y-137261904D01*
X76948866Y-137261904D02*
X77139342Y-137214285D01*
X77139342Y-137214285D02*
X77234580Y-137166666D01*
X77234580Y-137166666D02*
X77282200Y-137119047D01*
X77282200Y-137119047D02*
X77329819Y-137023809D01*
X77329819Y-137023809D02*
X77329819Y-136928571D01*
X77329819Y-136928571D02*
X77282200Y-136833333D01*
X77282200Y-136833333D02*
X77234580Y-136785714D01*
X77234580Y-136785714D02*
X77139342Y-136738095D01*
X77139342Y-136738095D02*
X76948866Y-136690476D01*
X76948866Y-136690476D02*
X76710771Y-136690476D01*
X76710771Y-136690476D02*
X76520295Y-136738095D01*
X76520295Y-136738095D02*
X76425057Y-136785714D01*
X76425057Y-136785714D02*
X76377438Y-136833333D01*
X76377438Y-136833333D02*
X76329819Y-136928571D01*
X118829819Y-50285714D02*
X117829819Y-50285714D01*
X117829819Y-50285714D02*
X117829819Y-50523809D01*
X117829819Y-50523809D02*
X117877438Y-50666666D01*
X117877438Y-50666666D02*
X117972676Y-50761904D01*
X117972676Y-50761904D02*
X118067914Y-50809523D01*
X118067914Y-50809523D02*
X118258390Y-50857142D01*
X118258390Y-50857142D02*
X118401247Y-50857142D01*
X118401247Y-50857142D02*
X118591723Y-50809523D01*
X118591723Y-50809523D02*
X118686961Y-50761904D01*
X118686961Y-50761904D02*
X118782200Y-50666666D01*
X118782200Y-50666666D02*
X118829819Y-50523809D01*
X118829819Y-50523809D02*
X118829819Y-50285714D01*
X117829819Y-51761904D02*
X117829819Y-51285714D01*
X117829819Y-51285714D02*
X118306009Y-51238095D01*
X118306009Y-51238095D02*
X118258390Y-51285714D01*
X118258390Y-51285714D02*
X118210771Y-51380952D01*
X118210771Y-51380952D02*
X118210771Y-51619047D01*
X118210771Y-51619047D02*
X118258390Y-51714285D01*
X118258390Y-51714285D02*
X118306009Y-51761904D01*
X118306009Y-51761904D02*
X118401247Y-51809523D01*
X118401247Y-51809523D02*
X118639342Y-51809523D01*
X118639342Y-51809523D02*
X118734580Y-51761904D01*
X118734580Y-51761904D02*
X118782200Y-51714285D01*
X118782200Y-51714285D02*
X118829819Y-51619047D01*
X118829819Y-51619047D02*
X118829819Y-51380952D01*
X118829819Y-51380952D02*
X118782200Y-51285714D01*
X118782200Y-51285714D02*
X118734580Y-51238095D01*
X118829819Y-52761904D02*
X118829819Y-52190476D01*
X118829819Y-52476190D02*
X117829819Y-52476190D01*
X117829819Y-52476190D02*
X117972676Y-52380952D01*
X117972676Y-52380952D02*
X118067914Y-52285714D01*
X118067914Y-52285714D02*
X118115533Y-52190476D01*
X111079819Y-50285714D02*
X110079819Y-50285714D01*
X110079819Y-50285714D02*
X110079819Y-50523809D01*
X110079819Y-50523809D02*
X110127438Y-50666666D01*
X110127438Y-50666666D02*
X110222676Y-50761904D01*
X110222676Y-50761904D02*
X110317914Y-50809523D01*
X110317914Y-50809523D02*
X110508390Y-50857142D01*
X110508390Y-50857142D02*
X110651247Y-50857142D01*
X110651247Y-50857142D02*
X110841723Y-50809523D01*
X110841723Y-50809523D02*
X110936961Y-50761904D01*
X110936961Y-50761904D02*
X111032200Y-50666666D01*
X111032200Y-50666666D02*
X111079819Y-50523809D01*
X111079819Y-50523809D02*
X111079819Y-50285714D01*
X110413152Y-51714285D02*
X111079819Y-51714285D01*
X110032200Y-51476190D02*
X110746485Y-51238095D01*
X110746485Y-51238095D02*
X110746485Y-51857142D01*
X110079819Y-52142857D02*
X110079819Y-52761904D01*
X110079819Y-52761904D02*
X110460771Y-52428571D01*
X110460771Y-52428571D02*
X110460771Y-52571428D01*
X110460771Y-52571428D02*
X110508390Y-52666666D01*
X110508390Y-52666666D02*
X110556009Y-52714285D01*
X110556009Y-52714285D02*
X110651247Y-52761904D01*
X110651247Y-52761904D02*
X110889342Y-52761904D01*
X110889342Y-52761904D02*
X110984580Y-52714285D01*
X110984580Y-52714285D02*
X111032200Y-52666666D01*
X111032200Y-52666666D02*
X111079819Y-52571428D01*
X111079819Y-52571428D02*
X111079819Y-52285714D01*
X111079819Y-52285714D02*
X111032200Y-52190476D01*
X111032200Y-52190476D02*
X110984580Y-52142857D01*
X111079819Y-87785714D02*
X110079819Y-87785714D01*
X110079819Y-87785714D02*
X110079819Y-88023809D01*
X110079819Y-88023809D02*
X110127438Y-88166666D01*
X110127438Y-88166666D02*
X110222676Y-88261904D01*
X110222676Y-88261904D02*
X110317914Y-88309523D01*
X110317914Y-88309523D02*
X110508390Y-88357142D01*
X110508390Y-88357142D02*
X110651247Y-88357142D01*
X110651247Y-88357142D02*
X110841723Y-88309523D01*
X110841723Y-88309523D02*
X110936961Y-88261904D01*
X110936961Y-88261904D02*
X111032200Y-88166666D01*
X111032200Y-88166666D02*
X111079819Y-88023809D01*
X111079819Y-88023809D02*
X111079819Y-87785714D01*
X110413152Y-89214285D02*
X111079819Y-89214285D01*
X110032200Y-88976190D02*
X110746485Y-88738095D01*
X110746485Y-88738095D02*
X110746485Y-89357142D01*
X110079819Y-90214285D02*
X110079819Y-89738095D01*
X110079819Y-89738095D02*
X110556009Y-89690476D01*
X110556009Y-89690476D02*
X110508390Y-89738095D01*
X110508390Y-89738095D02*
X110460771Y-89833333D01*
X110460771Y-89833333D02*
X110460771Y-90071428D01*
X110460771Y-90071428D02*
X110508390Y-90166666D01*
X110508390Y-90166666D02*
X110556009Y-90214285D01*
X110556009Y-90214285D02*
X110651247Y-90261904D01*
X110651247Y-90261904D02*
X110889342Y-90261904D01*
X110889342Y-90261904D02*
X110984580Y-90214285D01*
X110984580Y-90214285D02*
X111032200Y-90166666D01*
X111032200Y-90166666D02*
X111079819Y-90071428D01*
X111079819Y-90071428D02*
X111079819Y-89833333D01*
X111079819Y-89833333D02*
X111032200Y-89738095D01*
X111032200Y-89738095D02*
X110984580Y-89690476D01*
X81329819Y-125285714D02*
X80329819Y-125285714D01*
X80329819Y-125285714D02*
X80329819Y-125523809D01*
X80329819Y-125523809D02*
X80377438Y-125666666D01*
X80377438Y-125666666D02*
X80472676Y-125761904D01*
X80472676Y-125761904D02*
X80567914Y-125809523D01*
X80567914Y-125809523D02*
X80758390Y-125857142D01*
X80758390Y-125857142D02*
X80901247Y-125857142D01*
X80901247Y-125857142D02*
X81091723Y-125809523D01*
X81091723Y-125809523D02*
X81186961Y-125761904D01*
X81186961Y-125761904D02*
X81282200Y-125666666D01*
X81282200Y-125666666D02*
X81329819Y-125523809D01*
X81329819Y-125523809D02*
X81329819Y-125285714D01*
X80329819Y-126190476D02*
X80329819Y-126809523D01*
X80329819Y-126809523D02*
X80710771Y-126476190D01*
X80710771Y-126476190D02*
X80710771Y-126619047D01*
X80710771Y-126619047D02*
X80758390Y-126714285D01*
X80758390Y-126714285D02*
X80806009Y-126761904D01*
X80806009Y-126761904D02*
X80901247Y-126809523D01*
X80901247Y-126809523D02*
X81139342Y-126809523D01*
X81139342Y-126809523D02*
X81234580Y-126761904D01*
X81234580Y-126761904D02*
X81282200Y-126714285D01*
X81282200Y-126714285D02*
X81329819Y-126619047D01*
X81329819Y-126619047D02*
X81329819Y-126333333D01*
X81329819Y-126333333D02*
X81282200Y-126238095D01*
X81282200Y-126238095D02*
X81234580Y-126190476D01*
X81329819Y-127285714D02*
X81329819Y-127476190D01*
X81329819Y-127476190D02*
X81282200Y-127571428D01*
X81282200Y-127571428D02*
X81234580Y-127619047D01*
X81234580Y-127619047D02*
X81091723Y-127714285D01*
X81091723Y-127714285D02*
X80901247Y-127761904D01*
X80901247Y-127761904D02*
X80520295Y-127761904D01*
X80520295Y-127761904D02*
X80425057Y-127714285D01*
X80425057Y-127714285D02*
X80377438Y-127666666D01*
X80377438Y-127666666D02*
X80329819Y-127571428D01*
X80329819Y-127571428D02*
X80329819Y-127380952D01*
X80329819Y-127380952D02*
X80377438Y-127285714D01*
X80377438Y-127285714D02*
X80425057Y-127238095D01*
X80425057Y-127238095D02*
X80520295Y-127190476D01*
X80520295Y-127190476D02*
X80758390Y-127190476D01*
X80758390Y-127190476D02*
X80853628Y-127238095D01*
X80853628Y-127238095D02*
X80901247Y-127285714D01*
X80901247Y-127285714D02*
X80948866Y-127380952D01*
X80948866Y-127380952D02*
X80948866Y-127571428D01*
X80948866Y-127571428D02*
X80901247Y-127666666D01*
X80901247Y-127666666D02*
X80853628Y-127714285D01*
X80853628Y-127714285D02*
X80758390Y-127761904D01*
X114829819Y-134785714D02*
X113829819Y-134785714D01*
X113829819Y-134785714D02*
X113829819Y-135023809D01*
X113829819Y-135023809D02*
X113877438Y-135166666D01*
X113877438Y-135166666D02*
X113972676Y-135261904D01*
X113972676Y-135261904D02*
X114067914Y-135309523D01*
X114067914Y-135309523D02*
X114258390Y-135357142D01*
X114258390Y-135357142D02*
X114401247Y-135357142D01*
X114401247Y-135357142D02*
X114591723Y-135309523D01*
X114591723Y-135309523D02*
X114686961Y-135261904D01*
X114686961Y-135261904D02*
X114782200Y-135166666D01*
X114782200Y-135166666D02*
X114829819Y-135023809D01*
X114829819Y-135023809D02*
X114829819Y-134785714D01*
X113829819Y-136261904D02*
X113829819Y-135785714D01*
X113829819Y-135785714D02*
X114306009Y-135738095D01*
X114306009Y-135738095D02*
X114258390Y-135785714D01*
X114258390Y-135785714D02*
X114210771Y-135880952D01*
X114210771Y-135880952D02*
X114210771Y-136119047D01*
X114210771Y-136119047D02*
X114258390Y-136214285D01*
X114258390Y-136214285D02*
X114306009Y-136261904D01*
X114306009Y-136261904D02*
X114401247Y-136309523D01*
X114401247Y-136309523D02*
X114639342Y-136309523D01*
X114639342Y-136309523D02*
X114734580Y-136261904D01*
X114734580Y-136261904D02*
X114782200Y-136214285D01*
X114782200Y-136214285D02*
X114829819Y-136119047D01*
X114829819Y-136119047D02*
X114829819Y-135880952D01*
X114829819Y-135880952D02*
X114782200Y-135785714D01*
X114782200Y-135785714D02*
X114734580Y-135738095D01*
X113829819Y-137166666D02*
X113829819Y-136976190D01*
X113829819Y-136976190D02*
X113877438Y-136880952D01*
X113877438Y-136880952D02*
X113925057Y-136833333D01*
X113925057Y-136833333D02*
X114067914Y-136738095D01*
X114067914Y-136738095D02*
X114258390Y-136690476D01*
X114258390Y-136690476D02*
X114639342Y-136690476D01*
X114639342Y-136690476D02*
X114734580Y-136738095D01*
X114734580Y-136738095D02*
X114782200Y-136785714D01*
X114782200Y-136785714D02*
X114829819Y-136880952D01*
X114829819Y-136880952D02*
X114829819Y-137071428D01*
X114829819Y-137071428D02*
X114782200Y-137166666D01*
X114782200Y-137166666D02*
X114734580Y-137214285D01*
X114734580Y-137214285D02*
X114639342Y-137261904D01*
X114639342Y-137261904D02*
X114401247Y-137261904D01*
X114401247Y-137261904D02*
X114306009Y-137214285D01*
X114306009Y-137214285D02*
X114258390Y-137166666D01*
X114258390Y-137166666D02*
X114210771Y-137071428D01*
X114210771Y-137071428D02*
X114210771Y-136880952D01*
X114210771Y-136880952D02*
X114258390Y-136785714D01*
X114258390Y-136785714D02*
X114306009Y-136738095D01*
X114306009Y-136738095D02*
X114401247Y-136690476D01*
X73579819Y-12785714D02*
X72579819Y-12785714D01*
X72579819Y-12785714D02*
X72579819Y-13023809D01*
X72579819Y-13023809D02*
X72627438Y-13166666D01*
X72627438Y-13166666D02*
X72722676Y-13261904D01*
X72722676Y-13261904D02*
X72817914Y-13309523D01*
X72817914Y-13309523D02*
X73008390Y-13357142D01*
X73008390Y-13357142D02*
X73151247Y-13357142D01*
X73151247Y-13357142D02*
X73341723Y-13309523D01*
X73341723Y-13309523D02*
X73436961Y-13261904D01*
X73436961Y-13261904D02*
X73532200Y-13166666D01*
X73532200Y-13166666D02*
X73579819Y-13023809D01*
X73579819Y-13023809D02*
X73579819Y-12785714D01*
X72675057Y-13738095D02*
X72627438Y-13785714D01*
X72627438Y-13785714D02*
X72579819Y-13880952D01*
X72579819Y-13880952D02*
X72579819Y-14119047D01*
X72579819Y-14119047D02*
X72627438Y-14214285D01*
X72627438Y-14214285D02*
X72675057Y-14261904D01*
X72675057Y-14261904D02*
X72770295Y-14309523D01*
X72770295Y-14309523D02*
X72865533Y-14309523D01*
X72865533Y-14309523D02*
X73008390Y-14261904D01*
X73008390Y-14261904D02*
X73579819Y-13690476D01*
X73579819Y-13690476D02*
X73579819Y-14309523D01*
X72579819Y-15214285D02*
X72579819Y-14738095D01*
X72579819Y-14738095D02*
X73056009Y-14690476D01*
X73056009Y-14690476D02*
X73008390Y-14738095D01*
X73008390Y-14738095D02*
X72960771Y-14833333D01*
X72960771Y-14833333D02*
X72960771Y-15071428D01*
X72960771Y-15071428D02*
X73008390Y-15166666D01*
X73008390Y-15166666D02*
X73056009Y-15214285D01*
X73056009Y-15214285D02*
X73151247Y-15261904D01*
X73151247Y-15261904D02*
X73389342Y-15261904D01*
X73389342Y-15261904D02*
X73484580Y-15214285D01*
X73484580Y-15214285D02*
X73532200Y-15166666D01*
X73532200Y-15166666D02*
X73579819Y-15071428D01*
X73579819Y-15071428D02*
X73579819Y-14833333D01*
X73579819Y-14833333D02*
X73532200Y-14738095D01*
X73532200Y-14738095D02*
X73484580Y-14690476D01*
X43829819Y-87785714D02*
X42829819Y-87785714D01*
X42829819Y-87785714D02*
X42829819Y-88023809D01*
X42829819Y-88023809D02*
X42877438Y-88166666D01*
X42877438Y-88166666D02*
X42972676Y-88261904D01*
X42972676Y-88261904D02*
X43067914Y-88309523D01*
X43067914Y-88309523D02*
X43258390Y-88357142D01*
X43258390Y-88357142D02*
X43401247Y-88357142D01*
X43401247Y-88357142D02*
X43591723Y-88309523D01*
X43591723Y-88309523D02*
X43686961Y-88261904D01*
X43686961Y-88261904D02*
X43782200Y-88166666D01*
X43782200Y-88166666D02*
X43829819Y-88023809D01*
X43829819Y-88023809D02*
X43829819Y-87785714D01*
X42925057Y-88738095D02*
X42877438Y-88785714D01*
X42877438Y-88785714D02*
X42829819Y-88880952D01*
X42829819Y-88880952D02*
X42829819Y-89119047D01*
X42829819Y-89119047D02*
X42877438Y-89214285D01*
X42877438Y-89214285D02*
X42925057Y-89261904D01*
X42925057Y-89261904D02*
X43020295Y-89309523D01*
X43020295Y-89309523D02*
X43115533Y-89309523D01*
X43115533Y-89309523D02*
X43258390Y-89261904D01*
X43258390Y-89261904D02*
X43829819Y-88690476D01*
X43829819Y-88690476D02*
X43829819Y-89309523D01*
X43829819Y-90261904D02*
X43829819Y-89690476D01*
X43829819Y-89976190D02*
X42829819Y-89976190D01*
X42829819Y-89976190D02*
X42972676Y-89880952D01*
X42972676Y-89880952D02*
X43067914Y-89785714D01*
X43067914Y-89785714D02*
X43115533Y-89690476D01*
X118829819Y-125285714D02*
X117829819Y-125285714D01*
X117829819Y-125285714D02*
X117829819Y-125523809D01*
X117829819Y-125523809D02*
X117877438Y-125666666D01*
X117877438Y-125666666D02*
X117972676Y-125761904D01*
X117972676Y-125761904D02*
X118067914Y-125809523D01*
X118067914Y-125809523D02*
X118258390Y-125857142D01*
X118258390Y-125857142D02*
X118401247Y-125857142D01*
X118401247Y-125857142D02*
X118591723Y-125809523D01*
X118591723Y-125809523D02*
X118686961Y-125761904D01*
X118686961Y-125761904D02*
X118782200Y-125666666D01*
X118782200Y-125666666D02*
X118829819Y-125523809D01*
X118829819Y-125523809D02*
X118829819Y-125285714D01*
X117829819Y-126761904D02*
X117829819Y-126285714D01*
X117829819Y-126285714D02*
X118306009Y-126238095D01*
X118306009Y-126238095D02*
X118258390Y-126285714D01*
X118258390Y-126285714D02*
X118210771Y-126380952D01*
X118210771Y-126380952D02*
X118210771Y-126619047D01*
X118210771Y-126619047D02*
X118258390Y-126714285D01*
X118258390Y-126714285D02*
X118306009Y-126761904D01*
X118306009Y-126761904D02*
X118401247Y-126809523D01*
X118401247Y-126809523D02*
X118639342Y-126809523D01*
X118639342Y-126809523D02*
X118734580Y-126761904D01*
X118734580Y-126761904D02*
X118782200Y-126714285D01*
X118782200Y-126714285D02*
X118829819Y-126619047D01*
X118829819Y-126619047D02*
X118829819Y-126380952D01*
X118829819Y-126380952D02*
X118782200Y-126285714D01*
X118782200Y-126285714D02*
X118734580Y-126238095D01*
X117829819Y-127714285D02*
X117829819Y-127238095D01*
X117829819Y-127238095D02*
X118306009Y-127190476D01*
X118306009Y-127190476D02*
X118258390Y-127238095D01*
X118258390Y-127238095D02*
X118210771Y-127333333D01*
X118210771Y-127333333D02*
X118210771Y-127571428D01*
X118210771Y-127571428D02*
X118258390Y-127666666D01*
X118258390Y-127666666D02*
X118306009Y-127714285D01*
X118306009Y-127714285D02*
X118401247Y-127761904D01*
X118401247Y-127761904D02*
X118639342Y-127761904D01*
X118639342Y-127761904D02*
X118734580Y-127714285D01*
X118734580Y-127714285D02*
X118782200Y-127666666D01*
X118782200Y-127666666D02*
X118829819Y-127571428D01*
X118829819Y-127571428D02*
X118829819Y-127333333D01*
X118829819Y-127333333D02*
X118782200Y-127238095D01*
X118782200Y-127238095D02*
X118734580Y-127190476D01*
X118829819Y-12785714D02*
X117829819Y-12785714D01*
X117829819Y-12785714D02*
X117829819Y-13023809D01*
X117829819Y-13023809D02*
X117877438Y-13166666D01*
X117877438Y-13166666D02*
X117972676Y-13261904D01*
X117972676Y-13261904D02*
X118067914Y-13309523D01*
X118067914Y-13309523D02*
X118258390Y-13357142D01*
X118258390Y-13357142D02*
X118401247Y-13357142D01*
X118401247Y-13357142D02*
X118591723Y-13309523D01*
X118591723Y-13309523D02*
X118686961Y-13261904D01*
X118686961Y-13261904D02*
X118782200Y-13166666D01*
X118782200Y-13166666D02*
X118829819Y-13023809D01*
X118829819Y-13023809D02*
X118829819Y-12785714D01*
X118163152Y-14214285D02*
X118829819Y-14214285D01*
X117782200Y-13976190D02*
X118496485Y-13738095D01*
X118496485Y-13738095D02*
X118496485Y-14357142D01*
X118829819Y-14785714D02*
X118829819Y-14976190D01*
X118829819Y-14976190D02*
X118782200Y-15071428D01*
X118782200Y-15071428D02*
X118734580Y-15119047D01*
X118734580Y-15119047D02*
X118591723Y-15214285D01*
X118591723Y-15214285D02*
X118401247Y-15261904D01*
X118401247Y-15261904D02*
X118020295Y-15261904D01*
X118020295Y-15261904D02*
X117925057Y-15214285D01*
X117925057Y-15214285D02*
X117877438Y-15166666D01*
X117877438Y-15166666D02*
X117829819Y-15071428D01*
X117829819Y-15071428D02*
X117829819Y-14880952D01*
X117829819Y-14880952D02*
X117877438Y-14785714D01*
X117877438Y-14785714D02*
X117925057Y-14738095D01*
X117925057Y-14738095D02*
X118020295Y-14690476D01*
X118020295Y-14690476D02*
X118258390Y-14690476D01*
X118258390Y-14690476D02*
X118353628Y-14738095D01*
X118353628Y-14738095D02*
X118401247Y-14785714D01*
X118401247Y-14785714D02*
X118448866Y-14880952D01*
X118448866Y-14880952D02*
X118448866Y-15071428D01*
X118448866Y-15071428D02*
X118401247Y-15166666D01*
X118401247Y-15166666D02*
X118353628Y-15214285D01*
X118353628Y-15214285D02*
X118258390Y-15261904D01*
X144579819Y-59785714D02*
X143579819Y-59785714D01*
X143579819Y-59785714D02*
X143579819Y-60023809D01*
X143579819Y-60023809D02*
X143627438Y-60166666D01*
X143627438Y-60166666D02*
X143722676Y-60261904D01*
X143722676Y-60261904D02*
X143817914Y-60309523D01*
X143817914Y-60309523D02*
X144008390Y-60357142D01*
X144008390Y-60357142D02*
X144151247Y-60357142D01*
X144151247Y-60357142D02*
X144341723Y-60309523D01*
X144341723Y-60309523D02*
X144436961Y-60261904D01*
X144436961Y-60261904D02*
X144532200Y-60166666D01*
X144532200Y-60166666D02*
X144579819Y-60023809D01*
X144579819Y-60023809D02*
X144579819Y-59785714D01*
X143579819Y-61214285D02*
X143579819Y-61023809D01*
X143579819Y-61023809D02*
X143627438Y-60928571D01*
X143627438Y-60928571D02*
X143675057Y-60880952D01*
X143675057Y-60880952D02*
X143817914Y-60785714D01*
X143817914Y-60785714D02*
X144008390Y-60738095D01*
X144008390Y-60738095D02*
X144389342Y-60738095D01*
X144389342Y-60738095D02*
X144484580Y-60785714D01*
X144484580Y-60785714D02*
X144532200Y-60833333D01*
X144532200Y-60833333D02*
X144579819Y-60928571D01*
X144579819Y-60928571D02*
X144579819Y-61119047D01*
X144579819Y-61119047D02*
X144532200Y-61214285D01*
X144532200Y-61214285D02*
X144484580Y-61261904D01*
X144484580Y-61261904D02*
X144389342Y-61309523D01*
X144389342Y-61309523D02*
X144151247Y-61309523D01*
X144151247Y-61309523D02*
X144056009Y-61261904D01*
X144056009Y-61261904D02*
X144008390Y-61214285D01*
X144008390Y-61214285D02*
X143960771Y-61119047D01*
X143960771Y-61119047D02*
X143960771Y-60928571D01*
X143960771Y-60928571D02*
X144008390Y-60833333D01*
X144008390Y-60833333D02*
X144056009Y-60785714D01*
X144056009Y-60785714D02*
X144151247Y-60738095D01*
X143579819Y-61928571D02*
X143579819Y-62023809D01*
X143579819Y-62023809D02*
X143627438Y-62119047D01*
X143627438Y-62119047D02*
X143675057Y-62166666D01*
X143675057Y-62166666D02*
X143770295Y-62214285D01*
X143770295Y-62214285D02*
X143960771Y-62261904D01*
X143960771Y-62261904D02*
X144198866Y-62261904D01*
X144198866Y-62261904D02*
X144389342Y-62214285D01*
X144389342Y-62214285D02*
X144484580Y-62166666D01*
X144484580Y-62166666D02*
X144532200Y-62119047D01*
X144532200Y-62119047D02*
X144579819Y-62023809D01*
X144579819Y-62023809D02*
X144579819Y-61928571D01*
X144579819Y-61928571D02*
X144532200Y-61833333D01*
X144532200Y-61833333D02*
X144484580Y-61785714D01*
X144484580Y-61785714D02*
X144389342Y-61738095D01*
X144389342Y-61738095D02*
X144198866Y-61690476D01*
X144198866Y-61690476D02*
X143960771Y-61690476D01*
X143960771Y-61690476D02*
X143770295Y-61738095D01*
X143770295Y-61738095D02*
X143675057Y-61785714D01*
X143675057Y-61785714D02*
X143627438Y-61833333D01*
X143627438Y-61833333D02*
X143579819Y-61928571D01*
X69579819Y-134785714D02*
X68579819Y-134785714D01*
X68579819Y-134785714D02*
X68579819Y-135023809D01*
X68579819Y-135023809D02*
X68627438Y-135166666D01*
X68627438Y-135166666D02*
X68722676Y-135261904D01*
X68722676Y-135261904D02*
X68817914Y-135309523D01*
X68817914Y-135309523D02*
X69008390Y-135357142D01*
X69008390Y-135357142D02*
X69151247Y-135357142D01*
X69151247Y-135357142D02*
X69341723Y-135309523D01*
X69341723Y-135309523D02*
X69436961Y-135261904D01*
X69436961Y-135261904D02*
X69532200Y-135166666D01*
X69532200Y-135166666D02*
X69579819Y-135023809D01*
X69579819Y-135023809D02*
X69579819Y-134785714D01*
X68579819Y-135690476D02*
X68579819Y-136309523D01*
X68579819Y-136309523D02*
X68960771Y-135976190D01*
X68960771Y-135976190D02*
X68960771Y-136119047D01*
X68960771Y-136119047D02*
X69008390Y-136214285D01*
X69008390Y-136214285D02*
X69056009Y-136261904D01*
X69056009Y-136261904D02*
X69151247Y-136309523D01*
X69151247Y-136309523D02*
X69389342Y-136309523D01*
X69389342Y-136309523D02*
X69484580Y-136261904D01*
X69484580Y-136261904D02*
X69532200Y-136214285D01*
X69532200Y-136214285D02*
X69579819Y-136119047D01*
X69579819Y-136119047D02*
X69579819Y-135833333D01*
X69579819Y-135833333D02*
X69532200Y-135738095D01*
X69532200Y-135738095D02*
X69484580Y-135690476D01*
X68675057Y-136690476D02*
X68627438Y-136738095D01*
X68627438Y-136738095D02*
X68579819Y-136833333D01*
X68579819Y-136833333D02*
X68579819Y-137071428D01*
X68579819Y-137071428D02*
X68627438Y-137166666D01*
X68627438Y-137166666D02*
X68675057Y-137214285D01*
X68675057Y-137214285D02*
X68770295Y-137261904D01*
X68770295Y-137261904D02*
X68865533Y-137261904D01*
X68865533Y-137261904D02*
X69008390Y-137214285D01*
X69008390Y-137214285D02*
X69579819Y-136642857D01*
X69579819Y-136642857D02*
X69579819Y-137261904D01*
X81329819Y-12785714D02*
X80329819Y-12785714D01*
X80329819Y-12785714D02*
X80329819Y-13023809D01*
X80329819Y-13023809D02*
X80377438Y-13166666D01*
X80377438Y-13166666D02*
X80472676Y-13261904D01*
X80472676Y-13261904D02*
X80567914Y-13309523D01*
X80567914Y-13309523D02*
X80758390Y-13357142D01*
X80758390Y-13357142D02*
X80901247Y-13357142D01*
X80901247Y-13357142D02*
X81091723Y-13309523D01*
X81091723Y-13309523D02*
X81186961Y-13261904D01*
X81186961Y-13261904D02*
X81282200Y-13166666D01*
X81282200Y-13166666D02*
X81329819Y-13023809D01*
X81329819Y-13023809D02*
X81329819Y-12785714D01*
X80329819Y-13690476D02*
X80329819Y-14309523D01*
X80329819Y-14309523D02*
X80710771Y-13976190D01*
X80710771Y-13976190D02*
X80710771Y-14119047D01*
X80710771Y-14119047D02*
X80758390Y-14214285D01*
X80758390Y-14214285D02*
X80806009Y-14261904D01*
X80806009Y-14261904D02*
X80901247Y-14309523D01*
X80901247Y-14309523D02*
X81139342Y-14309523D01*
X81139342Y-14309523D02*
X81234580Y-14261904D01*
X81234580Y-14261904D02*
X81282200Y-14214285D01*
X81282200Y-14214285D02*
X81329819Y-14119047D01*
X81329819Y-14119047D02*
X81329819Y-13833333D01*
X81329819Y-13833333D02*
X81282200Y-13738095D01*
X81282200Y-13738095D02*
X81234580Y-13690476D01*
X80329819Y-14642857D02*
X80329819Y-15261904D01*
X80329819Y-15261904D02*
X80710771Y-14928571D01*
X80710771Y-14928571D02*
X80710771Y-15071428D01*
X80710771Y-15071428D02*
X80758390Y-15166666D01*
X80758390Y-15166666D02*
X80806009Y-15214285D01*
X80806009Y-15214285D02*
X80901247Y-15261904D01*
X80901247Y-15261904D02*
X81139342Y-15261904D01*
X81139342Y-15261904D02*
X81234580Y-15214285D01*
X81234580Y-15214285D02*
X81282200Y-15166666D01*
X81282200Y-15166666D02*
X81329819Y-15071428D01*
X81329819Y-15071428D02*
X81329819Y-14785714D01*
X81329819Y-14785714D02*
X81282200Y-14690476D01*
X81282200Y-14690476D02*
X81234580Y-14642857D01*
X6329819Y-88261905D02*
X5329819Y-88261905D01*
X5329819Y-88261905D02*
X5329819Y-88500000D01*
X5329819Y-88500000D02*
X5377438Y-88642857D01*
X5377438Y-88642857D02*
X5472676Y-88738095D01*
X5472676Y-88738095D02*
X5567914Y-88785714D01*
X5567914Y-88785714D02*
X5758390Y-88833333D01*
X5758390Y-88833333D02*
X5901247Y-88833333D01*
X5901247Y-88833333D02*
X6091723Y-88785714D01*
X6091723Y-88785714D02*
X6186961Y-88738095D01*
X6186961Y-88738095D02*
X6282200Y-88642857D01*
X6282200Y-88642857D02*
X6329819Y-88500000D01*
X6329819Y-88500000D02*
X6329819Y-88261905D01*
X5329819Y-89738095D02*
X5329819Y-89261905D01*
X5329819Y-89261905D02*
X5806009Y-89214286D01*
X5806009Y-89214286D02*
X5758390Y-89261905D01*
X5758390Y-89261905D02*
X5710771Y-89357143D01*
X5710771Y-89357143D02*
X5710771Y-89595238D01*
X5710771Y-89595238D02*
X5758390Y-89690476D01*
X5758390Y-89690476D02*
X5806009Y-89738095D01*
X5806009Y-89738095D02*
X5901247Y-89785714D01*
X5901247Y-89785714D02*
X6139342Y-89785714D01*
X6139342Y-89785714D02*
X6234580Y-89738095D01*
X6234580Y-89738095D02*
X6282200Y-89690476D01*
X6282200Y-89690476D02*
X6329819Y-89595238D01*
X6329819Y-89595238D02*
X6329819Y-89357143D01*
X6329819Y-89357143D02*
X6282200Y-89261905D01*
X6282200Y-89261905D02*
X6234580Y-89214286D01*
X36079819Y-87785714D02*
X35079819Y-87785714D01*
X35079819Y-87785714D02*
X35079819Y-88023809D01*
X35079819Y-88023809D02*
X35127438Y-88166666D01*
X35127438Y-88166666D02*
X35222676Y-88261904D01*
X35222676Y-88261904D02*
X35317914Y-88309523D01*
X35317914Y-88309523D02*
X35508390Y-88357142D01*
X35508390Y-88357142D02*
X35651247Y-88357142D01*
X35651247Y-88357142D02*
X35841723Y-88309523D01*
X35841723Y-88309523D02*
X35936961Y-88261904D01*
X35936961Y-88261904D02*
X36032200Y-88166666D01*
X36032200Y-88166666D02*
X36079819Y-88023809D01*
X36079819Y-88023809D02*
X36079819Y-87785714D01*
X36079819Y-89309523D02*
X36079819Y-88738095D01*
X36079819Y-89023809D02*
X35079819Y-89023809D01*
X35079819Y-89023809D02*
X35222676Y-88928571D01*
X35222676Y-88928571D02*
X35317914Y-88833333D01*
X35317914Y-88833333D02*
X35365533Y-88738095D01*
X35079819Y-89642857D02*
X35079819Y-90261904D01*
X35079819Y-90261904D02*
X35460771Y-89928571D01*
X35460771Y-89928571D02*
X35460771Y-90071428D01*
X35460771Y-90071428D02*
X35508390Y-90166666D01*
X35508390Y-90166666D02*
X35556009Y-90214285D01*
X35556009Y-90214285D02*
X35651247Y-90261904D01*
X35651247Y-90261904D02*
X35889342Y-90261904D01*
X35889342Y-90261904D02*
X35984580Y-90214285D01*
X35984580Y-90214285D02*
X36032200Y-90166666D01*
X36032200Y-90166666D02*
X36079819Y-90071428D01*
X36079819Y-90071428D02*
X36079819Y-89785714D01*
X36079819Y-89785714D02*
X36032200Y-89690476D01*
X36032200Y-89690476D02*
X35984580Y-89642857D01*
X111079819Y-125285714D02*
X110079819Y-125285714D01*
X110079819Y-125285714D02*
X110079819Y-125523809D01*
X110079819Y-125523809D02*
X110127438Y-125666666D01*
X110127438Y-125666666D02*
X110222676Y-125761904D01*
X110222676Y-125761904D02*
X110317914Y-125809523D01*
X110317914Y-125809523D02*
X110508390Y-125857142D01*
X110508390Y-125857142D02*
X110651247Y-125857142D01*
X110651247Y-125857142D02*
X110841723Y-125809523D01*
X110841723Y-125809523D02*
X110936961Y-125761904D01*
X110936961Y-125761904D02*
X111032200Y-125666666D01*
X111032200Y-125666666D02*
X111079819Y-125523809D01*
X111079819Y-125523809D02*
X111079819Y-125285714D01*
X110413152Y-126714285D02*
X111079819Y-126714285D01*
X110032200Y-126476190D02*
X110746485Y-126238095D01*
X110746485Y-126238095D02*
X110746485Y-126857142D01*
X110079819Y-127142857D02*
X110079819Y-127809523D01*
X110079819Y-127809523D02*
X111079819Y-127380952D01*
X107079819Y-22285714D02*
X106079819Y-22285714D01*
X106079819Y-22285714D02*
X106079819Y-22523809D01*
X106079819Y-22523809D02*
X106127438Y-22666666D01*
X106127438Y-22666666D02*
X106222676Y-22761904D01*
X106222676Y-22761904D02*
X106317914Y-22809523D01*
X106317914Y-22809523D02*
X106508390Y-22857142D01*
X106508390Y-22857142D02*
X106651247Y-22857142D01*
X106651247Y-22857142D02*
X106841723Y-22809523D01*
X106841723Y-22809523D02*
X106936961Y-22761904D01*
X106936961Y-22761904D02*
X107032200Y-22666666D01*
X107032200Y-22666666D02*
X107079819Y-22523809D01*
X107079819Y-22523809D02*
X107079819Y-22285714D01*
X106413152Y-23714285D02*
X107079819Y-23714285D01*
X106032200Y-23476190D02*
X106746485Y-23238095D01*
X106746485Y-23238095D02*
X106746485Y-23857142D01*
X106175057Y-24190476D02*
X106127438Y-24238095D01*
X106127438Y-24238095D02*
X106079819Y-24333333D01*
X106079819Y-24333333D02*
X106079819Y-24571428D01*
X106079819Y-24571428D02*
X106127438Y-24666666D01*
X106127438Y-24666666D02*
X106175057Y-24714285D01*
X106175057Y-24714285D02*
X106270295Y-24761904D01*
X106270295Y-24761904D02*
X106365533Y-24761904D01*
X106365533Y-24761904D02*
X106508390Y-24714285D01*
X106508390Y-24714285D02*
X107079819Y-24142857D01*
X107079819Y-24142857D02*
X107079819Y-24761904D01*
X36079819Y-50285714D02*
X35079819Y-50285714D01*
X35079819Y-50285714D02*
X35079819Y-50523809D01*
X35079819Y-50523809D02*
X35127438Y-50666666D01*
X35127438Y-50666666D02*
X35222676Y-50761904D01*
X35222676Y-50761904D02*
X35317914Y-50809523D01*
X35317914Y-50809523D02*
X35508390Y-50857142D01*
X35508390Y-50857142D02*
X35651247Y-50857142D01*
X35651247Y-50857142D02*
X35841723Y-50809523D01*
X35841723Y-50809523D02*
X35936961Y-50761904D01*
X35936961Y-50761904D02*
X36032200Y-50666666D01*
X36032200Y-50666666D02*
X36079819Y-50523809D01*
X36079819Y-50523809D02*
X36079819Y-50285714D01*
X36079819Y-51809523D02*
X36079819Y-51238095D01*
X36079819Y-51523809D02*
X35079819Y-51523809D01*
X35079819Y-51523809D02*
X35222676Y-51428571D01*
X35222676Y-51428571D02*
X35317914Y-51333333D01*
X35317914Y-51333333D02*
X35365533Y-51238095D01*
X36079819Y-52761904D02*
X36079819Y-52190476D01*
X36079819Y-52476190D02*
X35079819Y-52476190D01*
X35079819Y-52476190D02*
X35222676Y-52380952D01*
X35222676Y-52380952D02*
X35317914Y-52285714D01*
X35317914Y-52285714D02*
X35365533Y-52190476D01*
X107079819Y-59785714D02*
X106079819Y-59785714D01*
X106079819Y-59785714D02*
X106079819Y-60023809D01*
X106079819Y-60023809D02*
X106127438Y-60166666D01*
X106127438Y-60166666D02*
X106222676Y-60261904D01*
X106222676Y-60261904D02*
X106317914Y-60309523D01*
X106317914Y-60309523D02*
X106508390Y-60357142D01*
X106508390Y-60357142D02*
X106651247Y-60357142D01*
X106651247Y-60357142D02*
X106841723Y-60309523D01*
X106841723Y-60309523D02*
X106936961Y-60261904D01*
X106936961Y-60261904D02*
X107032200Y-60166666D01*
X107032200Y-60166666D02*
X107079819Y-60023809D01*
X107079819Y-60023809D02*
X107079819Y-59785714D01*
X106413152Y-61214285D02*
X107079819Y-61214285D01*
X106032200Y-60976190D02*
X106746485Y-60738095D01*
X106746485Y-60738095D02*
X106746485Y-61357142D01*
X106413152Y-62166666D02*
X107079819Y-62166666D01*
X106032200Y-61928571D02*
X106746485Y-61690476D01*
X106746485Y-61690476D02*
X106746485Y-62309523D01*
X2329819Y-135261905D02*
X1329819Y-135261905D01*
X1329819Y-135261905D02*
X1329819Y-135500000D01*
X1329819Y-135500000D02*
X1377438Y-135642857D01*
X1377438Y-135642857D02*
X1472676Y-135738095D01*
X1472676Y-135738095D02*
X1567914Y-135785714D01*
X1567914Y-135785714D02*
X1758390Y-135833333D01*
X1758390Y-135833333D02*
X1901247Y-135833333D01*
X1901247Y-135833333D02*
X2091723Y-135785714D01*
X2091723Y-135785714D02*
X2186961Y-135738095D01*
X2186961Y-135738095D02*
X2282200Y-135642857D01*
X2282200Y-135642857D02*
X2329819Y-135500000D01*
X2329819Y-135500000D02*
X2329819Y-135261905D01*
X1758390Y-136404762D02*
X1710771Y-136309524D01*
X1710771Y-136309524D02*
X1663152Y-136261905D01*
X1663152Y-136261905D02*
X1567914Y-136214286D01*
X1567914Y-136214286D02*
X1520295Y-136214286D01*
X1520295Y-136214286D02*
X1425057Y-136261905D01*
X1425057Y-136261905D02*
X1377438Y-136309524D01*
X1377438Y-136309524D02*
X1329819Y-136404762D01*
X1329819Y-136404762D02*
X1329819Y-136595238D01*
X1329819Y-136595238D02*
X1377438Y-136690476D01*
X1377438Y-136690476D02*
X1425057Y-136738095D01*
X1425057Y-136738095D02*
X1520295Y-136785714D01*
X1520295Y-136785714D02*
X1567914Y-136785714D01*
X1567914Y-136785714D02*
X1663152Y-136738095D01*
X1663152Y-136738095D02*
X1710771Y-136690476D01*
X1710771Y-136690476D02*
X1758390Y-136595238D01*
X1758390Y-136595238D02*
X1758390Y-136404762D01*
X1758390Y-136404762D02*
X1806009Y-136309524D01*
X1806009Y-136309524D02*
X1853628Y-136261905D01*
X1853628Y-136261905D02*
X1948866Y-136214286D01*
X1948866Y-136214286D02*
X2139342Y-136214286D01*
X2139342Y-136214286D02*
X2234580Y-136261905D01*
X2234580Y-136261905D02*
X2282200Y-136309524D01*
X2282200Y-136309524D02*
X2329819Y-136404762D01*
X2329819Y-136404762D02*
X2329819Y-136595238D01*
X2329819Y-136595238D02*
X2282200Y-136690476D01*
X2282200Y-136690476D02*
X2234580Y-136738095D01*
X2234580Y-136738095D02*
X2139342Y-136785714D01*
X2139342Y-136785714D02*
X1948866Y-136785714D01*
X1948866Y-136785714D02*
X1853628Y-136738095D01*
X1853628Y-136738095D02*
X1806009Y-136690476D01*
X1806009Y-136690476D02*
X1758390Y-136595238D01*
X144579819Y-22285714D02*
X143579819Y-22285714D01*
X143579819Y-22285714D02*
X143579819Y-22523809D01*
X143579819Y-22523809D02*
X143627438Y-22666666D01*
X143627438Y-22666666D02*
X143722676Y-22761904D01*
X143722676Y-22761904D02*
X143817914Y-22809523D01*
X143817914Y-22809523D02*
X144008390Y-22857142D01*
X144008390Y-22857142D02*
X144151247Y-22857142D01*
X144151247Y-22857142D02*
X144341723Y-22809523D01*
X144341723Y-22809523D02*
X144436961Y-22761904D01*
X144436961Y-22761904D02*
X144532200Y-22666666D01*
X144532200Y-22666666D02*
X144579819Y-22523809D01*
X144579819Y-22523809D02*
X144579819Y-22285714D01*
X143579819Y-23761904D02*
X143579819Y-23285714D01*
X143579819Y-23285714D02*
X144056009Y-23238095D01*
X144056009Y-23238095D02*
X144008390Y-23285714D01*
X144008390Y-23285714D02*
X143960771Y-23380952D01*
X143960771Y-23380952D02*
X143960771Y-23619047D01*
X143960771Y-23619047D02*
X144008390Y-23714285D01*
X144008390Y-23714285D02*
X144056009Y-23761904D01*
X144056009Y-23761904D02*
X144151247Y-23809523D01*
X144151247Y-23809523D02*
X144389342Y-23809523D01*
X144389342Y-23809523D02*
X144484580Y-23761904D01*
X144484580Y-23761904D02*
X144532200Y-23714285D01*
X144532200Y-23714285D02*
X144579819Y-23619047D01*
X144579819Y-23619047D02*
X144579819Y-23380952D01*
X144579819Y-23380952D02*
X144532200Y-23285714D01*
X144532200Y-23285714D02*
X144484580Y-23238095D01*
X144008390Y-24380952D02*
X143960771Y-24285714D01*
X143960771Y-24285714D02*
X143913152Y-24238095D01*
X143913152Y-24238095D02*
X143817914Y-24190476D01*
X143817914Y-24190476D02*
X143770295Y-24190476D01*
X143770295Y-24190476D02*
X143675057Y-24238095D01*
X143675057Y-24238095D02*
X143627438Y-24285714D01*
X143627438Y-24285714D02*
X143579819Y-24380952D01*
X143579819Y-24380952D02*
X143579819Y-24571428D01*
X143579819Y-24571428D02*
X143627438Y-24666666D01*
X143627438Y-24666666D02*
X143675057Y-24714285D01*
X143675057Y-24714285D02*
X143770295Y-24761904D01*
X143770295Y-24761904D02*
X143817914Y-24761904D01*
X143817914Y-24761904D02*
X143913152Y-24714285D01*
X143913152Y-24714285D02*
X143960771Y-24666666D01*
X143960771Y-24666666D02*
X144008390Y-24571428D01*
X144008390Y-24571428D02*
X144008390Y-24380952D01*
X144008390Y-24380952D02*
X144056009Y-24285714D01*
X144056009Y-24285714D02*
X144103628Y-24238095D01*
X144103628Y-24238095D02*
X144198866Y-24190476D01*
X144198866Y-24190476D02*
X144389342Y-24190476D01*
X144389342Y-24190476D02*
X144484580Y-24238095D01*
X144484580Y-24238095D02*
X144532200Y-24285714D01*
X144532200Y-24285714D02*
X144579819Y-24380952D01*
X144579819Y-24380952D02*
X144579819Y-24571428D01*
X144579819Y-24571428D02*
X144532200Y-24666666D01*
X144532200Y-24666666D02*
X144484580Y-24714285D01*
X144484580Y-24714285D02*
X144389342Y-24761904D01*
X144389342Y-24761904D02*
X144198866Y-24761904D01*
X144198866Y-24761904D02*
X144103628Y-24714285D01*
X144103628Y-24714285D02*
X144056009Y-24666666D01*
X144056009Y-24666666D02*
X144008390Y-24571428D01*
X77329819Y-59785714D02*
X76329819Y-59785714D01*
X76329819Y-59785714D02*
X76329819Y-60023809D01*
X76329819Y-60023809D02*
X76377438Y-60166666D01*
X76377438Y-60166666D02*
X76472676Y-60261904D01*
X76472676Y-60261904D02*
X76567914Y-60309523D01*
X76567914Y-60309523D02*
X76758390Y-60357142D01*
X76758390Y-60357142D02*
X76901247Y-60357142D01*
X76901247Y-60357142D02*
X77091723Y-60309523D01*
X77091723Y-60309523D02*
X77186961Y-60261904D01*
X77186961Y-60261904D02*
X77282200Y-60166666D01*
X77282200Y-60166666D02*
X77329819Y-60023809D01*
X77329819Y-60023809D02*
X77329819Y-59785714D01*
X76329819Y-60690476D02*
X76329819Y-61309523D01*
X76329819Y-61309523D02*
X76710771Y-60976190D01*
X76710771Y-60976190D02*
X76710771Y-61119047D01*
X76710771Y-61119047D02*
X76758390Y-61214285D01*
X76758390Y-61214285D02*
X76806009Y-61261904D01*
X76806009Y-61261904D02*
X76901247Y-61309523D01*
X76901247Y-61309523D02*
X77139342Y-61309523D01*
X77139342Y-61309523D02*
X77234580Y-61261904D01*
X77234580Y-61261904D02*
X77282200Y-61214285D01*
X77282200Y-61214285D02*
X77329819Y-61119047D01*
X77329819Y-61119047D02*
X77329819Y-60833333D01*
X77329819Y-60833333D02*
X77282200Y-60738095D01*
X77282200Y-60738095D02*
X77234580Y-60690476D01*
X76329819Y-62166666D02*
X76329819Y-61976190D01*
X76329819Y-61976190D02*
X76377438Y-61880952D01*
X76377438Y-61880952D02*
X76425057Y-61833333D01*
X76425057Y-61833333D02*
X76567914Y-61738095D01*
X76567914Y-61738095D02*
X76758390Y-61690476D01*
X76758390Y-61690476D02*
X77139342Y-61690476D01*
X77139342Y-61690476D02*
X77234580Y-61738095D01*
X77234580Y-61738095D02*
X77282200Y-61785714D01*
X77282200Y-61785714D02*
X77329819Y-61880952D01*
X77329819Y-61880952D02*
X77329819Y-62071428D01*
X77329819Y-62071428D02*
X77282200Y-62166666D01*
X77282200Y-62166666D02*
X77234580Y-62214285D01*
X77234580Y-62214285D02*
X77139342Y-62261904D01*
X77139342Y-62261904D02*
X76901247Y-62261904D01*
X76901247Y-62261904D02*
X76806009Y-62214285D01*
X76806009Y-62214285D02*
X76758390Y-62166666D01*
X76758390Y-62166666D02*
X76710771Y-62071428D01*
X76710771Y-62071428D02*
X76710771Y-61880952D01*
X76710771Y-61880952D02*
X76758390Y-61785714D01*
X76758390Y-61785714D02*
X76806009Y-61738095D01*
X76806009Y-61738095D02*
X76901247Y-61690476D01*
X148579819Y-50285714D02*
X147579819Y-50285714D01*
X147579819Y-50285714D02*
X147579819Y-50523809D01*
X147579819Y-50523809D02*
X147627438Y-50666666D01*
X147627438Y-50666666D02*
X147722676Y-50761904D01*
X147722676Y-50761904D02*
X147817914Y-50809523D01*
X147817914Y-50809523D02*
X148008390Y-50857142D01*
X148008390Y-50857142D02*
X148151247Y-50857142D01*
X148151247Y-50857142D02*
X148341723Y-50809523D01*
X148341723Y-50809523D02*
X148436961Y-50761904D01*
X148436961Y-50761904D02*
X148532200Y-50666666D01*
X148532200Y-50666666D02*
X148579819Y-50523809D01*
X148579819Y-50523809D02*
X148579819Y-50285714D01*
X147579819Y-51761904D02*
X147579819Y-51285714D01*
X147579819Y-51285714D02*
X148056009Y-51238095D01*
X148056009Y-51238095D02*
X148008390Y-51285714D01*
X148008390Y-51285714D02*
X147960771Y-51380952D01*
X147960771Y-51380952D02*
X147960771Y-51619047D01*
X147960771Y-51619047D02*
X148008390Y-51714285D01*
X148008390Y-51714285D02*
X148056009Y-51761904D01*
X148056009Y-51761904D02*
X148151247Y-51809523D01*
X148151247Y-51809523D02*
X148389342Y-51809523D01*
X148389342Y-51809523D02*
X148484580Y-51761904D01*
X148484580Y-51761904D02*
X148532200Y-51714285D01*
X148532200Y-51714285D02*
X148579819Y-51619047D01*
X148579819Y-51619047D02*
X148579819Y-51380952D01*
X148579819Y-51380952D02*
X148532200Y-51285714D01*
X148532200Y-51285714D02*
X148484580Y-51238095D01*
X148579819Y-52285714D02*
X148579819Y-52476190D01*
X148579819Y-52476190D02*
X148532200Y-52571428D01*
X148532200Y-52571428D02*
X148484580Y-52619047D01*
X148484580Y-52619047D02*
X148341723Y-52714285D01*
X148341723Y-52714285D02*
X148151247Y-52761904D01*
X148151247Y-52761904D02*
X147770295Y-52761904D01*
X147770295Y-52761904D02*
X147675057Y-52714285D01*
X147675057Y-52714285D02*
X147627438Y-52666666D01*
X147627438Y-52666666D02*
X147579819Y-52571428D01*
X147579819Y-52571428D02*
X147579819Y-52380952D01*
X147579819Y-52380952D02*
X147627438Y-52285714D01*
X147627438Y-52285714D02*
X147675057Y-52238095D01*
X147675057Y-52238095D02*
X147770295Y-52190476D01*
X147770295Y-52190476D02*
X148008390Y-52190476D01*
X148008390Y-52190476D02*
X148103628Y-52238095D01*
X148103628Y-52238095D02*
X148151247Y-52285714D01*
X148151247Y-52285714D02*
X148198866Y-52380952D01*
X148198866Y-52380952D02*
X148198866Y-52571428D01*
X148198866Y-52571428D02*
X148151247Y-52666666D01*
X148151247Y-52666666D02*
X148103628Y-52714285D01*
X148103628Y-52714285D02*
X148008390Y-52761904D01*
X32079819Y-59785714D02*
X31079819Y-59785714D01*
X31079819Y-59785714D02*
X31079819Y-60023809D01*
X31079819Y-60023809D02*
X31127438Y-60166666D01*
X31127438Y-60166666D02*
X31222676Y-60261904D01*
X31222676Y-60261904D02*
X31317914Y-60309523D01*
X31317914Y-60309523D02*
X31508390Y-60357142D01*
X31508390Y-60357142D02*
X31651247Y-60357142D01*
X31651247Y-60357142D02*
X31841723Y-60309523D01*
X31841723Y-60309523D02*
X31936961Y-60261904D01*
X31936961Y-60261904D02*
X32032200Y-60166666D01*
X32032200Y-60166666D02*
X32079819Y-60023809D01*
X32079819Y-60023809D02*
X32079819Y-59785714D01*
X32079819Y-61309523D02*
X32079819Y-60738095D01*
X32079819Y-61023809D02*
X31079819Y-61023809D01*
X31079819Y-61023809D02*
X31222676Y-60928571D01*
X31222676Y-60928571D02*
X31317914Y-60833333D01*
X31317914Y-60833333D02*
X31365533Y-60738095D01*
X31175057Y-61690476D02*
X31127438Y-61738095D01*
X31127438Y-61738095D02*
X31079819Y-61833333D01*
X31079819Y-61833333D02*
X31079819Y-62071428D01*
X31079819Y-62071428D02*
X31127438Y-62166666D01*
X31127438Y-62166666D02*
X31175057Y-62214285D01*
X31175057Y-62214285D02*
X31270295Y-62261904D01*
X31270295Y-62261904D02*
X31365533Y-62261904D01*
X31365533Y-62261904D02*
X31508390Y-62214285D01*
X31508390Y-62214285D02*
X32079819Y-61642857D01*
X32079819Y-61642857D02*
X32079819Y-62261904D01*
X2329819Y-60261905D02*
X1329819Y-60261905D01*
X1329819Y-60261905D02*
X1329819Y-60500000D01*
X1329819Y-60500000D02*
X1377438Y-60642857D01*
X1377438Y-60642857D02*
X1472676Y-60738095D01*
X1472676Y-60738095D02*
X1567914Y-60785714D01*
X1567914Y-60785714D02*
X1758390Y-60833333D01*
X1758390Y-60833333D02*
X1901247Y-60833333D01*
X1901247Y-60833333D02*
X2091723Y-60785714D01*
X2091723Y-60785714D02*
X2186961Y-60738095D01*
X2186961Y-60738095D02*
X2282200Y-60642857D01*
X2282200Y-60642857D02*
X2329819Y-60500000D01*
X2329819Y-60500000D02*
X2329819Y-60261905D01*
X1663152Y-61690476D02*
X2329819Y-61690476D01*
X1282200Y-61452381D02*
X1996485Y-61214286D01*
X1996485Y-61214286D02*
X1996485Y-61833333D01*
X144579819Y-97285714D02*
X143579819Y-97285714D01*
X143579819Y-97285714D02*
X143579819Y-97523809D01*
X143579819Y-97523809D02*
X143627438Y-97666666D01*
X143627438Y-97666666D02*
X143722676Y-97761904D01*
X143722676Y-97761904D02*
X143817914Y-97809523D01*
X143817914Y-97809523D02*
X144008390Y-97857142D01*
X144008390Y-97857142D02*
X144151247Y-97857142D01*
X144151247Y-97857142D02*
X144341723Y-97809523D01*
X144341723Y-97809523D02*
X144436961Y-97761904D01*
X144436961Y-97761904D02*
X144532200Y-97666666D01*
X144532200Y-97666666D02*
X144579819Y-97523809D01*
X144579819Y-97523809D02*
X144579819Y-97285714D01*
X143579819Y-98714285D02*
X143579819Y-98523809D01*
X143579819Y-98523809D02*
X143627438Y-98428571D01*
X143627438Y-98428571D02*
X143675057Y-98380952D01*
X143675057Y-98380952D02*
X143817914Y-98285714D01*
X143817914Y-98285714D02*
X144008390Y-98238095D01*
X144008390Y-98238095D02*
X144389342Y-98238095D01*
X144389342Y-98238095D02*
X144484580Y-98285714D01*
X144484580Y-98285714D02*
X144532200Y-98333333D01*
X144532200Y-98333333D02*
X144579819Y-98428571D01*
X144579819Y-98428571D02*
X144579819Y-98619047D01*
X144579819Y-98619047D02*
X144532200Y-98714285D01*
X144532200Y-98714285D02*
X144484580Y-98761904D01*
X144484580Y-98761904D02*
X144389342Y-98809523D01*
X144389342Y-98809523D02*
X144151247Y-98809523D01*
X144151247Y-98809523D02*
X144056009Y-98761904D01*
X144056009Y-98761904D02*
X144008390Y-98714285D01*
X144008390Y-98714285D02*
X143960771Y-98619047D01*
X143960771Y-98619047D02*
X143960771Y-98428571D01*
X143960771Y-98428571D02*
X144008390Y-98333333D01*
X144008390Y-98333333D02*
X144056009Y-98285714D01*
X144056009Y-98285714D02*
X144151247Y-98238095D01*
X143675057Y-99190476D02*
X143627438Y-99238095D01*
X143627438Y-99238095D02*
X143579819Y-99333333D01*
X143579819Y-99333333D02*
X143579819Y-99571428D01*
X143579819Y-99571428D02*
X143627438Y-99666666D01*
X143627438Y-99666666D02*
X143675057Y-99714285D01*
X143675057Y-99714285D02*
X143770295Y-99761904D01*
X143770295Y-99761904D02*
X143865533Y-99761904D01*
X143865533Y-99761904D02*
X144008390Y-99714285D01*
X144008390Y-99714285D02*
X144579819Y-99142857D01*
X144579819Y-99142857D02*
X144579819Y-99761904D01*
X36079819Y-125285714D02*
X35079819Y-125285714D01*
X35079819Y-125285714D02*
X35079819Y-125523809D01*
X35079819Y-125523809D02*
X35127438Y-125666666D01*
X35127438Y-125666666D02*
X35222676Y-125761904D01*
X35222676Y-125761904D02*
X35317914Y-125809523D01*
X35317914Y-125809523D02*
X35508390Y-125857142D01*
X35508390Y-125857142D02*
X35651247Y-125857142D01*
X35651247Y-125857142D02*
X35841723Y-125809523D01*
X35841723Y-125809523D02*
X35936961Y-125761904D01*
X35936961Y-125761904D02*
X36032200Y-125666666D01*
X36032200Y-125666666D02*
X36079819Y-125523809D01*
X36079819Y-125523809D02*
X36079819Y-125285714D01*
X36079819Y-126809523D02*
X36079819Y-126238095D01*
X36079819Y-126523809D02*
X35079819Y-126523809D01*
X35079819Y-126523809D02*
X35222676Y-126428571D01*
X35222676Y-126428571D02*
X35317914Y-126333333D01*
X35317914Y-126333333D02*
X35365533Y-126238095D01*
X35079819Y-127714285D02*
X35079819Y-127238095D01*
X35079819Y-127238095D02*
X35556009Y-127190476D01*
X35556009Y-127190476D02*
X35508390Y-127238095D01*
X35508390Y-127238095D02*
X35460771Y-127333333D01*
X35460771Y-127333333D02*
X35460771Y-127571428D01*
X35460771Y-127571428D02*
X35508390Y-127666666D01*
X35508390Y-127666666D02*
X35556009Y-127714285D01*
X35556009Y-127714285D02*
X35651247Y-127761904D01*
X35651247Y-127761904D02*
X35889342Y-127761904D01*
X35889342Y-127761904D02*
X35984580Y-127714285D01*
X35984580Y-127714285D02*
X36032200Y-127666666D01*
X36032200Y-127666666D02*
X36079819Y-127571428D01*
X36079819Y-127571428D02*
X36079819Y-127333333D01*
X36079819Y-127333333D02*
X36032200Y-127238095D01*
X36032200Y-127238095D02*
X35984580Y-127190476D01*
X118829819Y-87785714D02*
X117829819Y-87785714D01*
X117829819Y-87785714D02*
X117829819Y-88023809D01*
X117829819Y-88023809D02*
X117877438Y-88166666D01*
X117877438Y-88166666D02*
X117972676Y-88261904D01*
X117972676Y-88261904D02*
X118067914Y-88309523D01*
X118067914Y-88309523D02*
X118258390Y-88357142D01*
X118258390Y-88357142D02*
X118401247Y-88357142D01*
X118401247Y-88357142D02*
X118591723Y-88309523D01*
X118591723Y-88309523D02*
X118686961Y-88261904D01*
X118686961Y-88261904D02*
X118782200Y-88166666D01*
X118782200Y-88166666D02*
X118829819Y-88023809D01*
X118829819Y-88023809D02*
X118829819Y-87785714D01*
X117829819Y-89261904D02*
X117829819Y-88785714D01*
X117829819Y-88785714D02*
X118306009Y-88738095D01*
X118306009Y-88738095D02*
X118258390Y-88785714D01*
X118258390Y-88785714D02*
X118210771Y-88880952D01*
X118210771Y-88880952D02*
X118210771Y-89119047D01*
X118210771Y-89119047D02*
X118258390Y-89214285D01*
X118258390Y-89214285D02*
X118306009Y-89261904D01*
X118306009Y-89261904D02*
X118401247Y-89309523D01*
X118401247Y-89309523D02*
X118639342Y-89309523D01*
X118639342Y-89309523D02*
X118734580Y-89261904D01*
X118734580Y-89261904D02*
X118782200Y-89214285D01*
X118782200Y-89214285D02*
X118829819Y-89119047D01*
X118829819Y-89119047D02*
X118829819Y-88880952D01*
X118829819Y-88880952D02*
X118782200Y-88785714D01*
X118782200Y-88785714D02*
X118734580Y-88738095D01*
X117829819Y-89642857D02*
X117829819Y-90261904D01*
X117829819Y-90261904D02*
X118210771Y-89928571D01*
X118210771Y-89928571D02*
X118210771Y-90071428D01*
X118210771Y-90071428D02*
X118258390Y-90166666D01*
X118258390Y-90166666D02*
X118306009Y-90214285D01*
X118306009Y-90214285D02*
X118401247Y-90261904D01*
X118401247Y-90261904D02*
X118639342Y-90261904D01*
X118639342Y-90261904D02*
X118734580Y-90214285D01*
X118734580Y-90214285D02*
X118782200Y-90166666D01*
X118782200Y-90166666D02*
X118829819Y-90071428D01*
X118829819Y-90071428D02*
X118829819Y-89785714D01*
X118829819Y-89785714D02*
X118782200Y-89690476D01*
X118782200Y-89690476D02*
X118734580Y-89642857D01*
X148579819Y-12785714D02*
X147579819Y-12785714D01*
X147579819Y-12785714D02*
X147579819Y-13023809D01*
X147579819Y-13023809D02*
X147627438Y-13166666D01*
X147627438Y-13166666D02*
X147722676Y-13261904D01*
X147722676Y-13261904D02*
X147817914Y-13309523D01*
X147817914Y-13309523D02*
X148008390Y-13357142D01*
X148008390Y-13357142D02*
X148151247Y-13357142D01*
X148151247Y-13357142D02*
X148341723Y-13309523D01*
X148341723Y-13309523D02*
X148436961Y-13261904D01*
X148436961Y-13261904D02*
X148532200Y-13166666D01*
X148532200Y-13166666D02*
X148579819Y-13023809D01*
X148579819Y-13023809D02*
X148579819Y-12785714D01*
X147579819Y-14261904D02*
X147579819Y-13785714D01*
X147579819Y-13785714D02*
X148056009Y-13738095D01*
X148056009Y-13738095D02*
X148008390Y-13785714D01*
X148008390Y-13785714D02*
X147960771Y-13880952D01*
X147960771Y-13880952D02*
X147960771Y-14119047D01*
X147960771Y-14119047D02*
X148008390Y-14214285D01*
X148008390Y-14214285D02*
X148056009Y-14261904D01*
X148056009Y-14261904D02*
X148151247Y-14309523D01*
X148151247Y-14309523D02*
X148389342Y-14309523D01*
X148389342Y-14309523D02*
X148484580Y-14261904D01*
X148484580Y-14261904D02*
X148532200Y-14214285D01*
X148532200Y-14214285D02*
X148579819Y-14119047D01*
X148579819Y-14119047D02*
X148579819Y-13880952D01*
X148579819Y-13880952D02*
X148532200Y-13785714D01*
X148532200Y-13785714D02*
X148484580Y-13738095D01*
X147579819Y-14642857D02*
X147579819Y-15309523D01*
X147579819Y-15309523D02*
X148579819Y-14880952D01*
X43829819Y-125285714D02*
X42829819Y-125285714D01*
X42829819Y-125285714D02*
X42829819Y-125523809D01*
X42829819Y-125523809D02*
X42877438Y-125666666D01*
X42877438Y-125666666D02*
X42972676Y-125761904D01*
X42972676Y-125761904D02*
X43067914Y-125809523D01*
X43067914Y-125809523D02*
X43258390Y-125857142D01*
X43258390Y-125857142D02*
X43401247Y-125857142D01*
X43401247Y-125857142D02*
X43591723Y-125809523D01*
X43591723Y-125809523D02*
X43686961Y-125761904D01*
X43686961Y-125761904D02*
X43782200Y-125666666D01*
X43782200Y-125666666D02*
X43829819Y-125523809D01*
X43829819Y-125523809D02*
X43829819Y-125285714D01*
X42925057Y-126238095D02*
X42877438Y-126285714D01*
X42877438Y-126285714D02*
X42829819Y-126380952D01*
X42829819Y-126380952D02*
X42829819Y-126619047D01*
X42829819Y-126619047D02*
X42877438Y-126714285D01*
X42877438Y-126714285D02*
X42925057Y-126761904D01*
X42925057Y-126761904D02*
X43020295Y-126809523D01*
X43020295Y-126809523D02*
X43115533Y-126809523D01*
X43115533Y-126809523D02*
X43258390Y-126761904D01*
X43258390Y-126761904D02*
X43829819Y-126190476D01*
X43829819Y-126190476D02*
X43829819Y-126809523D01*
X42829819Y-127142857D02*
X42829819Y-127761904D01*
X42829819Y-127761904D02*
X43210771Y-127428571D01*
X43210771Y-127428571D02*
X43210771Y-127571428D01*
X43210771Y-127571428D02*
X43258390Y-127666666D01*
X43258390Y-127666666D02*
X43306009Y-127714285D01*
X43306009Y-127714285D02*
X43401247Y-127761904D01*
X43401247Y-127761904D02*
X43639342Y-127761904D01*
X43639342Y-127761904D02*
X43734580Y-127714285D01*
X43734580Y-127714285D02*
X43782200Y-127666666D01*
X43782200Y-127666666D02*
X43829819Y-127571428D01*
X43829819Y-127571428D02*
X43829819Y-127285714D01*
X43829819Y-127285714D02*
X43782200Y-127190476D01*
X43782200Y-127190476D02*
X43734580Y-127142857D01*
X69579819Y-22285714D02*
X68579819Y-22285714D01*
X68579819Y-22285714D02*
X68579819Y-22523809D01*
X68579819Y-22523809D02*
X68627438Y-22666666D01*
X68627438Y-22666666D02*
X68722676Y-22761904D01*
X68722676Y-22761904D02*
X68817914Y-22809523D01*
X68817914Y-22809523D02*
X69008390Y-22857142D01*
X69008390Y-22857142D02*
X69151247Y-22857142D01*
X69151247Y-22857142D02*
X69341723Y-22809523D01*
X69341723Y-22809523D02*
X69436961Y-22761904D01*
X69436961Y-22761904D02*
X69532200Y-22666666D01*
X69532200Y-22666666D02*
X69579819Y-22523809D01*
X69579819Y-22523809D02*
X69579819Y-22285714D01*
X68675057Y-23238095D02*
X68627438Y-23285714D01*
X68627438Y-23285714D02*
X68579819Y-23380952D01*
X68579819Y-23380952D02*
X68579819Y-23619047D01*
X68579819Y-23619047D02*
X68627438Y-23714285D01*
X68627438Y-23714285D02*
X68675057Y-23761904D01*
X68675057Y-23761904D02*
X68770295Y-23809523D01*
X68770295Y-23809523D02*
X68865533Y-23809523D01*
X68865533Y-23809523D02*
X69008390Y-23761904D01*
X69008390Y-23761904D02*
X69579819Y-23190476D01*
X69579819Y-23190476D02*
X69579819Y-23809523D01*
X68579819Y-24666666D02*
X68579819Y-24476190D01*
X68579819Y-24476190D02*
X68627438Y-24380952D01*
X68627438Y-24380952D02*
X68675057Y-24333333D01*
X68675057Y-24333333D02*
X68817914Y-24238095D01*
X68817914Y-24238095D02*
X69008390Y-24190476D01*
X69008390Y-24190476D02*
X69389342Y-24190476D01*
X69389342Y-24190476D02*
X69484580Y-24238095D01*
X69484580Y-24238095D02*
X69532200Y-24285714D01*
X69532200Y-24285714D02*
X69579819Y-24380952D01*
X69579819Y-24380952D02*
X69579819Y-24571428D01*
X69579819Y-24571428D02*
X69532200Y-24666666D01*
X69532200Y-24666666D02*
X69484580Y-24714285D01*
X69484580Y-24714285D02*
X69389342Y-24761904D01*
X69389342Y-24761904D02*
X69151247Y-24761904D01*
X69151247Y-24761904D02*
X69056009Y-24714285D01*
X69056009Y-24714285D02*
X69008390Y-24666666D01*
X69008390Y-24666666D02*
X68960771Y-24571428D01*
X68960771Y-24571428D02*
X68960771Y-24380952D01*
X68960771Y-24380952D02*
X69008390Y-24285714D01*
X69008390Y-24285714D02*
X69056009Y-24238095D01*
X69056009Y-24238095D02*
X69151247Y-24190476D01*
X73579819Y-87785714D02*
X72579819Y-87785714D01*
X72579819Y-87785714D02*
X72579819Y-88023809D01*
X72579819Y-88023809D02*
X72627438Y-88166666D01*
X72627438Y-88166666D02*
X72722676Y-88261904D01*
X72722676Y-88261904D02*
X72817914Y-88309523D01*
X72817914Y-88309523D02*
X73008390Y-88357142D01*
X73008390Y-88357142D02*
X73151247Y-88357142D01*
X73151247Y-88357142D02*
X73341723Y-88309523D01*
X73341723Y-88309523D02*
X73436961Y-88261904D01*
X73436961Y-88261904D02*
X73532200Y-88166666D01*
X73532200Y-88166666D02*
X73579819Y-88023809D01*
X73579819Y-88023809D02*
X73579819Y-87785714D01*
X72675057Y-88738095D02*
X72627438Y-88785714D01*
X72627438Y-88785714D02*
X72579819Y-88880952D01*
X72579819Y-88880952D02*
X72579819Y-89119047D01*
X72579819Y-89119047D02*
X72627438Y-89214285D01*
X72627438Y-89214285D02*
X72675057Y-89261904D01*
X72675057Y-89261904D02*
X72770295Y-89309523D01*
X72770295Y-89309523D02*
X72865533Y-89309523D01*
X72865533Y-89309523D02*
X73008390Y-89261904D01*
X73008390Y-89261904D02*
X73579819Y-88690476D01*
X73579819Y-88690476D02*
X73579819Y-89309523D01*
X73579819Y-89785714D02*
X73579819Y-89976190D01*
X73579819Y-89976190D02*
X73532200Y-90071428D01*
X73532200Y-90071428D02*
X73484580Y-90119047D01*
X73484580Y-90119047D02*
X73341723Y-90214285D01*
X73341723Y-90214285D02*
X73151247Y-90261904D01*
X73151247Y-90261904D02*
X72770295Y-90261904D01*
X72770295Y-90261904D02*
X72675057Y-90214285D01*
X72675057Y-90214285D02*
X72627438Y-90166666D01*
X72627438Y-90166666D02*
X72579819Y-90071428D01*
X72579819Y-90071428D02*
X72579819Y-89880952D01*
X72579819Y-89880952D02*
X72627438Y-89785714D01*
X72627438Y-89785714D02*
X72675057Y-89738095D01*
X72675057Y-89738095D02*
X72770295Y-89690476D01*
X72770295Y-89690476D02*
X73008390Y-89690476D01*
X73008390Y-89690476D02*
X73103628Y-89738095D01*
X73103628Y-89738095D02*
X73151247Y-89785714D01*
X73151247Y-89785714D02*
X73198866Y-89880952D01*
X73198866Y-89880952D02*
X73198866Y-90071428D01*
X73198866Y-90071428D02*
X73151247Y-90166666D01*
X73151247Y-90166666D02*
X73103628Y-90214285D01*
X73103628Y-90214285D02*
X73008390Y-90261904D01*
X114829819Y-97285714D02*
X113829819Y-97285714D01*
X113829819Y-97285714D02*
X113829819Y-97523809D01*
X113829819Y-97523809D02*
X113877438Y-97666666D01*
X113877438Y-97666666D02*
X113972676Y-97761904D01*
X113972676Y-97761904D02*
X114067914Y-97809523D01*
X114067914Y-97809523D02*
X114258390Y-97857142D01*
X114258390Y-97857142D02*
X114401247Y-97857142D01*
X114401247Y-97857142D02*
X114591723Y-97809523D01*
X114591723Y-97809523D02*
X114686961Y-97761904D01*
X114686961Y-97761904D02*
X114782200Y-97666666D01*
X114782200Y-97666666D02*
X114829819Y-97523809D01*
X114829819Y-97523809D02*
X114829819Y-97285714D01*
X113829819Y-98761904D02*
X113829819Y-98285714D01*
X113829819Y-98285714D02*
X114306009Y-98238095D01*
X114306009Y-98238095D02*
X114258390Y-98285714D01*
X114258390Y-98285714D02*
X114210771Y-98380952D01*
X114210771Y-98380952D02*
X114210771Y-98619047D01*
X114210771Y-98619047D02*
X114258390Y-98714285D01*
X114258390Y-98714285D02*
X114306009Y-98761904D01*
X114306009Y-98761904D02*
X114401247Y-98809523D01*
X114401247Y-98809523D02*
X114639342Y-98809523D01*
X114639342Y-98809523D02*
X114734580Y-98761904D01*
X114734580Y-98761904D02*
X114782200Y-98714285D01*
X114782200Y-98714285D02*
X114829819Y-98619047D01*
X114829819Y-98619047D02*
X114829819Y-98380952D01*
X114829819Y-98380952D02*
X114782200Y-98285714D01*
X114782200Y-98285714D02*
X114734580Y-98238095D01*
X114163152Y-99666666D02*
X114829819Y-99666666D01*
X113782200Y-99428571D02*
X114496485Y-99190476D01*
X114496485Y-99190476D02*
X114496485Y-99809523D01*
X6329819Y-125761905D02*
X5329819Y-125761905D01*
X5329819Y-125761905D02*
X5329819Y-126000000D01*
X5329819Y-126000000D02*
X5377438Y-126142857D01*
X5377438Y-126142857D02*
X5472676Y-126238095D01*
X5472676Y-126238095D02*
X5567914Y-126285714D01*
X5567914Y-126285714D02*
X5758390Y-126333333D01*
X5758390Y-126333333D02*
X5901247Y-126333333D01*
X5901247Y-126333333D02*
X6091723Y-126285714D01*
X6091723Y-126285714D02*
X6186961Y-126238095D01*
X6186961Y-126238095D02*
X6282200Y-126142857D01*
X6282200Y-126142857D02*
X6329819Y-126000000D01*
X6329819Y-126000000D02*
X6329819Y-125761905D01*
X5329819Y-126666667D02*
X5329819Y-127333333D01*
X5329819Y-127333333D02*
X6329819Y-126904762D01*
X107079819Y-97285714D02*
X106079819Y-97285714D01*
X106079819Y-97285714D02*
X106079819Y-97523809D01*
X106079819Y-97523809D02*
X106127438Y-97666666D01*
X106127438Y-97666666D02*
X106222676Y-97761904D01*
X106222676Y-97761904D02*
X106317914Y-97809523D01*
X106317914Y-97809523D02*
X106508390Y-97857142D01*
X106508390Y-97857142D02*
X106651247Y-97857142D01*
X106651247Y-97857142D02*
X106841723Y-97809523D01*
X106841723Y-97809523D02*
X106936961Y-97761904D01*
X106936961Y-97761904D02*
X107032200Y-97666666D01*
X107032200Y-97666666D02*
X107079819Y-97523809D01*
X107079819Y-97523809D02*
X107079819Y-97285714D01*
X106413152Y-98714285D02*
X107079819Y-98714285D01*
X106032200Y-98476190D02*
X106746485Y-98238095D01*
X106746485Y-98238095D02*
X106746485Y-98857142D01*
X106079819Y-99666666D02*
X106079819Y-99476190D01*
X106079819Y-99476190D02*
X106127438Y-99380952D01*
X106127438Y-99380952D02*
X106175057Y-99333333D01*
X106175057Y-99333333D02*
X106317914Y-99238095D01*
X106317914Y-99238095D02*
X106508390Y-99190476D01*
X106508390Y-99190476D02*
X106889342Y-99190476D01*
X106889342Y-99190476D02*
X106984580Y-99238095D01*
X106984580Y-99238095D02*
X107032200Y-99285714D01*
X107032200Y-99285714D02*
X107079819Y-99380952D01*
X107079819Y-99380952D02*
X107079819Y-99571428D01*
X107079819Y-99571428D02*
X107032200Y-99666666D01*
X107032200Y-99666666D02*
X106984580Y-99714285D01*
X106984580Y-99714285D02*
X106889342Y-99761904D01*
X106889342Y-99761904D02*
X106651247Y-99761904D01*
X106651247Y-99761904D02*
X106556009Y-99714285D01*
X106556009Y-99714285D02*
X106508390Y-99666666D01*
X106508390Y-99666666D02*
X106460771Y-99571428D01*
X106460771Y-99571428D02*
X106460771Y-99380952D01*
X106460771Y-99380952D02*
X106508390Y-99285714D01*
X106508390Y-99285714D02*
X106556009Y-99238095D01*
X106556009Y-99238095D02*
X106651247Y-99190476D01*
X114829819Y-59785714D02*
X113829819Y-59785714D01*
X113829819Y-59785714D02*
X113829819Y-60023809D01*
X113829819Y-60023809D02*
X113877438Y-60166666D01*
X113877438Y-60166666D02*
X113972676Y-60261904D01*
X113972676Y-60261904D02*
X114067914Y-60309523D01*
X114067914Y-60309523D02*
X114258390Y-60357142D01*
X114258390Y-60357142D02*
X114401247Y-60357142D01*
X114401247Y-60357142D02*
X114591723Y-60309523D01*
X114591723Y-60309523D02*
X114686961Y-60261904D01*
X114686961Y-60261904D02*
X114782200Y-60166666D01*
X114782200Y-60166666D02*
X114829819Y-60023809D01*
X114829819Y-60023809D02*
X114829819Y-59785714D01*
X113829819Y-61261904D02*
X113829819Y-60785714D01*
X113829819Y-60785714D02*
X114306009Y-60738095D01*
X114306009Y-60738095D02*
X114258390Y-60785714D01*
X114258390Y-60785714D02*
X114210771Y-60880952D01*
X114210771Y-60880952D02*
X114210771Y-61119047D01*
X114210771Y-61119047D02*
X114258390Y-61214285D01*
X114258390Y-61214285D02*
X114306009Y-61261904D01*
X114306009Y-61261904D02*
X114401247Y-61309523D01*
X114401247Y-61309523D02*
X114639342Y-61309523D01*
X114639342Y-61309523D02*
X114734580Y-61261904D01*
X114734580Y-61261904D02*
X114782200Y-61214285D01*
X114782200Y-61214285D02*
X114829819Y-61119047D01*
X114829819Y-61119047D02*
X114829819Y-60880952D01*
X114829819Y-60880952D02*
X114782200Y-60785714D01*
X114782200Y-60785714D02*
X114734580Y-60738095D01*
X113925057Y-61690476D02*
X113877438Y-61738095D01*
X113877438Y-61738095D02*
X113829819Y-61833333D01*
X113829819Y-61833333D02*
X113829819Y-62071428D01*
X113829819Y-62071428D02*
X113877438Y-62166666D01*
X113877438Y-62166666D02*
X113925057Y-62214285D01*
X113925057Y-62214285D02*
X114020295Y-62261904D01*
X114020295Y-62261904D02*
X114115533Y-62261904D01*
X114115533Y-62261904D02*
X114258390Y-62214285D01*
X114258390Y-62214285D02*
X114829819Y-61642857D01*
X114829819Y-61642857D02*
X114829819Y-62261904D01*
X148579819Y-125285714D02*
X147579819Y-125285714D01*
X147579819Y-125285714D02*
X147579819Y-125523809D01*
X147579819Y-125523809D02*
X147627438Y-125666666D01*
X147627438Y-125666666D02*
X147722676Y-125761904D01*
X147722676Y-125761904D02*
X147817914Y-125809523D01*
X147817914Y-125809523D02*
X148008390Y-125857142D01*
X148008390Y-125857142D02*
X148151247Y-125857142D01*
X148151247Y-125857142D02*
X148341723Y-125809523D01*
X148341723Y-125809523D02*
X148436961Y-125761904D01*
X148436961Y-125761904D02*
X148532200Y-125666666D01*
X148532200Y-125666666D02*
X148579819Y-125523809D01*
X148579819Y-125523809D02*
X148579819Y-125285714D01*
X147579819Y-126714285D02*
X147579819Y-126523809D01*
X147579819Y-126523809D02*
X147627438Y-126428571D01*
X147627438Y-126428571D02*
X147675057Y-126380952D01*
X147675057Y-126380952D02*
X147817914Y-126285714D01*
X147817914Y-126285714D02*
X148008390Y-126238095D01*
X148008390Y-126238095D02*
X148389342Y-126238095D01*
X148389342Y-126238095D02*
X148484580Y-126285714D01*
X148484580Y-126285714D02*
X148532200Y-126333333D01*
X148532200Y-126333333D02*
X148579819Y-126428571D01*
X148579819Y-126428571D02*
X148579819Y-126619047D01*
X148579819Y-126619047D02*
X148532200Y-126714285D01*
X148532200Y-126714285D02*
X148484580Y-126761904D01*
X148484580Y-126761904D02*
X148389342Y-126809523D01*
X148389342Y-126809523D02*
X148151247Y-126809523D01*
X148151247Y-126809523D02*
X148056009Y-126761904D01*
X148056009Y-126761904D02*
X148008390Y-126714285D01*
X148008390Y-126714285D02*
X147960771Y-126619047D01*
X147960771Y-126619047D02*
X147960771Y-126428571D01*
X147960771Y-126428571D02*
X148008390Y-126333333D01*
X148008390Y-126333333D02*
X148056009Y-126285714D01*
X148056009Y-126285714D02*
X148151247Y-126238095D01*
X147579819Y-127142857D02*
X147579819Y-127761904D01*
X147579819Y-127761904D02*
X147960771Y-127428571D01*
X147960771Y-127428571D02*
X147960771Y-127571428D01*
X147960771Y-127571428D02*
X148008390Y-127666666D01*
X148008390Y-127666666D02*
X148056009Y-127714285D01*
X148056009Y-127714285D02*
X148151247Y-127761904D01*
X148151247Y-127761904D02*
X148389342Y-127761904D01*
X148389342Y-127761904D02*
X148484580Y-127714285D01*
X148484580Y-127714285D02*
X148532200Y-127666666D01*
X148532200Y-127666666D02*
X148579819Y-127571428D01*
X148579819Y-127571428D02*
X148579819Y-127285714D01*
X148579819Y-127285714D02*
X148532200Y-127190476D01*
X148532200Y-127190476D02*
X148484580Y-127142857D01*
X73579819Y-125285714D02*
X72579819Y-125285714D01*
X72579819Y-125285714D02*
X72579819Y-125523809D01*
X72579819Y-125523809D02*
X72627438Y-125666666D01*
X72627438Y-125666666D02*
X72722676Y-125761904D01*
X72722676Y-125761904D02*
X72817914Y-125809523D01*
X72817914Y-125809523D02*
X73008390Y-125857142D01*
X73008390Y-125857142D02*
X73151247Y-125857142D01*
X73151247Y-125857142D02*
X73341723Y-125809523D01*
X73341723Y-125809523D02*
X73436961Y-125761904D01*
X73436961Y-125761904D02*
X73532200Y-125666666D01*
X73532200Y-125666666D02*
X73579819Y-125523809D01*
X73579819Y-125523809D02*
X73579819Y-125285714D01*
X72579819Y-126190476D02*
X72579819Y-126809523D01*
X72579819Y-126809523D02*
X72960771Y-126476190D01*
X72960771Y-126476190D02*
X72960771Y-126619047D01*
X72960771Y-126619047D02*
X73008390Y-126714285D01*
X73008390Y-126714285D02*
X73056009Y-126761904D01*
X73056009Y-126761904D02*
X73151247Y-126809523D01*
X73151247Y-126809523D02*
X73389342Y-126809523D01*
X73389342Y-126809523D02*
X73484580Y-126761904D01*
X73484580Y-126761904D02*
X73532200Y-126714285D01*
X73532200Y-126714285D02*
X73579819Y-126619047D01*
X73579819Y-126619047D02*
X73579819Y-126333333D01*
X73579819Y-126333333D02*
X73532200Y-126238095D01*
X73532200Y-126238095D02*
X73484580Y-126190476D01*
X73579819Y-127761904D02*
X73579819Y-127190476D01*
X73579819Y-127476190D02*
X72579819Y-127476190D01*
X72579819Y-127476190D02*
X72722676Y-127380952D01*
X72722676Y-127380952D02*
X72817914Y-127285714D01*
X72817914Y-127285714D02*
X72865533Y-127190476D01*
X77329819Y-97285714D02*
X76329819Y-97285714D01*
X76329819Y-97285714D02*
X76329819Y-97523809D01*
X76329819Y-97523809D02*
X76377438Y-97666666D01*
X76377438Y-97666666D02*
X76472676Y-97761904D01*
X76472676Y-97761904D02*
X76567914Y-97809523D01*
X76567914Y-97809523D02*
X76758390Y-97857142D01*
X76758390Y-97857142D02*
X76901247Y-97857142D01*
X76901247Y-97857142D02*
X77091723Y-97809523D01*
X77091723Y-97809523D02*
X77186961Y-97761904D01*
X77186961Y-97761904D02*
X77282200Y-97666666D01*
X77282200Y-97666666D02*
X77329819Y-97523809D01*
X77329819Y-97523809D02*
X77329819Y-97285714D01*
X76329819Y-98190476D02*
X76329819Y-98809523D01*
X76329819Y-98809523D02*
X76710771Y-98476190D01*
X76710771Y-98476190D02*
X76710771Y-98619047D01*
X76710771Y-98619047D02*
X76758390Y-98714285D01*
X76758390Y-98714285D02*
X76806009Y-98761904D01*
X76806009Y-98761904D02*
X76901247Y-98809523D01*
X76901247Y-98809523D02*
X77139342Y-98809523D01*
X77139342Y-98809523D02*
X77234580Y-98761904D01*
X77234580Y-98761904D02*
X77282200Y-98714285D01*
X77282200Y-98714285D02*
X77329819Y-98619047D01*
X77329819Y-98619047D02*
X77329819Y-98333333D01*
X77329819Y-98333333D02*
X77282200Y-98238095D01*
X77282200Y-98238095D02*
X77234580Y-98190476D01*
X76758390Y-99380952D02*
X76710771Y-99285714D01*
X76710771Y-99285714D02*
X76663152Y-99238095D01*
X76663152Y-99238095D02*
X76567914Y-99190476D01*
X76567914Y-99190476D02*
X76520295Y-99190476D01*
X76520295Y-99190476D02*
X76425057Y-99238095D01*
X76425057Y-99238095D02*
X76377438Y-99285714D01*
X76377438Y-99285714D02*
X76329819Y-99380952D01*
X76329819Y-99380952D02*
X76329819Y-99571428D01*
X76329819Y-99571428D02*
X76377438Y-99666666D01*
X76377438Y-99666666D02*
X76425057Y-99714285D01*
X76425057Y-99714285D02*
X76520295Y-99761904D01*
X76520295Y-99761904D02*
X76567914Y-99761904D01*
X76567914Y-99761904D02*
X76663152Y-99714285D01*
X76663152Y-99714285D02*
X76710771Y-99666666D01*
X76710771Y-99666666D02*
X76758390Y-99571428D01*
X76758390Y-99571428D02*
X76758390Y-99380952D01*
X76758390Y-99380952D02*
X76806009Y-99285714D01*
X76806009Y-99285714D02*
X76853628Y-99238095D01*
X76853628Y-99238095D02*
X76948866Y-99190476D01*
X76948866Y-99190476D02*
X77139342Y-99190476D01*
X77139342Y-99190476D02*
X77234580Y-99238095D01*
X77234580Y-99238095D02*
X77282200Y-99285714D01*
X77282200Y-99285714D02*
X77329819Y-99380952D01*
X77329819Y-99380952D02*
X77329819Y-99571428D01*
X77329819Y-99571428D02*
X77282200Y-99666666D01*
X77282200Y-99666666D02*
X77234580Y-99714285D01*
X77234580Y-99714285D02*
X77139342Y-99761904D01*
X77139342Y-99761904D02*
X76948866Y-99761904D01*
X76948866Y-99761904D02*
X76853628Y-99714285D01*
X76853628Y-99714285D02*
X76806009Y-99666666D01*
X76806009Y-99666666D02*
X76758390Y-99571428D01*
X6329819Y-13261905D02*
X5329819Y-13261905D01*
X5329819Y-13261905D02*
X5329819Y-13500000D01*
X5329819Y-13500000D02*
X5377438Y-13642857D01*
X5377438Y-13642857D02*
X5472676Y-13738095D01*
X5472676Y-13738095D02*
X5567914Y-13785714D01*
X5567914Y-13785714D02*
X5758390Y-13833333D01*
X5758390Y-13833333D02*
X5901247Y-13833333D01*
X5901247Y-13833333D02*
X6091723Y-13785714D01*
X6091723Y-13785714D02*
X6186961Y-13738095D01*
X6186961Y-13738095D02*
X6282200Y-13642857D01*
X6282200Y-13642857D02*
X6329819Y-13500000D01*
X6329819Y-13500000D02*
X6329819Y-13261905D01*
X6329819Y-14785714D02*
X6329819Y-14214286D01*
X6329819Y-14500000D02*
X5329819Y-14500000D01*
X5329819Y-14500000D02*
X5472676Y-14404762D01*
X5472676Y-14404762D02*
X5567914Y-14309524D01*
X5567914Y-14309524D02*
X5615533Y-14214286D01*
X32079819Y-134785714D02*
X31079819Y-134785714D01*
X31079819Y-134785714D02*
X31079819Y-135023809D01*
X31079819Y-135023809D02*
X31127438Y-135166666D01*
X31127438Y-135166666D02*
X31222676Y-135261904D01*
X31222676Y-135261904D02*
X31317914Y-135309523D01*
X31317914Y-135309523D02*
X31508390Y-135357142D01*
X31508390Y-135357142D02*
X31651247Y-135357142D01*
X31651247Y-135357142D02*
X31841723Y-135309523D01*
X31841723Y-135309523D02*
X31936961Y-135261904D01*
X31936961Y-135261904D02*
X32032200Y-135166666D01*
X32032200Y-135166666D02*
X32079819Y-135023809D01*
X32079819Y-135023809D02*
X32079819Y-134785714D01*
X32079819Y-136309523D02*
X32079819Y-135738095D01*
X32079819Y-136023809D02*
X31079819Y-136023809D01*
X31079819Y-136023809D02*
X31222676Y-135928571D01*
X31222676Y-135928571D02*
X31317914Y-135833333D01*
X31317914Y-135833333D02*
X31365533Y-135738095D01*
X31079819Y-137166666D02*
X31079819Y-136976190D01*
X31079819Y-136976190D02*
X31127438Y-136880952D01*
X31127438Y-136880952D02*
X31175057Y-136833333D01*
X31175057Y-136833333D02*
X31317914Y-136738095D01*
X31317914Y-136738095D02*
X31508390Y-136690476D01*
X31508390Y-136690476D02*
X31889342Y-136690476D01*
X31889342Y-136690476D02*
X31984580Y-136738095D01*
X31984580Y-136738095D02*
X32032200Y-136785714D01*
X32032200Y-136785714D02*
X32079819Y-136880952D01*
X32079819Y-136880952D02*
X32079819Y-137071428D01*
X32079819Y-137071428D02*
X32032200Y-137166666D01*
X32032200Y-137166666D02*
X31984580Y-137214285D01*
X31984580Y-137214285D02*
X31889342Y-137261904D01*
X31889342Y-137261904D02*
X31651247Y-137261904D01*
X31651247Y-137261904D02*
X31556009Y-137214285D01*
X31556009Y-137214285D02*
X31508390Y-137166666D01*
X31508390Y-137166666D02*
X31460771Y-137071428D01*
X31460771Y-137071428D02*
X31460771Y-136880952D01*
X31460771Y-136880952D02*
X31508390Y-136785714D01*
X31508390Y-136785714D02*
X31556009Y-136738095D01*
X31556009Y-136738095D02*
X31651247Y-136690476D01*
X43829819Y-12785714D02*
X42829819Y-12785714D01*
X42829819Y-12785714D02*
X42829819Y-13023809D01*
X42829819Y-13023809D02*
X42877438Y-13166666D01*
X42877438Y-13166666D02*
X42972676Y-13261904D01*
X42972676Y-13261904D02*
X43067914Y-13309523D01*
X43067914Y-13309523D02*
X43258390Y-13357142D01*
X43258390Y-13357142D02*
X43401247Y-13357142D01*
X43401247Y-13357142D02*
X43591723Y-13309523D01*
X43591723Y-13309523D02*
X43686961Y-13261904D01*
X43686961Y-13261904D02*
X43782200Y-13166666D01*
X43782200Y-13166666D02*
X43829819Y-13023809D01*
X43829819Y-13023809D02*
X43829819Y-12785714D01*
X43829819Y-14309523D02*
X43829819Y-13738095D01*
X43829819Y-14023809D02*
X42829819Y-14023809D01*
X42829819Y-14023809D02*
X42972676Y-13928571D01*
X42972676Y-13928571D02*
X43067914Y-13833333D01*
X43067914Y-13833333D02*
X43115533Y-13738095D01*
X42829819Y-14642857D02*
X42829819Y-15309523D01*
X42829819Y-15309523D02*
X43829819Y-14880952D01*
X2329819Y-22761905D02*
X1329819Y-22761905D01*
X1329819Y-22761905D02*
X1329819Y-23000000D01*
X1329819Y-23000000D02*
X1377438Y-23142857D01*
X1377438Y-23142857D02*
X1472676Y-23238095D01*
X1472676Y-23238095D02*
X1567914Y-23285714D01*
X1567914Y-23285714D02*
X1758390Y-23333333D01*
X1758390Y-23333333D02*
X1901247Y-23333333D01*
X1901247Y-23333333D02*
X2091723Y-23285714D01*
X2091723Y-23285714D02*
X2186961Y-23238095D01*
X2186961Y-23238095D02*
X2282200Y-23142857D01*
X2282200Y-23142857D02*
X2329819Y-23000000D01*
X2329819Y-23000000D02*
X2329819Y-22761905D01*
X1425057Y-23714286D02*
X1377438Y-23761905D01*
X1377438Y-23761905D02*
X1329819Y-23857143D01*
X1329819Y-23857143D02*
X1329819Y-24095238D01*
X1329819Y-24095238D02*
X1377438Y-24190476D01*
X1377438Y-24190476D02*
X1425057Y-24238095D01*
X1425057Y-24238095D02*
X1520295Y-24285714D01*
X1520295Y-24285714D02*
X1615533Y-24285714D01*
X1615533Y-24285714D02*
X1758390Y-24238095D01*
X1758390Y-24238095D02*
X2329819Y-23666667D01*
X2329819Y-23666667D02*
X2329819Y-24285714D01*
X73579819Y-50285714D02*
X72579819Y-50285714D01*
X72579819Y-50285714D02*
X72579819Y-50523809D01*
X72579819Y-50523809D02*
X72627438Y-50666666D01*
X72627438Y-50666666D02*
X72722676Y-50761904D01*
X72722676Y-50761904D02*
X72817914Y-50809523D01*
X72817914Y-50809523D02*
X73008390Y-50857142D01*
X73008390Y-50857142D02*
X73151247Y-50857142D01*
X73151247Y-50857142D02*
X73341723Y-50809523D01*
X73341723Y-50809523D02*
X73436961Y-50761904D01*
X73436961Y-50761904D02*
X73532200Y-50666666D01*
X73532200Y-50666666D02*
X73579819Y-50523809D01*
X73579819Y-50523809D02*
X73579819Y-50285714D01*
X72675057Y-51238095D02*
X72627438Y-51285714D01*
X72627438Y-51285714D02*
X72579819Y-51380952D01*
X72579819Y-51380952D02*
X72579819Y-51619047D01*
X72579819Y-51619047D02*
X72627438Y-51714285D01*
X72627438Y-51714285D02*
X72675057Y-51761904D01*
X72675057Y-51761904D02*
X72770295Y-51809523D01*
X72770295Y-51809523D02*
X72865533Y-51809523D01*
X72865533Y-51809523D02*
X73008390Y-51761904D01*
X73008390Y-51761904D02*
X73579819Y-51190476D01*
X73579819Y-51190476D02*
X73579819Y-51809523D01*
X72579819Y-52142857D02*
X72579819Y-52809523D01*
X72579819Y-52809523D02*
X73579819Y-52380952D01*
X6329819Y-50761905D02*
X5329819Y-50761905D01*
X5329819Y-50761905D02*
X5329819Y-51000000D01*
X5329819Y-51000000D02*
X5377438Y-51142857D01*
X5377438Y-51142857D02*
X5472676Y-51238095D01*
X5472676Y-51238095D02*
X5567914Y-51285714D01*
X5567914Y-51285714D02*
X5758390Y-51333333D01*
X5758390Y-51333333D02*
X5901247Y-51333333D01*
X5901247Y-51333333D02*
X6091723Y-51285714D01*
X6091723Y-51285714D02*
X6186961Y-51238095D01*
X6186961Y-51238095D02*
X6282200Y-51142857D01*
X6282200Y-51142857D02*
X6329819Y-51000000D01*
X6329819Y-51000000D02*
X6329819Y-50761905D01*
X5329819Y-51666667D02*
X5329819Y-52285714D01*
X5329819Y-52285714D02*
X5710771Y-51952381D01*
X5710771Y-51952381D02*
X5710771Y-52095238D01*
X5710771Y-52095238D02*
X5758390Y-52190476D01*
X5758390Y-52190476D02*
X5806009Y-52238095D01*
X5806009Y-52238095D02*
X5901247Y-52285714D01*
X5901247Y-52285714D02*
X6139342Y-52285714D01*
X6139342Y-52285714D02*
X6234580Y-52238095D01*
X6234580Y-52238095D02*
X6282200Y-52190476D01*
X6282200Y-52190476D02*
X6329819Y-52095238D01*
X6329819Y-52095238D02*
X6329819Y-51809524D01*
X6329819Y-51809524D02*
X6282200Y-51714286D01*
X6282200Y-51714286D02*
X6234580Y-51666667D01*
D13*
%TO.C,REF\u002A\u002A*%
X88050000Y-74050000D02*
X89950000Y-74050000D01*
X89950000Y-74050000D02*
X89950000Y-75950000D01*
X88050000Y-75950000D02*
X88050000Y-74050000D01*
X89950000Y-75950000D02*
X88050000Y-75950000D01*
%TO.C,D35*%
X77875000Y-49850000D02*
X77875000Y-53860000D01*
X77875000Y-53860000D02*
X79875000Y-53860000D01*
X79875000Y-49850000D02*
X79875000Y-53860000D01*
%TO.C,D24*%
X40375000Y-137650000D02*
X40375000Y-133640000D01*
X42375000Y-133640000D02*
X40375000Y-133640000D01*
X42375000Y-137650000D02*
X42375000Y-133640000D01*
%TO.C,D34*%
X77875000Y-25150000D02*
X77875000Y-21140000D01*
X79875000Y-21140000D02*
X77875000Y-21140000D01*
X79875000Y-25150000D02*
X79875000Y-21140000D01*
%TO.C,D9*%
X32625000Y-12350000D02*
X32625000Y-16360000D01*
X32625000Y-16360000D02*
X34625000Y-16360000D01*
X34625000Y-12350000D02*
X34625000Y-16360000D01*
%TO.C,D50*%
X115375000Y-25150000D02*
X115375000Y-21140000D01*
X117375000Y-21140000D02*
X115375000Y-21140000D01*
X117375000Y-25150000D02*
X117375000Y-21140000D01*
%TO.C,D41*%
X107625000Y-12350000D02*
X107625000Y-16360000D01*
X107625000Y-16360000D02*
X109625000Y-16360000D01*
X109625000Y-12350000D02*
X109625000Y-16360000D01*
%TO.C,D30*%
X70125000Y-100150000D02*
X70125000Y-96140000D01*
X72125000Y-96140000D02*
X70125000Y-96140000D01*
X72125000Y-100150000D02*
X72125000Y-96140000D01*
%TO.C,J2*%
X85220000Y-77600000D02*
X85220000Y-72400000D01*
X85220000Y-77600000D02*
X84650000Y-77600000D01*
X85220000Y-72400000D02*
X84650000Y-72400000D01*
X83130000Y-77600000D02*
X82110000Y-77600000D01*
X83130000Y-72400000D02*
X82110000Y-72400000D01*
X80590000Y-77600000D02*
X79570000Y-77600000D01*
X80590000Y-72400000D02*
X79570000Y-72400000D01*
X78050000Y-77600000D02*
X77030000Y-77600000D01*
X78050000Y-72400000D02*
X77030000Y-72400000D01*
X75510000Y-77600000D02*
X74490000Y-77600000D01*
X75510000Y-72400000D02*
X74490000Y-72400000D01*
X72970000Y-77600000D02*
X71950000Y-77600000D01*
X72970000Y-72400000D02*
X71950000Y-72400000D01*
X70430000Y-77600000D02*
X69410000Y-77600000D01*
X70430000Y-72400000D02*
X69410000Y-72400000D01*
X67890000Y-77600000D02*
X66870000Y-77600000D01*
X67890000Y-72400000D02*
X66870000Y-72400000D01*
X65350000Y-77600000D02*
X64780000Y-77600000D01*
X65350000Y-72400000D02*
X65350000Y-70960000D01*
X65350000Y-72400000D02*
X64780000Y-72400000D01*
X64780000Y-77600000D02*
X64780000Y-72400000D01*
%TO.C,D37*%
X77875000Y-87350000D02*
X77875000Y-91360000D01*
X77875000Y-91360000D02*
X79875000Y-91360000D01*
X79875000Y-87350000D02*
X79875000Y-91360000D01*
%TO.C,D10*%
X32625000Y-25150000D02*
X32625000Y-21140000D01*
X34625000Y-21140000D02*
X32625000Y-21140000D01*
X34625000Y-25150000D02*
X34625000Y-21140000D01*
%TO.C,D19*%
X40375000Y-49850000D02*
X40375000Y-53860000D01*
X40375000Y-53860000D02*
X42375000Y-53860000D01*
X42375000Y-49850000D02*
X42375000Y-53860000D01*
%TO.C,D6*%
X2875000Y-100150000D02*
X2875000Y-96140000D01*
X4875000Y-96140000D02*
X2875000Y-96140000D01*
X4875000Y-100150000D02*
X4875000Y-96140000D01*
%TO.C,D61*%
X145125000Y-87350000D02*
X145125000Y-91360000D01*
X145125000Y-91360000D02*
X147125000Y-91360000D01*
X147125000Y-87350000D02*
X147125000Y-91360000D01*
%TO.C,D18*%
X40375000Y-25150000D02*
X40375000Y-21140000D01*
X42375000Y-21140000D02*
X40375000Y-21140000D01*
X42375000Y-25150000D02*
X42375000Y-21140000D01*
%TO.C,D22*%
X40375000Y-100150000D02*
X40375000Y-96140000D01*
X42375000Y-96140000D02*
X40375000Y-96140000D01*
X42375000Y-100150000D02*
X42375000Y-96140000D01*
%TO.C,D20*%
X40375000Y-62650000D02*
X40375000Y-58640000D01*
X42375000Y-58640000D02*
X40375000Y-58640000D01*
X42375000Y-62650000D02*
X42375000Y-58640000D01*
%TO.C,D14*%
X32625000Y-100150000D02*
X32625000Y-96140000D01*
X34625000Y-96140000D02*
X32625000Y-96140000D01*
X34625000Y-100150000D02*
X34625000Y-96140000D01*
%TO.C,D48*%
X107625000Y-137650000D02*
X107625000Y-133640000D01*
X109625000Y-133640000D02*
X107625000Y-133640000D01*
X109625000Y-137650000D02*
X109625000Y-133640000D01*
%TO.C,D28*%
X70125000Y-62650000D02*
X70125000Y-58640000D01*
X72125000Y-58640000D02*
X70125000Y-58640000D01*
X72125000Y-62650000D02*
X72125000Y-58640000D01*
%TO.C,D64*%
X145125000Y-137650000D02*
X145125000Y-133640000D01*
X147125000Y-133640000D02*
X145125000Y-133640000D01*
X147125000Y-137650000D02*
X147125000Y-133640000D01*
%TO.C,D40*%
X77875000Y-137650000D02*
X77875000Y-133640000D01*
X79875000Y-133640000D02*
X77875000Y-133640000D01*
X79875000Y-137650000D02*
X79875000Y-133640000D01*
%TO.C,D51*%
X115375000Y-49850000D02*
X115375000Y-53860000D01*
X115375000Y-53860000D02*
X117375000Y-53860000D01*
X117375000Y-49850000D02*
X117375000Y-53860000D01*
%TO.C,D43*%
X107625000Y-49850000D02*
X107625000Y-53860000D01*
X107625000Y-53860000D02*
X109625000Y-53860000D01*
X109625000Y-49850000D02*
X109625000Y-53860000D01*
%TO.C,D45*%
X107625000Y-87350000D02*
X107625000Y-91360000D01*
X107625000Y-91360000D02*
X109625000Y-91360000D01*
X109625000Y-87350000D02*
X109625000Y-91360000D01*
%TO.C,D39*%
X79875000Y-124850000D02*
X79875000Y-128860000D01*
X77875000Y-128860000D02*
X79875000Y-128860000D01*
X77875000Y-124850000D02*
X77875000Y-128860000D01*
%TO.C,D56*%
X115375000Y-137650000D02*
X115375000Y-133640000D01*
X117375000Y-133640000D02*
X115375000Y-133640000D01*
X117375000Y-137650000D02*
X117375000Y-133640000D01*
%TO.C,D25*%
X70125000Y-12350000D02*
X70125000Y-16360000D01*
X70125000Y-16360000D02*
X72125000Y-16360000D01*
X72125000Y-12350000D02*
X72125000Y-16360000D01*
%TO.C,D21*%
X40375000Y-87350000D02*
X40375000Y-91360000D01*
X40375000Y-91360000D02*
X42375000Y-91360000D01*
X42375000Y-87350000D02*
X42375000Y-91360000D01*
%TO.C,D55*%
X117375000Y-124850000D02*
X117375000Y-128860000D01*
X115375000Y-128860000D02*
X117375000Y-128860000D01*
X115375000Y-124850000D02*
X115375000Y-128860000D01*
%TO.C,D49*%
X115375000Y-12350000D02*
X115375000Y-16360000D01*
X115375000Y-16360000D02*
X117375000Y-16360000D01*
X117375000Y-12350000D02*
X117375000Y-16360000D01*
%TO.C,D60*%
X145125000Y-62650000D02*
X145125000Y-58640000D01*
X147125000Y-58640000D02*
X145125000Y-58640000D01*
X147125000Y-62650000D02*
X147125000Y-58640000D01*
%TO.C,U1*%
X184550000Y-54940000D02*
X186500000Y-54940000D01*
X184550000Y-65060000D02*
X186500000Y-65060000D01*
X188450000Y-54940000D02*
X186500000Y-54940000D01*
X188450000Y-65060000D02*
X186500000Y-65060000D01*
X184040000Y-65335000D02*
X183560000Y-65335000D01*
X183800000Y-65005000D01*
X184040000Y-65335000D01*
G36*
X184040000Y-65335000D02*
G01*
X183560000Y-65335000D01*
X183800000Y-65005000D01*
X184040000Y-65335000D01*
G37*
%TO.C,D32*%
X70125000Y-137650000D02*
X70125000Y-133640000D01*
X72125000Y-133640000D02*
X70125000Y-133640000D01*
X72125000Y-137650000D02*
X72125000Y-133640000D01*
%TO.C,D33*%
X77875000Y-12350000D02*
X77875000Y-16360000D01*
X77875000Y-16360000D02*
X79875000Y-16360000D01*
X79875000Y-12350000D02*
X79875000Y-16360000D01*
%TO.C,D5*%
X2875000Y-87350000D02*
X2875000Y-91360000D01*
X2875000Y-91360000D02*
X4875000Y-91360000D01*
X4875000Y-87350000D02*
X4875000Y-91360000D01*
%TO.C,D13*%
X32625000Y-87350000D02*
X32625000Y-91360000D01*
X32625000Y-91360000D02*
X34625000Y-91360000D01*
X34625000Y-87350000D02*
X34625000Y-91360000D01*
%TO.C,D47*%
X109625000Y-124850000D02*
X109625000Y-128860000D01*
X107625000Y-128860000D02*
X109625000Y-128860000D01*
X107625000Y-124850000D02*
X107625000Y-128860000D01*
%TO.C,D42*%
X107625000Y-25150000D02*
X107625000Y-21140000D01*
X109625000Y-21140000D02*
X107625000Y-21140000D01*
X109625000Y-25150000D02*
X109625000Y-21140000D01*
%TO.C,D11*%
X32625000Y-49850000D02*
X32625000Y-53860000D01*
X32625000Y-53860000D02*
X34625000Y-53860000D01*
X34625000Y-49850000D02*
X34625000Y-53860000D01*
%TO.C,D44*%
X107625000Y-62650000D02*
X107625000Y-58640000D01*
X109625000Y-58640000D02*
X107625000Y-58640000D01*
X109625000Y-62650000D02*
X109625000Y-58640000D01*
%TO.C,D8*%
X2875000Y-137650000D02*
X2875000Y-133640000D01*
X4875000Y-133640000D02*
X2875000Y-133640000D01*
X4875000Y-137650000D02*
X4875000Y-133640000D01*
%TO.C,D58*%
X145125000Y-25150000D02*
X145125000Y-21140000D01*
X147125000Y-21140000D02*
X145125000Y-21140000D01*
X147125000Y-25150000D02*
X147125000Y-21140000D01*
%TO.C,D36*%
X77875000Y-62650000D02*
X77875000Y-58640000D01*
X79875000Y-58640000D02*
X77875000Y-58640000D01*
X79875000Y-62650000D02*
X79875000Y-58640000D01*
%TO.C,D59*%
X145125000Y-49850000D02*
X145125000Y-53860000D01*
X145125000Y-53860000D02*
X147125000Y-53860000D01*
X147125000Y-49850000D02*
X147125000Y-53860000D01*
%TO.C,D12*%
X32625000Y-62650000D02*
X32625000Y-58640000D01*
X34625000Y-58640000D02*
X32625000Y-58640000D01*
X34625000Y-62650000D02*
X34625000Y-58640000D01*
%TO.C,D4*%
X2875000Y-62650000D02*
X2875000Y-58640000D01*
X4875000Y-58640000D02*
X2875000Y-58640000D01*
X4875000Y-62650000D02*
X4875000Y-58640000D01*
%TO.C,D62*%
X145125000Y-100150000D02*
X145125000Y-96140000D01*
X147125000Y-96140000D02*
X145125000Y-96140000D01*
X147125000Y-100150000D02*
X147125000Y-96140000D01*
%TO.C,D15*%
X34625000Y-124850000D02*
X34625000Y-128860000D01*
X32625000Y-128860000D02*
X34625000Y-128860000D01*
X32625000Y-124850000D02*
X32625000Y-128860000D01*
%TO.C,D53*%
X115375000Y-87350000D02*
X115375000Y-91360000D01*
X115375000Y-91360000D02*
X117375000Y-91360000D01*
X117375000Y-87350000D02*
X117375000Y-91360000D01*
%TO.C,D57*%
X145125000Y-12350000D02*
X145125000Y-16360000D01*
X145125000Y-16360000D02*
X147125000Y-16360000D01*
X147125000Y-12350000D02*
X147125000Y-16360000D01*
%TO.C,D23*%
X42375000Y-124850000D02*
X42375000Y-128860000D01*
X40375000Y-128860000D02*
X42375000Y-128860000D01*
X40375000Y-124850000D02*
X40375000Y-128860000D01*
%TO.C,D26*%
X70125000Y-25150000D02*
X70125000Y-21140000D01*
X72125000Y-21140000D02*
X70125000Y-21140000D01*
X72125000Y-25150000D02*
X72125000Y-21140000D01*
%TO.C,D29*%
X70125000Y-87350000D02*
X70125000Y-91360000D01*
X70125000Y-91360000D02*
X72125000Y-91360000D01*
X72125000Y-87350000D02*
X72125000Y-91360000D01*
%TO.C,D54*%
X115375000Y-100150000D02*
X115375000Y-96140000D01*
X117375000Y-96140000D02*
X115375000Y-96140000D01*
X117375000Y-100150000D02*
X117375000Y-96140000D01*
%TO.C,D7*%
X4875000Y-124850000D02*
X4875000Y-128860000D01*
X2875000Y-128860000D02*
X4875000Y-128860000D01*
X2875000Y-124850000D02*
X2875000Y-128860000D01*
%TO.C,D46*%
X107625000Y-100150000D02*
X107625000Y-96140000D01*
X109625000Y-96140000D02*
X107625000Y-96140000D01*
X109625000Y-100150000D02*
X109625000Y-96140000D01*
%TO.C,D52*%
X115375000Y-62650000D02*
X115375000Y-58640000D01*
X117375000Y-58640000D02*
X115375000Y-58640000D01*
X117375000Y-62650000D02*
X117375000Y-58640000D01*
%TO.C,D63*%
X147125000Y-124850000D02*
X147125000Y-128860000D01*
X145125000Y-128860000D02*
X147125000Y-128860000D01*
X145125000Y-124850000D02*
X145125000Y-128860000D01*
%TO.C,D31*%
X72125000Y-124850000D02*
X72125000Y-128860000D01*
X70125000Y-128860000D02*
X72125000Y-128860000D01*
X70125000Y-124850000D02*
X70125000Y-128860000D01*
%TO.C,D38*%
X77875000Y-100150000D02*
X77875000Y-96140000D01*
X79875000Y-96140000D02*
X77875000Y-96140000D01*
X79875000Y-100150000D02*
X79875000Y-96140000D01*
%TO.C,D1*%
X2875000Y-12350000D02*
X2875000Y-16360000D01*
X2875000Y-16360000D02*
X4875000Y-16360000D01*
X4875000Y-12350000D02*
X4875000Y-16360000D01*
%TO.C,D16*%
X32625000Y-137650000D02*
X32625000Y-133640000D01*
X34625000Y-133640000D02*
X32625000Y-133640000D01*
X34625000Y-137650000D02*
X34625000Y-133640000D01*
%TO.C,D17*%
X40375000Y-12350000D02*
X40375000Y-16360000D01*
X40375000Y-16360000D02*
X42375000Y-16360000D01*
X42375000Y-12350000D02*
X42375000Y-16360000D01*
%TO.C,D2*%
X2875000Y-25150000D02*
X2875000Y-21140000D01*
X4875000Y-21140000D02*
X2875000Y-21140000D01*
X4875000Y-25150000D02*
X4875000Y-21140000D01*
%TO.C,D27*%
X70125000Y-49850000D02*
X70125000Y-53860000D01*
X70125000Y-53860000D02*
X72125000Y-53860000D01*
X72125000Y-49850000D02*
X72125000Y-53860000D01*
%TO.C,D3*%
X2875000Y-49850000D02*
X2875000Y-53860000D01*
X2875000Y-53860000D02*
X4875000Y-53860000D01*
X4875000Y-49850000D02*
X4875000Y-53860000D01*
%TD*%
M02*
